<?xml version="1.0" encoding="UTF-8"?>
<svg id="Capa_2" data-name="Capa 2" xmlns="http://www.w3.org/2000/svg" viewBox="0 0 312.88 98.27">
  <defs>
    <style>
      .cls-1 {
        fill: #fff;
        stroke-width: 0px;
      }
    </style>
  </defs>
  <g id="Capa_1-2" data-name="Capa 1">
    <g>
      <path class="cls-1" d="M22.34,15.42c3.32,0,6.42.53,9.29,1.59,2.86,1.06,5.35,2.65,7.44,4.77,2.1,2.12,3.73,4.77,4.91,7.95,1.18,3.18,1.77,6.91,1.77,11.2,0,3.76-.48,7.23-1.44,10.41-.96,3.18-2.42,5.93-4.37,8.24-1.95,2.31-4.38,4.13-7.3,5.46-2.91,1.32-6.35,1.99-10.3,1.99H.08V15.42h22.26ZM21.54,57.49c1.64,0,3.23-.26,4.77-.79,1.54-.53,2.91-1.41,4.12-2.64,1.2-1.23,2.17-2.83,2.89-4.81.72-1.98,1.08-4.38,1.08-7.23,0-2.6-.25-4.95-.76-7.05-.51-2.1-1.34-3.89-2.49-5.38-1.16-1.49-2.69-2.64-4.59-3.43-1.9-.8-4.25-1.19-7.05-1.19h-8.1v32.52h10.12Z"/>
      <polygon class="cls-1" points="62.57 15.42 62.57 57.49 87.72 57.49 87.72 67.03 51.22 67.03 51.22 15.42 62.57 15.42"/>
      <path class="cls-1" d="M113.93,15.42c3.33,0,6.42.53,9.29,1.59,2.87,1.06,5.35,2.65,7.44,4.77,2.1,2.12,3.73,4.77,4.92,7.95,1.18,3.18,1.77,6.91,1.77,11.2,0,3.76-.48,7.23-1.45,10.41-.96,3.18-2.42,5.93-4.37,8.24-1.95,2.31-4.38,4.13-7.3,5.46-2.92,1.32-6.35,1.99-10.3,1.99h-22.26V15.42h22.26ZM113.14,57.49c1.64,0,3.23-.26,4.77-.79,1.54-.53,2.91-1.41,4.12-2.64,1.2-1.23,2.17-2.83,2.89-4.81.72-1.98,1.08-4.38,1.08-7.23,0-2.6-.25-4.95-.76-7.05-.5-2.1-1.34-3.89-2.49-5.38-1.16-1.49-2.69-2.64-4.59-3.43-1.9-.8-4.25-1.19-7.05-1.19h-8.1v32.52h10.12Z"/>
      <path class="cls-1" d="M153.9,54.31c.62,1.2,1.46,2.18,2.49,2.93,1.03.75,2.25,1.3,3.65,1.66,1.4.36,2.84.54,4.34.54,1.01,0,2.09-.08,3.25-.25,1.16-.17,2.24-.49,3.25-.97,1.01-.48,1.85-1.14,2.53-1.99.67-.84,1.01-1.92,1.01-3.22,0-1.4-.45-2.53-1.34-3.4-.89-.87-2.06-1.59-3.5-2.17-1.45-.58-3.09-1.08-4.92-1.52-1.83-.43-3.69-.92-5.57-1.45-1.93-.48-3.81-1.07-5.64-1.77-1.83-.7-3.47-1.6-4.91-2.71-1.45-1.11-2.62-2.49-3.51-4.16-.89-1.66-1.34-3.67-1.34-6.04,0-2.65.57-4.95,1.7-6.9,1.13-1.95,2.61-3.58,4.45-4.88,1.83-1.3,3.9-2.26,6.21-2.89,2.31-.63,4.63-.94,6.94-.94,2.7,0,5.29.3,7.77.9,2.48.6,4.69,1.58,6.61,2.93,1.93,1.35,3.46,3.07,4.59,5.17,1.13,2.1,1.7,4.64,1.7,7.62h-10.99c-.1-1.54-.42-2.82-.97-3.83-.56-1.01-1.29-1.81-2.21-2.38-.92-.58-1.96-.99-3.14-1.23-1.18-.24-2.47-.36-3.87-.36-.92,0-1.83.1-2.75.29-.92.19-1.75.53-2.49,1.01-.75.48-1.36,1.08-1.84,1.81-.48.72-.72,1.64-.72,2.75,0,1.01.19,1.83.58,2.46.38.63,1.14,1.2,2.28,1.73,1.13.53,2.7,1.06,4.7,1.59,2,.53,4.61,1.2,7.84,2.02.96.19,2.3.54,4.01,1.05,1.71.51,3.41,1.31,5.1,2.42,1.69,1.11,3.14,2.59,4.37,4.44,1.23,1.85,1.84,4.23,1.84,7.12,0,2.36-.46,4.55-1.37,6.58-.92,2.02-2.28,3.77-4.08,5.24-1.81,1.47-4.05,2.61-6.72,3.43-2.67.82-5.77,1.23-9.29,1.23-2.84,0-5.6-.35-8.27-1.05-2.67-.7-5.03-1.79-7.08-3.29-2.05-1.49-3.68-3.4-4.88-5.71-1.2-2.31-1.78-5.06-1.73-8.24h10.98c0,1.73.31,3.2.94,4.41"/>
      <path class="cls-1" d="M238.46,98.25c-1.93-3.98-4.28-6.25-6.13-7.29l-.11.28c-3.73,7.52-12.73,6.96-12.73,6.96-29.71.08-36.98-26.94-36.98-26.94,5.43,5.01,24.42.54,24.42.54,21.61-6.13,25.5,12.78,25.5,12.78,0,0-7.7-5.92-19.93-3.31-.35.03-.67.23-.83.57-.25.51-.04,1.11.47,1.36.21.1.43.12.64.09h0c6.51-.74,11.58-.03,15.52,1.41,9.5,3.71,12.86,11.33,13.67,13.57"/>
      <path class="cls-1" d="M256.65,97.72c1.97-3.96,4.35-6.21,6.21-7.23l.11.28c3.65,7.56,12.66,7.1,12.66,7.1,29.71.4,37.26-26.54,37.26-26.54-5.48,4.95-24.42.28-24.42.28-21.54-6.36-25.63,12.51-25.63,12.51,0,0,7.76-5.84,19.96-3.1.35.03.67.24.83.58.24.51.02,1.11-.48,1.36-.21.1-.43.12-.64.08h0c-6.5-.81-11.58-.15-15.53,1.25-9.54,3.61-12.98,11.2-13.81,13.42"/>
      <path class="cls-1" d="M248.39,97.67c-4.11-5.52-3.57-11.19-3.57-11.19,12.59.27,17.81-12.17,17.81-12.17,19.34-38.89-11.36-65.92-11.36-65.92,3.05,10.36-15.1,32.36-15.1,32.36-22.03,24.36.24,41.69.24,41.69,0,0-2.78-13.93,8.57-28.26.26-.44.74-.72,1.28-.72.82,0,1.48.67,1.48,1.49,0,.34-.11.64-.3.89-13.07,20.32-8.13,34.59-3.45,41.8l4.41.02Z"/>
      <path class="cls-1" d="M291.14,69.03c-.81-.18-1.6-.34-2.38-.53-1.24-.3-2.47-.62-3.71-.94-.88-.22-1.76-.38-2.66-.46-.34-.03-.67-.08-1.04-.12.06-.12.1-.22.15-.31,1.56-3.05,2.7-6.25,3.43-9.6.28-1.28.48-2.57.63-3.87.16-1.38.24-2.76.25-4.14,0-1.06-.07-2.12-.12-3.18-.04-.89-.16-1.77-.27-2.65-.24-1.74-.61-3.46-1.08-5.16-1.79-6.31-4.96-11.83-9.49-16.56-4.56-4.75-9.98-8.15-16.23-10.21-.28-.09-.49-.23-.67-.46-1.65-2.13-3.5-4.05-5.66-5.67-1.11-.83-2.3-1.54-3.61-2.04-.3-.11-.62-.21-.93-.31-.06-.02-.12,0-.22-.01.14.74.41,1.42.52,2.14.11.74.21,1.48.28,2.22.07.73.08,1.46.13,2.21-.13.01-.21.04-.3.03-1.37-.12-2.74-.04-4.11.02-.82.04-1.64.15-2.46.24-2,.22-3.96.63-5.89,1.18-4.54,1.28-8.71,3.32-12.51,6.11-5.13,3.76-9.13,8.48-12,14.16-1.57,3.11-2.7,6.39-3.39,9.8-.29,1.45-.51,2.91-.64,4.39-.16,1.87-.19,3.73-.08,5.6.07,1.31.2,2.61.4,3.9.31,2,.77,3.97,1.39,5.9.67,2.08,1.5,4.09,2.5,6.03.06.11.11.22.16.33.01.03,0,.06,0,.1-.31.03-.62.08-.92.1-.9.05-1.79.25-2.67.41-1.12.21-2.23.41-3.35.61-.75.13-1.5.23-2.24.34-.18-.09-.2-.25-.26-.39-.98-2.24-1.78-4.55-2.41-6.91-.46-1.72-.81-3.45-1.08-5.21-.18-1.18-.31-2.38-.4-3.57-.14-1.82-.18-3.64-.12-5.46.04-1.21.13-2.43.26-3.63.25-2.4.68-4.77,1.3-7.11,1.37-5.21,3.53-10.06,6.53-14.54,4.73-7.05,10.86-12.54,18.4-16.45,3.68-1.9,7.55-3.28,11.59-4.19,1.24-.28,2.5-.52,3.76-.67.93-.11,1.85-.23,2.78-.32.65-.06,1.3-.08,1.96-.11,1.06-.05,2.11-.1,3.18-.05.93.04,1.87.1,2.8.16.51.03,1.02.08,1.53.13.57.06,1.15.12,1.71.21.99.17,1.99.34,2.98.54,2.52.5,4.97,1.23,7.37,2.15,5.6,2.14,10.62,5.23,15.08,9.24,4.5,4.04,8.14,8.74,10.9,14.12,2.02,3.93,3.45,8.06,4.34,12.38.32,1.55.57,3.12.72,4.7.24,2.5.36,5,.19,7.51-.07,1.06-.13,2.12-.24,3.17-.2,1.89-.53,3.76-.97,5.61-.7,2.97-1.66,5.86-2.91,8.65-.06.14-.13.27-.21.43"/>
      <path class="cls-1" d="M248.38,12.59c-.05.37-.09.71-.15,1.04-.33,1.78-.86,3.5-1.54,5.18-.62,1.51-1.34,2.98-2.13,4.41-.05.09-.11.18-.17.28-.33.04-.66.08-.98.12-4.94.59-9.32,2.48-13.14,5.65-4,3.31-6.72,7.47-8.19,12.45-.41,1.39-.68,2.81-.84,4.25-.18,1.6-.21,3.2-.08,4.8.25,3.09,1.03,6.04,2.37,8.83.12.26.19.51.18.8-.02.84-.04,1.68,0,2.52.05,1.37.23,2.73.49,4.08.24,1.24.57,2.45.98,3.65.03.1.05.2.09.38-1.05-.69-2.07-1.28-3.15-1.77-1.09-.5-2.21-.91-3.37-1.24-1.14-.32-2.3-.53-3.44-.69-6.69-10.97-7.27-26.03.65-38.21,8.54-13.14,22.32-17.24,32.42-16.53"/>
      <path class="cls-1" d="M262.19,16.19c.35.05,1.46.62,2.91,1.5,4.23,2.57,7.81,5.86,10.71,9.87,2.85,3.94,4.84,8.29,5.93,13.04,1.06,4.6,1.21,9.25.47,13.91-.9,5.62-3,10.03-4.54,12.55-.37.06-.77.12-1.17.18-3.33.51-6.38,1.71-9.16,3.62-.09.06-.18.11-.28.16,0,0-.02,0-.05-.02-.04-.16.06-.29.11-.43.76-2.02,1.44-4.08,2.02-6.16.65-2.32,1.21-4.67,1.59-7.05.21-1.31.37-2.62.57-3.93.12-.8.25-1.6.33-2.4.08-.79.1-1.58.09-2.38,0-.67-.05-1.34-.08-2,0-.14-.01-.28-.01-.42-.02-1.45-.11-2.89-.24-4.34-.34-3.91-1.12-7.72-2.29-11.46-1.54-4.92-3.76-9.51-6.66-13.78-.1-.14-.18-.29-.27-.43,0,0,0-.02,0-.04"/>
      <path class="cls-1" d="M224.79,53.53c-.44-1.11-.69-4.66-.52-6.51.34-3.81,1.52-7.33,3.65-10.52,2.05-3.08,4.7-5.5,7.95-7.28,1.98-1.08,5.24-2.22,6.4-2.23.04.13-.06.22-.12.32-.9,1.38-1.79,2.78-2.72,4.14-2.49,3.63-5.22,7.07-8.16,10.33-2.95,3.27-5.01,7.03-6.3,11.23-.05.15-.1.29-.17.52"/>
      <path class="cls-1" d="M201.99,97.84l-201.99-.35v-23.87h178.86c1.99,5.18,8.34,18.33,23.13,24.22M15.91,85.89c0-4.2-2.35-5.95-6.18-5.95-1.4,0-2.8.05-3.76.07v12.12c.95.02,1.98.07,3.22.07,3.95,0,6.72-2.14,6.72-6.31M13.83,86.03c0,3.11-1.83,4.49-4.44,4.49-.47,0-1.06-.04-1.46-.09v-8.82c.43-.04,1.06-.06,1.65-.06,2.97,0,4.24,1.6,4.24,4.47M21.83,79.99h-1.96v12.13h1.96v-12.13ZM33.25,88.46c0-3.79-5.3-2.89-5.3-5.32,0-1.01.77-1.71,2.28-1.71.72,0,1.49.12,2.2.34l.1-1.74c-.74-.12-1.47-.21-2.19-.21-2.82,0-4.46,1.45-4.46,3.54,0,3.92,5.3,2.84,5.3,5.39,0,1.31-1.08,1.87-2.41,1.87-.88,0-1.83-.2-2.52-.45l-.11,1.85c.7.18,1.56.29,2.45.29,2.89,0,4.65-1.62,4.65-3.85M44.23,81.65v-1.65h-8.63v1.65h3.32v10.48h1.96v-10.48h3.34ZM55.85,92.12l-3.2-4.22c-.3-.39-.69-.86-1.02-1.29,1.97-.22,3.43-1.46,3.43-3.4,0-2.41-1.72-3.28-4.24-3.28-1.37,0-2.37.02-3.25.07v12.13h1.96v-5.25h.09l3.78,5.25h2.46ZM53.01,83.42c0,1.2-.95,2.02-2.53,2.02-.43,0-.78-.02-.95-.04v-3.85c.29-.02.65-.03,1.03-.03,1.63,0,2.46.58,2.46,1.9M61.53,79.99h-1.96v12.13h1.96v-12.13ZM74.56,88.46c0-1.26-.73-2.46-2.32-2.77v-.04c1.24-.43,2.07-1.53,2.07-2.77,0-1.87-1.36-2.95-4-2.95-1.48,0-2.86.03-3.81.05v12.13c1.35.02,2.57.05,3.31.05,3.72,0,4.76-2.14,4.76-3.72M72.26,83.19c0,1.22-.95,1.96-2.77,1.96-.41,0-.72,0-1.04-.02v-3.59c.47-.02.99-.04,1.53-.04,1.72,0,2.28.7,2.28,1.69M72.5,88.49c0,1.22-.84,2.08-2.62,2.08-.63,0-1.11-.03-1.42-.09v-3.86c.27-.02.9-.02,1.1-.02,1.7,0,2.94.5,2.94,1.89M88.16,87.45v-7.46h-1.92v7.6c0,2.26-.9,3.09-2.87,3.09-2.25,0-2.79-1.22-2.79-2.84v-7.86h-1.96v8c0,2.23.81,4.31,4.62,4.31,3.18,0,4.92-1.62,4.92-4.85M94.99,79.99h-1.96v12.13h1.96v-12.13ZM109.89,85.89c0-4.2-2.36-5.95-6.18-5.95-1.4,0-2.8.05-3.75.07v12.12c.95.02,1.98.07,3.22.07,3.95,0,6.72-2.14,6.72-6.31M107.81,86.03c0,3.11-1.83,4.49-4.44,4.49-.47,0-1.06-.04-1.46-.09v-8.82c.43-.04,1.06-.06,1.65-.06,2.97,0,4.24,1.6,4.24,4.47M124.42,85.9c0-4.06-2.19-6.09-5.46-6.09s-5.82,2.35-5.82,6.38c0,3.72,1.78,6.11,5.47,6.11,3.21,0,5.82-2.37,5.82-6.4M122.34,86.1c0,3.02-1.8,4.46-3.6,4.46-2.39,0-3.52-1.85-3.52-4.6,0-2.91,1.69-4.42,3.56-4.42,2.26,0,3.56,1.63,3.56,4.56M136.6,92.12l-3.2-4.22c-.31-.39-.68-.86-1.02-1.29,1.98-.22,3.43-1.46,3.43-3.4,0-2.41-1.72-3.28-4.24-3.28-1.37,0-2.37.02-3.25.07v12.13h1.96v-5.25h.09l3.78,5.25h2.46ZM133.76,83.42c0,1.2-.95,2.02-2.53,2.02-.43,0-.77-.02-.95-.04v-3.85c.29-.02.65-.03,1.03-.03,1.63,0,2.46.58,2.46,1.9M146.72,92.12v-1.67h-4.44v-3.78h4.23v-1.6h-4.23v-3.45h4.44v-1.64h-6.4v12.13h6.4ZM157.87,88.46c0-3.79-5.3-2.89-5.3-5.32,0-1.01.77-1.71,2.28-1.71.72,0,1.49.12,2.19.34l.11-1.74c-.74-.12-1.47-.21-2.19-.21-2.82,0-4.46,1.45-4.46,3.54,0,3.92,5.3,2.84,5.3,5.39,0,1.31-1.08,1.87-2.41,1.87-.88,0-1.83-.2-2.51-.45l-.11,1.85c.7.18,1.56.29,2.44.29,2.9,0,4.66-1.62,4.66-3.85"/>
    </g>
  </g>
</svg>