<?xml version="1.0" encoding="UTF-8"?>
<svg id="Capa_2" data-name="Capa 2" xmlns="http://www.w3.org/2000/svg" viewBox="0 0 29.74 36.47">
  <defs>
    <style>
      .cls-1 {
        stroke-width: 0px;
      }
    </style>
  </defs>
  <g id="_Capa_" data-name="&amp;lt;Capa&amp;gt;">
    <g>
      <path class="cls-1" d="M14.89,6.46c4.65,0,9.3,0,13.94,0,.3,0,.61.14.91.21-.18.27-.32.57-.54.79-3.4,3.32-6.81,6.63-10.23,9.92-.42.41-.65.81-.61,1.42.05.75,0,1.5.02,2.25.01.44-.12.67-.61.66-1.96-.02-3.92-.02-5.89,0-.47,0-.67-.18-.63-.64,0-.1-.01-.21,0-.31.34-1.99-.45-3.39-1.94-4.74C6.26,13.25,3.38,10.28.44,7.38c-.2-.19-.29-.49-.44-.74.26-.06.53-.17.79-.17,4.7-.01,9.4,0,14.1,0Z"/>
      <path class="cls-1" d="M27.66,5.37h-11.41c.26-2.39,2.85-4.54,5.49-4.61,2.87-.07,5.51,1.97,5.92,4.61Z"/>
      <path class="cls-1" d="M15.9,2.72c0,1.46-1.2,2.67-2.65,2.68-1.48.01-2.71-1.22-2.7-2.71C10.56,1.22,11.75.01,13.2,0c1.47-.02,2.71,1.23,2.7,2.72Z"/>
      <path class="cls-1" d="M14.85,24.37c1.07,2.14,2.1,4.11,3.05,6.13.29.62.49,1.33.53,2.01.13,2.23-1.54,4.02-3.62,3.97-2.03-.05-3.65-1.98-3.45-4.16.04-.48.12-.98.32-1.4,1.02-2.16,2.08-4.31,3.16-6.55Z"/>
      <path class="cls-1" d="M10.12,5.55H2.64c.29-1.74,2-3.11,3.82-3.07,1.77.03,3.44,1.42,3.67,3.07Z"/>
    </g>
  </g>
</svg>