<?xml version="1.0" encoding="UTF-8"?>
<svg id="Capa_2" data-name="Capa 2" xmlns="http://www.w3.org/2000/svg" viewBox="0 0 31.99 36.5">
  <defs>
    <style>
      .cls-1 {
        stroke-width: 0px;
      }
    </style>
  </defs>
  <g id="_Capa_" data-name="&amp;lt;Capa&amp;gt;">
    <g>
      <path class="cls-1" d="M14.89,6.85h2.03c0,.16.03.34.03.53,0,3.52,0,7.03,0,10.55,0,.25-.1.52-.21.76-.2.45-.15.83.21,1.16.37.33.96.34,1.33,0,.36-.32.43-.7.23-1.15-.12-.27-.21-.58-.21-.87-.01-3.59,0-7.19-.02-10.78,0-.4.1-.6.51-.75,1.2-.42,2.27-1.08,3.18-1.97.3-.29.54-.31.91-.17,1.19.46,2.39.89,3.59,1.32.65.23,1.12.64,1.41,1.28,3.18,7.04,4.55,14.41,4,22.12-.12,1.71-.37,3.41-.59,5.11-.07.6-.17,1.21-.33,1.79-.05.18-.32.4-.5.41-.79.05-1.58.05-2.37,0-.18,0-.47-.23-.51-.4-.23-1-.44-2-.58-3.01-.51-3.65-.99-7.31-1.49-10.97-.01-.09-.04-.17-.18-.26-.08,4.48-.17,8.96-.25,13.47H7.3c-.26-4.38-.53-8.77-.79-13.15-.04,0-.08,0-.12,0-.12,1.01-.25,2.01-.37,3.02-.36,3.09-.71,6.17-1.1,9.26-.04.31-.3.58-.42.88-.08.22-.15.47-.14.7.03.55-.2.77-.75.75-.71-.03-1.43,0-2.14-.02-.18,0-.5-.18-.5-.26.06-.73-.4-1.34-.48-2-.23-1.91-.41-3.84-.47-5.77-.2-7.24,1.09-14.22,3.72-20.97.36-.92.9-1.57,1.85-1.92,1.07-.39,2.1-.88,3.14-1.34.28-.13.47-.12.71.11,1.06,1.02,2.31,1.75,3.72,2.16.3.09.39.21.39.52,0,3.88,0,7.77-.01,11.65,0,.18-.07.37-.16.53-.28.47-.22.89.18,1.25.37.33.96.32,1.33-.02.4-.37.41-.79.14-1.26-.09-.15-.15-.35-.15-.53-.01-3.81-.01-7.61-.02-11.42,0-.09.02-.19.03-.35ZM11.42,27.28c-.1,1.84-.9,3.23-2.62,4-.35.16-.56.39-.41.76.14.37.45.41.82.27,2.26-.83,3.85-3.86,3.18-6.14-.06-.2-.4-.32-.61-.48-.15.2-.38.38-.42.6-.05.31.04.65.06.99ZM19.87,27.35c.07,2.27.94,3.9,2.8,4.96.35.2.7.33.96-.09.27-.44-.09-.61-.39-.86-.57-.47-1.18-.94-1.6-1.54-.72-1.03-.81-2.22-.53-3.44.08-.35.05-.68-.37-.78-.42-.1-.61.18-.68.53-.09.45-.14.91-.19,1.22Z"/>
      <path class="cls-1" d="M16.64,5.53c1.32-1.67,2.47-3.3,3.81-4.75.72-.77,1.83-.96,2.92-.6,1.13.37,1.77,1.19,2.01,2.33.08.38.06.78.09,1.25-.82-.29-1.54-.5-2.23-.78-.59-.24-1.04-.15-1.52.29-1.4,1.25-3.04,2.01-5.07,2.27Z"/>
      <path class="cls-1" d="M6.78,3.66c-.3-1.4.26-2.71,1.36-3.27,1.09-.55,2.59-.18,3.54.93.69.8,1.34,1.64,2.01,2.47.45.55.89,1.1,1.41,1.75-1.54-.1-2.85-.55-4.05-1.3-.49-.3-.96-.65-1.39-1.03-.39-.34-.75-.4-1.22-.2-.53.23-1.07.42-1.66.64Z"/>
      <path class="cls-1" d="M15.87,4.92c-.88-1.09-1.72-2.13-2.68-3.32,1.85.39,3.53.44,5.35-.07-.95,1.2-1.79,2.27-2.67,3.38Z"/>
    </g>
  </g>
</svg>