<?xml version="1.0" encoding="UTF-8"?>
<svg id="Capa_2" data-name="Capa 2" xmlns="http://www.w3.org/2000/svg" viewBox="0 0 32.45 36.97">
  <defs>
    <style>
      .cls-1 {
        stroke-width: 0px;
      }
    </style>
  </defs>
  <g id="_Capa_" data-name="&amp;lt;Capa&amp;gt;">
    <g id="APYSDg">
      <g>
        <path class="cls-1" d="M15.15,36.97c.05-.12.1-.24.16-.36,1.87-3.28,3.74-6.55,5.6-9.83.13-.23.29-.35.54-.41,1.63-.43,3.25-.87,4.87-1.3.07-.02.14-.04.24-.08-.18-.68-.36-1.36-.55-2.07-1.12.3-2.21.59-3.39.9,1.21-2.09,2.37-4.11,3.56-6.16-.61-.36-1.22-.71-1.87-1.08-.46.79-.9,1.56-1.4,2.41-.32-1.17-.61-2.26-.91-3.38-.7.19-1.38.37-2.08.56.33,1.22.64,2.41.96,3.6.15.54.3,1.09.43,1.64.03.14.02.32-.05.44-.84,1.47-1.69,2.94-2.53,4.4-.03.06-.08.11-.15.2-.31-1.13-.6-2.22-.9-3.34-.7.19-1.37.37-2.09.56.25.95.5,1.87.74,2.79.22.81.44,1.62.65,2.44.03.13.04.3-.02.41-1.21,2.16-2.43,4.31-3.65,6.46-.01.02-.04.03-.12.09-.25-.92-.52-1.81-.74-2.71-.68-2.79-1.06-5.62-.83-8.5.22-2.8.95-5.44,2.59-7.76,1.24-1.75,2.8-3.16,4.6-4.32,3.34-2.14,7.02-3.42,10.93-4.06.52-.08.52-.08.72.41.98,2.51,1.59,5.11,1.86,7.79.23,2.23.18,4.44-.29,6.63-.54,2.57-1.65,4.85-3.46,6.78-2.37,2.52-5.28,4.17-8.49,5.34-1.53.56-3.11.98-4.67,1.47-.04.01-.08.04-.12.07h-.14Z"/>
        <path class="cls-1" d="M8.05,20.36c.68.18,1.31.36,1.89.51-.22,1.62-.43,3.21-.64,4.81.01,0-.04,0-.09-.03-2.42-1.27-4.58-2.87-6.25-5.06-1.36-1.78-2.17-3.8-2.59-5.99C-.32,11.02.02,7.48.91,3.97c.34-1.32.79-2.61,1.2-3.97.81.15,1.54.26,2.26.42,3.28.73,6.4,1.89,9.23,3.73,2.1,1.36,3.9,3.05,5.2,5.21.09.14.17.29.28.49-1.76,1.01-3.4,2.17-4.88,3.57.16-.62.32-1.23.49-1.89-.69-.18-1.37-.37-2.08-.56-.3,1.12-.59,2.2-.91,3.38-1.21-2.09-2.38-4.12-3.56-6.16-.63.36-1.23.71-1.87,1.08.45.79.9,1.56,1.39,2.42-1.17-.31-2.26-.6-3.38-.9-.19.69-.37,1.37-.56,2.08.91.25,1.78.49,2.66.72.83.22,1.67.43,2.5.68.18.05.37.21.47.37.55.91,1.07,1.85,1.62,2.77.15.25.19.46.04.72-.12.21-.2.43-.32.7-.68-.18-1.36-.36-2.08-.55-.18.68-.37,1.36-.56,2.08Z"/>
      </g>
    </g>
  </g>
</svg>