<?xml version="1.0" encoding="UTF-8"?>
<svg id="Capa_2" data-name="Capa 2" xmlns="http://www.w3.org/2000/svg" viewBox="0 0 103.48 96.58">
  <defs>
    <style>
      .cls-1 {
        fill: #4d4d4d;
      }

      .cls-1, .cls-2 {
        stroke-width: 0px;
      }

      .cls-2 {
        fill: #0caa91;
        fill-rule: evenodd;
      }
    </style>
  </defs>
  <g id="_Capa_" data-name="&amp;lt;Capa&amp;gt;">
    <g>
      <path class="cls-2" d="M69.89,36.67l-.82,1.63s4.09-1.63,6.33.41,1.23,5.72-.82,8.79-18.19,24.52-18.19,24.52c0,0-10.42,6.95-12.26,6.13-1.84-.82,2.66-10.01,8.17-17.37,5.52-7.36,17.57-24.11,17.57-24.11Z"/>
      <path class="cls-1" d="M102.83,24.96c-.75-.61-1.85-.49-2.45.26l-1.09,1.36-2.71-2.19c1.37-1.71,2.18-2.71,2.18-2.71,2.42-2.99,1.94-7.38-1.05-9.79-2.99-2.41-7.38-1.94-9.79,1.05,0,0-5.29,6.56-12.03,14.93V8.73c0-4.82-3.91-8.73-8.73-8.73H28.31c-2.67,0-5.22,1.06-7.11,2.94L2.08,22.06c-1.33,1.33-2.08,3.14-2.08,5.03v60.76c0,4.82,3.91,8.73,8.73,8.73h58.42c4.82,0,8.73-3.91,8.73-8.73v-37.77c6.82-8.46,14.04-17.43,18.51-22.98l2.69,2.22-16.36,20.31c-.61.75-.49,1.84.26,2.45.75.6,1.85.49,2.45-.26l19.66-24.41c.61-.75.49-1.84-.26-2.45ZM24.14,4.88v13.99c0,2.91-2.37,5.28-5.28,5.28H4.88L24.14,4.88ZM72.43,87.85c0,2.91-2.37,5.28-5.28,5.28H8.73c-2.91,0-5.28-2.37-5.28-5.28V27.59h15.41c4.82,0,8.73-3.91,8.73-8.73V3.45h39.56c2.91,0,5.28,2.37,5.28,5.28v23.43l-12.99,16.13H15.52c-.95,0-1.72.77-1.72,1.72s.77,1.72,1.72,1.72h41.14c-2.14,2.65-4.05,5.02-5.55,6.9H15.52c-.95,0-1.72.77-1.72,1.72s.77,1.72,1.72,1.72h32.83c-5.25,6.64-7.21,12.83-6.21,16l-.99,1.23c-4.78-.12-5.69-1.63-6.47-2.97-.44-.78-1-1.75-2.15-2.24-2.8-1.19-4.84,1.44-6.33,3.37-.28.36-.66.86-.98,1.24-.1-.53-.2-1.16-.27-1.65-.47-3.21-1.2-8.08-5.41-8.08-3.07,0-5.75,4.03-5.75,8.62,0,.95.77,1.72,1.72,1.72s1.72-.77,1.72-1.72c0-3.28,1.74-5.17,2.3-5.17,1.24,0,1.7,3.09,2,5.13.38,2.56.77,5.21,3.13,5.21,1.78,0,3.04-1.62,4.25-3.19.57-.73,1.75-2.26,2.24-2.31.11.08.36.51.52.79,1.31,2.29,3.28,4.73,10.04,4.73.53.02,1.26-.21,1.62-.66l1.5-1.86c3.37.31,9.14-3.01,14.59-9.78,2.17-2.69,7.22-8.96,12.99-16.13v33.48ZM56.73,68.31c-5.11,6.35-9.82,8.55-11.37,8.57-.31-1.52.83-6.59,5.95-12.93l19.66-24.41,5.42,4.37-19.66,24.41ZM78.57,41.19l-5.42-4.37,17.47-21.69c1.2-1.5,3.41-1.73,4.9-.53,1.49,1.21,1.73,3.4.53,4.9l-17.48,21.69ZM50.58,15.52c0-.95.37-1.72.82-1.72h9.86c.45,0,.82.77.82,1.72s-.37,1.72-.82,1.72h-9.86c-.45,0-.82-.77-.82-1.72ZM13.8,39.67c0-.95.77-1.72,1.72-1.72h44.84c.95,0,1.72.77,1.72,1.72s-.77,1.72-1.72,1.72H15.52c-.95,0-1.72-.77-1.72-1.72Z"/>
      <path class="cls-1" d="M46.52,8.94v3.62h-2.56c-.09-.1-.22-.26-.37-.41-.74-.76-1.67-.98-2.69-.87-.23.02-.47.12-.65.26-.65.46-.67,1.21-.01,1.66.32.22.71.37,1.09.47.87.24,1.77.37,2.63.65.94.32,1.74.88,2.29,1.75,1.03,1.63.47,3.8-1.23,4.71-.3.16-.62.28-.94.39-.31.1-.63.14-.99.22v1.06h-2.45v-1.41c-.26-.12-.48-.22-.73-.33-.02.18-.03.32-.04.5h-2.42v-3.64h2.4c.37.29.72.64,1.14.89.86.52,1.79.6,2.73.23.68-.27.81-.93.31-1.47-.41-.45-.96-.64-1.53-.77-.59-.14-1.19-.23-1.78-.38-1.06-.26-2.02-.75-2.7-1.61-1.24-1.57-.84-3.85.86-4.94.26-.17.54-.31.83-.42.27-.11.56-.17.9-.27v-1.1h2.47v1.27c.34.14.65.27.98.41.01-.16.03-.29.04-.45h2.43Z"/>
    </g>
  </g>
</svg>