<?xml version="1.0" encoding="UTF-8"?>
<svg id="Capa_2" data-name="Capa 2" xmlns="http://www.w3.org/2000/svg" viewBox="0 0 123.18 161.2">
  <defs>
    <style>
      .cls-1 {
        fill: #2f9393;
      }
    </style>
  </defs>
  <g id="_Capa_" data-name="&amp;lt;Capa&amp;gt;">
    <g>
      <g id="vfIcWe">
        <path class="cls-1" d="m31.55,21.17c-5.17-.6-8.72-3.05-10.11-8.03C19.76,7.14,24.08.86,30.27.15c.45-.05.91-.12,1.36-.12,9.35,0,18.7-.1,28.05.04,5.27.08,9.17,3.49,10.21,8.44,1.14,5.43-2.41,10.97-7.85,12.23-.77.18-1.55.3-2.46.47,0,.59,0,1.15,0,1.71,0,15.97.02,31.93-.03,47.9,0,1.35.39,1.91,1.65,2.45,3.12,1.35,6.12,2.99,9.09,4.47,2.55-2.53,5.21-5.17,7.97-7.9-2.12-2.47-3.23-5.39-2.73-8.84,1.13-7.78,10.57-12.04,16.42-6.83,7.78,6.92,15.03,14.47,22.14,22.09,3.43,3.68,2.65,9.79-.88,13.43-3.56,3.66-9.22,4.22-13.45,1.31-.47-.32-.91-.69-1.75-1.42-.79.95-1.52,1.97-2.39,2.85-2.75,2.81-5.59,5.54-8.32,8.37-.44.45-.82,1.32-.7,1.88,3.05,14.62-1.63,26.68-12.05,36.87-.08.08-.14.18-.44.6.96,0,1.7,0,2.44,0,8.47.05,14.41,5.92,14.56,14.37.02,1.08.04,2.17-.03,3.25-.12,1.96-1.25,3.12-3.21,3.37-.23.03-.45.05-.68.05-27.71,0-55.42,0-83.13-.01-2.41,0-3.86-1.21-3.98-3.34-.1-1.76-.13-3.55.11-5.29,1.02-7.38,6.74-12.32,14.21-12.4.8,0,1.59,0,2.62,0-.28-.39-.42-.66-.63-.86C-4.82,119.49.79,85.09,29.81,73.47c1.33-.53,1.78-1.12,1.78-2.55-.05-15.97-.03-31.93-.03-47.9v-1.86Zm21.08,0h-14.02v2.11c0,16.76,0,33.52,0,50.28,0,3.44-.6,4.23-3.89,5.24-8.22,2.54-14.72,7.41-19.24,14.72-1.53,2.47-2.57,5.23-4,8.2,6.05.08,10.68,2.47,15.28,5.04,1.41.79,3.06,1.28,4.66,1.56,4.93.86,9.61.16,13.94-2.56,3.46-2.18,7.23-3.57,11.34-3.96,6.11-.59,11.74.72,17.03,3.83,2.01,1.18,4.22,2,6.34,2.98.15-.16.29-.32.44-.47-.32-1.89-.46-3.84-.99-5.67-.64-2.19-.18-3.78,1.46-5.36,4.13-4,8.14-8.13,12.07-12.09-3.28-3.29-6.53-6.54-9.8-9.82-3.06,3.02-6.21,6.14-9.37,9.26-2.13,2.11-3.62,2.2-5.97.35-3.48-2.74-7.34-4.78-11.58-6.08-3.26-1-3.73-1.65-3.73-5.13,0-16.76,0-33.52,0-50.28,0-.67,0-1.34,0-2.15Zm27.51,94.17c-4.57-.6-8.33-2.73-12.13-4.81-1.32-.72-2.84-1.24-4.32-1.51-5.1-.93-9.94-.29-14.44,2.55-5.9,3.72-12.35,4.79-19.2,3.61-3.72-.64-7.01-2.32-10.21-4.2-2.81-1.65-5.8-2.47-9.13-2.25-.04.43-.08.7-.09.98-.48,12.29,7.64,25.22,18.93,30.12.55.24,1.21.31,1.81.31,9.52.02,19.05.02,28.57,0,.66,0,1.39-.11,1.96-.4,9.02-4.66,15.1-11.76,17.75-21.64.23-.86.33-1.75.51-2.75ZM7.18,154.06h76.91c0-.35.03-.58,0-.8-.67-4-3.36-6.08-7.95-6.08-20.28-.01-40.57,0-60.85,0-.74,0-1.48.02-2.22.1-3.39.39-5.83,3.16-5.88,6.78Zm97.97-68.23c2.09-.05,3.19-.77,3.77-2.16.62-1.47.24-2.8-.87-3.91-6.48-6.5-12.96-13-19.47-19.47-1.66-1.65-3.68-1.67-5.15-.2-1.47,1.47-1.42,3.48.23,5.14,6.43,6.46,12.87,12.92,19.36,19.33.68.67,1.69,1.01,2.13,1.26ZM45.63,7.04c-4.55,0-9.11-.02-13.66,0-2.32.01-3.84,1.38-3.89,3.41-.05,2.05,1.41,3.54,3.73,3.55,9.16.04,18.32.04,27.49-.01.85,0,1.82-.33,2.52-.81,1.33-.92,1.53-2.38,1.06-3.83-.52-1.58-1.77-2.31-3.42-2.31-4.61,0-9.22,0-13.83,0Z"/>
      </g>
      <path class="cls-1" d="m104.69,72.08l-11.4-8.74,11.02-12.72-.19-4.5c-.05-1.14.6-2.18,1.65-2.64,1.05-.46,2.25-.23,3.06.58l13.52,13.52c.77.77,1.03,1.92.66,2.94-.37,1.02-1.3,1.74-2.38,1.85l-5.33.5-10.61,9.22Zm-4.07-9.49l3.87,2.97,8.73-7.58,2.2-.21-6-6,.03.64-8.82,10.18Z"/>
    </g>
  </g>
</svg>