<?xml version="1.0" encoding="UTF-8"?>
<svg id="Capa_2" data-name="Capa 2" xmlns="http://www.w3.org/2000/svg" viewBox="0 0 186.37 143.96">
  <defs>
    <style>
      .cls-1 {
        fill: #2f9393;
      }
    </style>
  </defs>
  <g id="_Capa_" data-name="&amp;lt;Capa&amp;gt;">
    <g id="doHmn2">
      <path class="cls-1" d="m0,143.96c2.06-8.51,4.07-16.84,6.09-25.16,5.95-24.51,11.91-49.01,17.83-73.53.25-1.04.72-1.73,1.63-2.32C47.38,28.8,69.2,14.62,91,.41c.85-.55,1.4-.54,2.24,0,22.08,14.24,44.18,28.44,66.25,42.69.63.41,1.23,1.19,1.42,1.91,8.43,32.52,16.81,65.05,25.19,97.58.11.42.17.86.27,1.37H0ZM95.61,24.81c.05.28.11.52.15.76,2.71,20.29,9.1,39.38,18.84,57.35,7.14,13.18,15.64,25.37,26.35,35.93.68.67.53,1.11.18,1.79-2.82,5.55-5.62,11.12-8.43,16.68-.21.42-.4.85-.65,1.36h47.61c-.09-.49-.14-.83-.23-1.16-7.66-29.73-15.31-59.46-23.02-89.18-.2-.76-.84-1.59-1.51-2.02-20.52-13.25-41.07-26.45-61.6-39.69-.89-.58-1.48-.57-2.37,0-20.34,13.26-40.7,26.48-61.03,39.74-.59.39-1.15,1.13-1.32,1.81-1.12,4.29-2.13,8.61-3.18,12.92-5.62,23.15-11.24,46.3-16.85,69.46-.65,2.69-1.28,5.38-1.95,8.18h47.5c-.27-.58-.46-1.02-.67-1.45-2.58-5.12-5.18-10.23-7.76-15.34q-1.18-2.34.73-4.23c.32-.32.64-.63.94-.96,22.02-23.91,35.79-51.95,41.86-83.82.52-2.72.9-5.47,1.34-8.12h5.07Zm21.85,113.91c-1.47-2.05-2.97-3.92-4.22-5.93-4.02-6.44-6.57-13.52-8.73-20.74-5.62-18.78-8.63-38.08-11.1-57.47-.06-.49-.15-.97-.23-1.46-.27.15-.32.24-.33.33-1.92,12.16-3.62,24.35-5.81,36.46-2.03,11.24-4.92,22.28-9.19,32.92-2.29,5.7-5.05,11.13-9.41,15.89h49.02Zm-57.71-.39c1.32-.78,2.73-1.26,3.63-2.22,1.99-2.13,3.96-4.35,5.52-6.81,3.23-5.08,5.25-10.73,7.06-16.43,4.43-13.95,7.14-28.29,9.39-42.72.31-2.02.6-4.05.9-6.07-.4.31-.55.67-.7,1.02-2.3,5.19-4.41,10.48-6.95,15.54-7.18,14.33-16.05,27.53-27.01,39.28-.3.33-.5,1.11-.32,1.48,2.73,5.54,5.53,11.04,8.5,16.92Zm40.21-74.05c.02.29.02.59.07.88,1.7,9.57,3.2,19.17,5.16,28.69,2.21,10.75,5.08,21.34,9.78,31.33,1.77,3.76,3.79,7.39,6.91,10.22,1.28,1.16,2.87,1.98,4.45,3.04,3.12-6.18,6.03-11.95,8.94-17.72-15.44-16.57-26.87-35.53-35.31-56.43Z"/>
    </g>
  </g>
</svg>