<?xml version="1.0" encoding="UTF-8"?>
<svg id="Capa_2" data-name="Capa 2" xmlns="http://www.w3.org/2000/svg" viewBox="0 0 169.36 148.64">
  <defs>
    <style>
      .cls-1 {
        fill: #2f9393;
      }
    </style>
  </defs>
  <g id="_Capa_" data-name="&amp;lt;Capa&amp;gt;">
    <g id="Etd8Du">
      <g>
        <path class="cls-1" d="m84.74,0C109.99,0,135.25-.02,160.51.08c1.42,0,2.92.92,4.23,1.68,2.22,1.29,3.46,3.48,4.52,5.74.13.27.1.62.1.94,0,43.87,0,87.73-.02,131.6,0,1.85-1.14,3.32-2.23,4.69-1.98,2.49-4.55,3.73-7.81,3.73-10.16,0-20.32.18-30.47.18-37.04,0-74.08-.03-111.11-.06-2.68,0-5.36-.16-8.04-.15-3.51,0-6.03-1.73-7.96-4.47C.58,142.37,0,140.63,0,138.55.06,95.5.05,52.44.02,9.39c0-1.21.25-2.26.83-3.32C2.04,3.95,3.54,2.13,5.76,1.11c1.09-.5,2.34-.9,3.53-.9,25.15-.05,50.3-.04,75.45-.04V0Zm.02,7.1c-24.73,0-49.45,0-74.18,0-2.23,0-3.59,1.37-3.6,3.63-.04,29.82-.11,59.64-.12,89.46,0,12.56.11,25.12.2,37.67.02,2.45.92,3.47,3.36,3.53,6.59.16,13.19.3,19.78.3,37.25.02,74.5.02,111.74-.02,5.85,0,11.71-.17,17.56-.32,1.7-.04,2.72-1.16,2.81-2.85.08-1.45.11-2.9.11-4.35,0-41.21,0-82.42,0-123.63,0-2.01-1.44-3.42-3.48-3.42-24.73,0-49.45,0-74.18,0Z"/>
        <path class="cls-1" d="m14.3,74.27c-1.06-30.21,24.88-59.68,58.99-60.13,32.83-.43,60.49,26.66,60.8,59.59.31,33.36-27.13,61.07-60.48,60.72-35.75-.37-60.52-30.88-59.31-60.18Zm59.76,52.96c25.68,1.06,52.84-20.77,53-52.82.14-27.89-22.39-53.31-53.26-53.25-28.66.06-52.74,23.65-52.67,53.18.07,32.64,27.94,54.04,52.92,52.89Z"/>
        <path class="cls-1" d="m134.65,127.6c5.78,0,11.56,0,17.34,0,1.46,0,2.68,1,3.14,2.55.4,1.36-.07,2.91-1.29,3.63-.67.4-1.5.68-2.27.71-3.38.12-6.76.17-10.15.17-8.39,0-16.78-.05-25.16-.09-1.34,0-3.1-1.69-3.24-3.09-.17-1.75,1.06-3.57,2.71-3.73,1.82-.18,3.66-.21,5.49-.23,4.48-.03,8.95,0,13.43,0v.09Z"/>
        <path class="cls-1" d="m82.97,103.6c0-2.69.12-5.38-.05-8.06-.09-1.32-.67-2.63-1.15-3.91-.26-.7-.86-.83-1.66-.68-2.28.4-4.58.73-6.88.96-.79.08-1.38.28-1.96.82-4.39,4.04-8.8,8.06-13.73,11.46-3.27,2.25-6.72,3.76-10.81,2.87-3.22-.7-5.81-2.51-8.09-4.78-6-5.96-9.22-13.36-10.89-21.53-.79-3.86-1.32-7.76-.61-11.69.24-1.3.66-2.62,1.26-3.8,1.51-2.94,4.39-4.09,7.41-2.78,2.28.99,4.41,2.35,6.56,3.63,2.52,1.49,4.93,3.17,7.5,4.57,1.46.8,3.11,1.31,4.72,1.79,1.15.34,1.65-.1,2.09-1.22.92-2.36,1.92-4.7,2.81-7.07.19-.51.19-1.17.07-1.71-1.18-5.21-2.44-10.4-2.69-15.76-.1-2.12-.08-4.24-.09-6.36,0-1.89.82-3.48,1.9-4.96,2.6-3.58,6.25-5.52,10.47-6.23,2.82-.48,5.74-.48,8.62-.54,7.76-.14,15.04,1.75,21.69,5.76,1.78,1.07,3.43,2.52,4.78,4.11,2.54,3.01,2.14,6.34-1.06,8.64-2.42,1.74-5.12,3.1-7.7,4.61-2.7,1.59-5.47,3.09-8.09,4.79-.96.62-1.63,1.72-2.4,2.62-.38.44-.32.84.14,1.27,1.97,1.85,3.68,3.89,4.98,6.29.2.37.73.63,1.16.79,5.23,1.92,10.5,3.71,15.69,5.73,2.76,1.08,5.31,2.64,7.23,5.02,1.33,1.64,2.03,3.5,2.33,5.59.75,5.21-.86,9.9-3.25,14.34-4.45,8.27-10.77,14.73-19.12,19.08-1.17.61-2.5.99-3.8,1.23-3.93.72-6.73-1.17-7.28-5.14-.33-2.36-.16-4.79-.21-7.19-.02-.85,0-1.7,0-2.54.05,0,.09,0,.14,0Zm-18.56-13.98c-.08-.18-.09-.25-.14-.3-.14-.16-.28-.32-.43-.46-2.75-2.44-5.12-5.17-6.41-8.69-.25-.68-.77-.62-1.3-.6-2.74.11-5.37-.47-7.75-1.77-3.3-1.81-6.5-3.81-9.74-5.75-1.5-.9-2.97-1.84-4.75-2.94-.09,1.31-.27,2.31-.21,3.3.32,5.04,1.28,9.96,3.2,14.64,1.75,4.26,4.26,8.05,7.7,11.16,2.65,2.39,4.86,2.65,7.89.78,1.92-1.18,3.72-2.55,5.49-3.95,2.2-1.75,4.32-3.62,6.44-5.41Zm1.42-30.96c3.58-1.79,7.16-2.21,10.83-1.79,1.21.14,1.86-.18,2.29-1.35.28-.77.82-1.53,1.44-2.07,1.88-1.64,3.73-3.38,5.83-4.68,3.29-2.04,6.79-3.76,10.19-5.63.61-.33,1.18-.74,2.01-1.27-.84-.58-1.45-1.1-2.14-1.46-7.19-3.84-14.87-5.42-22.98-4.87-2.42.17-4.72.82-6.82,2.09-1.97,1.18-3.14,2.83-2.93,5.23.19,2.18.31,4.38.64,6.54.45,3.03,1.06,6.05,1.64,9.27Zm26,16.59c-.08.29-.13.42-.15.56-.55,3.74-1.86,7.16-4.23,10.15-.18.22-.14.82.03,1.1,1.84,2.95,2.54,6.21,2.53,9.61-.02,4.31-.2,8.62-.26,12.93,0,.59.26,1.19.4,1.78.58-.19,1.22-.29,1.73-.6,4.42-2.73,8.27-6.13,11.53-10.18,2.78-3.45,4.85-7.32,5.88-11.63,1.06-4.43,0-6.79-4-8.6-3.91-1.77-7.97-3.21-11.97-4.77-.45-.17-.94-.22-1.5-.35Zm-28.15-1.02c-.51,6.19,5.3,10.73,10.1,10.68,6.13-.07,10.82-4.48,10.81-10.38-.01-6.01-4.62-10.73-10.47-10.8-5.39-.06-10.95,4.89-10.44,10.51Z"/>
        <path class="cls-1" d="m74.1,81.28c-4.02.01-6.91-2.99-6.94-7.22-.03-3.54,3.27-6.75,6.92-6.74,3.73,0,6.95,3.17,6.96,6.84,0,4.06-2.96,7.11-6.94,7.12Z"/>
      </g>
    </g>
  </g>
</svg>