<?xml version="1.0" encoding="UTF-8"?>
<svg id="Capa_2" data-name="Capa 2" xmlns="http://www.w3.org/2000/svg" viewBox="0 0 137.18 112.12">
  <defs>
    <style>
      .cls-1, .cls-2 {
        stroke-width: 0px;
      }

      .cls-2 {
        fill: #10ab92;
      }
    </style>
  </defs>
  <g id="Capa_1-2" data-name="Capa 1">
    <g>
      <path class="cls-1" d="M131.47,47.76c-4.46-6.79-9.03-13.52-13.54-20.28-2.78-4.17-6.78-5.96-11.65-6.03-4.29-.06-8.59,0-12.88-.03-.98,0-1.95-.11-3.08-.18-.09-1.03-.2-1.83-.21-2.62-.03-1.74-.01-3.47-.01-5.21-.01-8.12-6.46-13.07-13.2-13.38-.36-.02-.73-.01-1.1-.01C55.23,0,34.67.01,14.11,0c-3.59,0-6.81,1-9.71,3.16-2.16,1.61-3.22,3.92-4.4,6.18v54.87c.79,1.43,1.43,2.98,2.41,4.27,1.87,2.48,4.34,4.14,7.47,4.72.79.15,1.55.43,2.57.73,0,2.07,0,4.06,0,6.05,0,2.1-.05,4.2.02,6.3.24,7.44,5.67,12.84,13.13,13.07,1.45.04,2.9,0,4.38,0,.45.96.8,1.69,1.14,2.42,4.19,9.12,14.79,12.94,23.79,8.47,3.73-1.86,6.26-4.95,8.05-8.68.27-.57.56-1.14.85-1.71.04-.07.14-.12.41-.34h21.52c3.15,7.49,8.32,12.55,16.88,12.51,8.45-.04,13.92-4.68,17.03-12.51.94-.06,1.83-.17,2.73-.15,6.86.14,11.76-2.75,14.35-9.24.1-.25.29-.46.44-.68v-32.37c-1.9-3.11-3.71-6.27-5.71-9.31ZM6.49,53.96V18.37c0-6.74,5.46-12.2,12.2-12.2h52c6.74,0,12.2,5.46,12.2,12.2v35.59c0,6.74-5.46,12.2-12.2,12.2H18.69c-6.74,0-12.2-5.46-12.2-12.2ZM128.24,83.92c0,.55.01,1.1-.02,1.64-.22,3.17-2.03,4.8-5.21,4.66-1.09-.05-2.17-.23-3.49-.38-3.03-7.66-8.36-12.61-17.04-12.45-8.5.16-13.78,5.03-16.7,12.77h-21.69c-.41-.81-.92-1.66-1.3-2.56-2.86-6.65-10.04-11.16-17.77-10.15-6.19.8-10.86,4.07-13.66,9.77-.44.89-.8,1.82-1.32,3-1.56,0-3.1.15-4.6-.04-2.22-.27-3.65-1.81-3.87-3.99-.13-1.27-.06-2.56-.06-3.84,0-2.73,0-5.47,0-8.51,1.34-.09,2.48-.24,3.63-.24,16.63-.01,33.26,0,49.9-.02,1.46,0,2.95,0,4.36-.29,6.55-1.35,10.64-6.32,10.69-13.04.07-8.59.02-17.18.02-25.77,0-1.08,0-2.16,0-3.48,1.12-.13,1.74-.26,2.37-.26,4.48-.02,8.96.06,13.43-.03,2.25-.05,3.81.84,5.03,2.68,5.25,7.92,10.53,15.82,15.8,23.72,1.1,1.64,1.57,3.42,1.55,5.43-.07,7.13-.03,14.26-.03,21.38Z"/>
      <path class="cls-1" d="M110.87,94.67c-.04-4.63-3.56-8.03-8.28-8-4.66.03-8.08,3.58-8.14,8.18-.05,3.51,3.01,8.2,8.33,8.11,4.77-.08,8.36-4.06,8.09-8.29Z"/>
      <path class="cls-1" d="M46.87,86.66c-4.05-.35-8.12,3.58-8.01,8.22.11,4.6,3.88,8.19,8.28,8.08,4.97-.12,7.97-3.79,8.09-8.33.09-3.59-3.1-8.27-8.35-7.98Z"/>
      <path class="cls-2" d="M93.84,51.59c0-3.75-.02-7.5.01-11.24,0-.9.07-1.84.33-2.7.56-1.82,1.83-2.9,3.77-3.12.18-.02.36-.04.55-.04,6.96-.05,6.33-.45,10.1,5.03,3.52,5.12,6.87,10.35,10.35,15.49.8,1.18,1.28,2.39,1.26,3.82-.02,1.83.05,3.66-.02,5.48-.13,3.23-1.73,4.86-5,4.9-5.39.07-10.79.07-16.18,0-3.5-.04-5.05-1.53-5.14-5.02-.1-4.2-.02-8.41-.02-12.62,0,0,0,0-.01,0ZM99.25,39.48c-.63,2.44-.64,21.99-.05,24.35,2.76.99,13.11,1.07,15.75.07.45-2.57.65-5.12-.98-7.53-3.43-5.07-6.85-10.15-10.18-15.28-1.12-1.72-2.45-2.35-4.54-1.61Z"/>
      <circle class="cls-2" cx="46.65" cy="94.5" r="9.56"/>
      <circle class="cls-2" cx="103.36" cy="94.5" r="9.56"/>
    </g>
  </g>
</svg>