<?xml version="1.0" encoding="UTF-8"?>
<svg id="Capa_2" data-name="Capa 2" xmlns="http://www.w3.org/2000/svg" viewBox="0 0 121.18 111.51">
  <defs>
    <style>
      .cls-1, .cls-2, .cls-3 {
        stroke-width: 0px;
      }

      .cls-2 {
        fill: #0caa91;
      }

      .cls-3 {
        fill: #fff;
      }
    </style>
  </defs>
  <g id="_Capa_" data-name="&amp;lt;Capa&amp;gt;">
    <g>
      <g>
        <rect class="cls-3" x="1.82" y="1.89" width="98.82" height="98.82" rx="5.3" ry="5.3"/>
        <path class="cls-1" d="M7.19,0h88.15c1.97,0,3.78.83,5.07,2.12,1.29,1.29,2.12,3.1,2.12,5.07v88.22c0,1.97-.83,3.78-2.12,5.07-1.29,1.29-3.1,2.12-5.07,2.12H7.19c-2.04,0-3.78-.83-5.07-2.12-1.36-1.29-2.12-3.1-2.12-5.07V7.19c0-1.97.76-3.78,2.12-5.07C3.4.83,5.15,0,7.19,0ZM95.34,3.78H7.19c-.98,0-1.82.38-2.5.98-.61.61-.98,1.51-.98,2.42v88.22c0,.91.38,1.82.98,2.42.68.61,1.51.98,2.5.98h88.15c.98,0,1.82-.38,2.42-.98.68-.61,1.06-1.51,1.06-2.42V7.19c0-.91-.38-1.82-1.06-2.42-.61-.61-1.44-.98-2.42-.98Z"/>
      </g>
      <path class="cls-1" d="M.38,76.95l17.4-21.64c.3-.45.61-.76.98-1.06.83-.61,1.82-.91,2.8-.91.91,0,1.89.3,2.72.91.53.3.98.76,1.36,1.29h0l12.79,16.27h.15c.15,0,.38,0,.45-.08h0l.08-.15,26.86-30.57h0c.15-.23.38-.38.61-.53.76-.68,1.97-1.06,3.25-1.06s2.65.45,3.86,1.51c.3.23.61.61.91.98h0l27.54,34.81-2.95,2.35-27.47-34.88h0c-.15-.15-.3-.3-.53-.45-.45-.45-.98-.61-1.44-.61-.38,0-.76.08-.91.3h-.08l-26.86,30.57c-.15.23-.38.45-.61.68-.76.53-1.74.83-2.65.83-.91.08-1.82-.23-2.5-.76-.23-.15-.38-.3-.53-.53h0l-12.94-16.42h0c-.15-.23-.3-.38-.53-.53s-.45-.23-.68-.23c-.15,0-.3.08-.45.15-.08.08-.15.15-.23.3l-.08.08L3.33,79.22l-2.95-2.27Z"/>
      <path class="cls-1" d="M23.53,13.54c2.8,0,5.37,1.13,7.19,3.03,1.82,1.82,2.95,4.39,2.95,7.19s-1.13,5.3-2.95,7.19c-1.82,1.82-4.39,2.95-7.19,2.95s-5.37-1.13-7.19-2.95-3.03-4.39-3.03-7.19,1.13-5.37,3.03-7.19c1.82-1.89,4.39-3.03,7.19-3.03Z"/>
      <g>
        <g>
          <circle class="cls-2" cx="96.74" cy="87.07" r="22.55"/>
          <path class="cls-1" d="M96.74,62.63c6.73,0,12.86,2.72,17.25,7.19,4.46,4.39,7.19,10.52,7.19,17.25s-2.72,12.86-7.19,17.33-10.52,7.11-17.25,7.11-12.86-2.72-17.33-7.11c-4.39-4.46-7.11-10.52-7.11-17.33s2.72-12.86,7.11-17.25,10.59-7.19,17.33-7.19ZM111.35,72.47c-3.71-3.78-8.93-6.05-14.6-6.05s-10.9,2.27-14.68,6.05-6.05,8.93-6.05,14.6,2.35,10.9,6.05,14.68c3.78,3.71,8.93,6.05,14.68,6.05s10.9-2.35,14.6-6.05,6.13-8.93,6.13-14.68-2.35-10.9-6.13-14.6Z"/>
        </g>
        <path class="cls-3" d="M96.74,74.59h-.38l-.91.23c-.23.15-.45.3-.68.53l-8.7,8.7c-.53.45-.76,1.13-.76,1.74,0,.68.23,1.29.76,1.82h0c.45.45,1.13.68,1.74.68.68,0,1.29-.23,1.82-.68l4.24-4.31.38-.38v14.22c0,.68.3,1.29.76,1.74s1.06.76,1.74.76h0c.68,0,1.29-.3,1.74-.76s.76-1.06.76-1.74v-14.22l.38.38,4.24,4.31c.53.45,1.13.68,1.82.68.61,0,1.21-.23,1.74-.68h0c.45-.53.76-1.13.76-1.82,0-.61-.3-1.29-.76-1.74l-8.7-8.7c-.23-.23-.45-.38-.76-.53-.23-.08-.53-.15-.83-.23h-.38Z"/>
      </g>
    </g>
  </g>
</svg>