<?xml version="1.0" encoding="UTF-8"?>
<svg id="Capa_2" data-name="Capa 2" xmlns="http://www.w3.org/2000/svg" viewBox="0 0 185.89 188.38">
  <defs>
    <style>
      .cls-1 {
        fill: #2f9393;
      }
    </style>
  </defs>
  <g id="_Capa_" data-name="&amp;lt;Capa&amp;gt;">
    <g id="_29CJ3X" data-name="29CJ3X">
      <g>
        <path class="cls-1" d="m41.49,104.8c-2.74,2.76-5.06,5.12-7.39,7.46-2.86,2.87-5.66,5.82-8.65,8.54-.96.87-2.46,1.51-3.75,1.59-3.58.21-7.19.08-10.78.06-2.83-.02-3.93-1.1-3.95-3.9-.02-3.53.07-7.06-.03-10.59-.05-1.78.57-3.08,1.81-4.32,22.26-22.22,44.5-44.46,66.75-66.69.73-.73,1.59-1.34,2.7-2.26-2.46-2.39-4.63-4.45-6.75-6.54-2.32-2.29-2.31-3.67-.04-5.96,2.72-2.73,5.44-5.48,8.19-8.18,1.9-1.88,3.52-1.88,5.43,0,2.18,2.16,4.31,4.37,6.6,6.71.63-.6,1.15-1.07,1.64-1.56,5.23-5.22,10.41-10.49,15.7-15.65,3.74-3.65,8.8-4.46,13.41-2.36,4.45,2.02,7.25,6.58,7,11.51-.17,3.29-1.58,6.01-3.9,8.31-5.06,5.02-10.09,10.07-15.12,15.12-.5.5-.97,1.02-1.63,1.72,2.22,2.18,4.37,4.26,6.48,6.38,2.21,2.21,2.22,3.64.05,5.83-2.72,2.74-5.44,5.47-8.18,8.18-2.04,2.01-3.53,2.02-5.55,0-2.16-2.16-4.28-4.38-6.31-6.47-5.85,5.89-11.5,11.57-17.15,17.27.24.02.76.09,1.28.09,5.89,0,11.77,0,17.66,0,3.09,0,4.14,1.05,4.15,4.09,0,4.83,0,9.66,0,14.7h12.46v6.32c-1.91,0-3.84,0-5.78,0-2.94,0-5.89,0-8.83,0-3.08-.01-4.11-1.03-4.13-4.11,0-.64,0-1.29,0-2.14h-6.18v-6.24h6.07v-6.34c-.56,0-1.18,0-1.79,0-6.74,0-13.47,0-20.21,0-2.45,0-2.99.54-2.99,2.96,0,1.03,0,2.07,0,3.24h15.54v6.31h-15.54c0,1.04.02,1.87,0,2.7-.06,2.44-1.19,3.6-3.63,3.62-4.12.03-8.24-.06-12.36.06-.91.03-1.9.58-2.7,1.12-2.71,1.84-3.38,4.4-3.36,7.7.15,24.85.08,49.7.08,74.54,0,3.58.92,4.48,4.54,4.49,19.94,0,39.89-.02,59.83.03,2.42,0,4.29-.45,4.8-3.1h5.96c.4,5-3.93,9.31-9.42,9.33-11.7.04-23.41.01-35.11.01-8.63,0-17.26,0-25.89,0-7.38,0-10.99-3.59-10.99-10.9,0-23.41,0-46.82,0-70.23,0-.59,0-1.17,0-2.44Zm-28.25,11.39c1.99,0,3.81-.1,5.61.03,1.69.11,2.88-.42,4.1-1.64,21.96-22.02,43.98-44,65.98-65.98.45-.45.87-.93,1.22-1.31-2.7-2.69-5.32-5.3-8.03-8-.17.15-.48.38-.74.65-22.41,22.41-44.83,44.81-67.22,67.24-.42.42-.86,1.06-.89,1.62-.1,2.4-.04,4.8-.04,7.4ZM109.29,46.98c-2.23-2.17-4.35-4.2-6.43-6.27-2.37-2.35-2.35-3.69.05-6.1,6.01-6.01,12.01-12.03,18.03-18.03,1.42-1.42,2.27-3.05,2.01-5.08-.3-2.34-1.59-3.99-3.83-4.77-2.34-.82-4.37-.18-6.09,1.54-6.11,6.1-12.2,12.21-18.31,18.3-2.31,2.3-3.69,2.31-5.96.04-2.11-2.11-4.2-4.26-6.05-6.14-1.81,1.76-3.42,3.33-4.65,4.51,8.81,8.82,17.71,17.71,26.53,26.54,1.33-1.28,2.88-2.78,4.7-4.54Zm-45.92,36.79c-1.27,1.34-2.68,2.82-3.85,4.05h3.85v-4.05Z"/>
        <path class="cls-1" d="m96.11,136.45c-2.33-4.19-4.54-7.81-6.41-11.59-4.48-9.05-7.1-18.64-7.85-28.72-.26-3.46,1.63-4.9,4.85-3.72,10.25,3.75,18.78,9.9,25.63,18.39.33.4.65.81,1.21,1.49.27-1.55.5-2.84.72-4.13,1.28-7.71,5.19-14.1,10.52-19.55,5.2-5.31,10.77-10.28,16.28-15.28,2.1-1.91,4.53-1.4,5.38,1.07,3.54,10.27,6.55,20.67,6.87,31.64.16,5.34-1.36,10.32-3.5,15.14-.15.34-.26.69-.4,1.06,3.73-.93,7.34-2.01,11.02-2.72,7.34-1.42,14.7-1.21,22,.34,3.7.79,4.5,3.19,2.07,6.07-8.91,10.55-19.65,18.7-32.24,24.4-.65.29-1.29.6-2.41,1.12,5.74,2.58,11.12,5.01,16.52,7.41.77.34,1.76.38,2.36.9.86.76,1.98,1.8,2.02,2.77.05.97-.86,2.55-1.73,2.91-8.76,3.59-17.67,6.57-27.38,4.56-.49-.1-1.01-.08-1.67-.12.24.56.44.96.59,1.38.97,2.64-.54,5.42-3.33,5.31-2.24-.09-4.75-.69-6.61-1.89-2.87-1.85-5.31-4.39-7.9-6.67-.63-.55-1.16-1.21-1.93-2.04-.99,3.37-1.9,6.48-2.87,9.79-1.99-.58-3.89-1.12-5.98-1.73.9-3.23,1.76-6.33,2.7-9.7-2.89.65-5.45,1.51-8.06,1.75-2.82.27-5.71.06-8.55-.13-.91-.06-1.87-.61-2.65-1.16-2.93-2.03-2.55-5,1.05-7.48-.58-.28-1.06-.54-1.56-.73-9.26-3.51-15.32-10.67-20.78-18.43-.54-.77-.34-2.44.11-3.42.64-1.38,2.12-1.44,3.6-1.19,5.98.99,11.97,1.89,18.31,2.88Zm62.4,26.14c-.62-.37-.92-.59-1.26-.74-5.93-2.55-11.85-5.12-17.81-7.62-1.54-.65-2.62-1.58-2.51-3.32.1-1.62,1.12-2.58,2.7-2.95,11.76-2.73,21.71-8.8,30.71-16.62,2.09-1.81,4.03-3.8,6.33-5.97-4.79,0-9.11-.37-13.33.08-7.52.8-14.39,3.63-20.7,7.82-1.91,1.27-3.39,1.2-4.6-.07-1.16-1.23-1.09-2.77.19-4.62.82-1.18,1.7-2.33,2.41-3.58,3.58-6.29,6.92-12.74,6.33-20.25-.37-4.73-1.33-9.43-2.26-14.1-.66-3.29-1.72-6.5-2.7-10.1-2.88,2.66-5.52,4.9-7.93,7.38-2.82,2.9-5.5,5.95-8.1,9.05-2.48,2.94-3.98,6.39-4.87,10.15-1.3,5.46-1.8,10.95-1.34,16.53.15,1.76-.5,3.12-2.31,3.6-1.81.47-3.02-.38-3.76-2-.14-.3-.28-.59-.41-.89-3.08-6.62-7.4-12.31-12.98-17.01-3.47-2.93-7.23-5.43-11.73-7.29,2.51,14.35,7.34,27.26,17.44,37.74,1.29,1.34,2.42,2.73,1.28,4.65-1.12,1.89-2.84,1.55-4.68,1.24-5.89-.97-11.8-1.77-17.71-2.64-.06.18-.12.36-.18.54,2.7,3.2,5.84,5.89,9.58,7.83,3.92,2.03,8.11,3.22,12.52,3.67,3.6.36,4.66,2.4,2.95,5.51-.03.05.09.18.18.36,2.56-.68,5.16-1.28,7.71-2.07,1.88-.58,3.27-.14,4.54,1.3,1.84,2.07,3.77,4.06,5.92,6.36-.35-2.13.05-3.75,1.79-4.24,1.05-.3,2.46.01,3.51.49,8.04,3.72,16.24,4.71,25.11,1.75Z"/>
        <path class="cls-1" d="m60.47,169.58h34.29v6.14c-.62.03-1.25.09-1.88.09-11.51,0-23.02,0-34.52,0-3.34,0-4.31-.98-4.31-4.32,0-21.19,0-42.37,0-63.56,0-3.35.97-4.32,4.31-4.32,5.81,0,11.62,0,17.54,0v6.23h-15.43v59.73Z"/>
        <path class="cls-1" d="m10.17,160.12c-7.72,0-11.46-5.11-9.76-13.45,1.19-5.82,3.75-11.1,6.85-16.11,1.43-2.32,4.2-2.4,5.6-.11,3.52,5.76,6.51,11.76,7.26,18.61.73,6.69-3.21,11.06-9.95,11.06Zm.13-21.27c-.3-.03-.61-.06-.91-.09-1.05,3.8-2.33,7.56-3.08,11.41-.5,2.57.91,3.66,3.77,3.67,2.89,0,4.08-1.01,3.88-3.62-.31-4.08-1.86-7.77-3.65-11.36Z"/>
      </g>
    </g>
  </g>
</svg>