<?xml version="1.0" encoding="UTF-8"?>
<svg id="Capa_2" data-name="Capa 2" xmlns="http://www.w3.org/2000/svg" viewBox="0 0 113.42 136.12">
  <defs>
    <style>
      .cls-1 {
        fill: #2f9393;
      }
    </style>
  </defs>
  <g id="_Capa_" data-name="&amp;lt;Capa&amp;gt;">
    <g>
      <g id="J5xu5j">
        <path class="cls-1" d="m113.4,73.33c0,18.02.06,36.03-.05,54.05-.02,3.6-1.47,6.75-5.15,8.2-1,.4-2.18.5-3.27.5-17.58.03-35.16.02-52.74.02-11.48,0-22.95-.03-34.43.02-3.49.02-5.61-1.72-7.36-4.57-.94-1.52-.78-2.97-.78-4.48-.02-26.15,0-52.3-.02-78.45,0-3.03-.11-6.05-.17-9.08-2.05-2.05-4.07-4.15-6.18-6.15-1.34-1.28-2.2-2.7-2.85-4.5-.95-2.62-.06-4.91,1.37-6.47,4.9-5.35,10.08-10.46,15.36-15.45,3.13-2.96,7.9-2.38,10.95,1.49.18.23.4.42.61.62,1.48,1.35,2.95,2.69,4.43,4.03,1.38-1.22,2.88-2.34,4.12-3.7,2.86-3.14,6.22-5.58,10.04-7.36C49.77.89,52.37.04,55.15.03c13.51-.02,27.02-.07,40.53.03,3.81.03,7.05,1.71,10.05,4.09,7.1,5.65,7.66,9.93,7.66,16.87v52.3Zm-6.11-1.34c0-18.3-.04-36.6.03-54.9.01-3.88-1.94-6.87-4.71-8.86-2.56-1.84-5.7-3.05-9.19-3.01-12.05.11-24.11.07-36.16.03-5.42-.02-9.96,2.14-13.71,5.8-8.82,8.63-17.44,17.48-26.26,26.12-1.78,1.75-2.54,3.43-2.53,5.97.1,27.3.06,54.61.06,81.91,0,.87-.05,1.75.01,2.61.11,1.61,1.65,3.09,3.29,3.2.58.04,1.16,0,1.74,0h83.22c.73,0,1.47.09,2.18-.02,1.21-.2,2.06-.81,2.02-2.22-.03-1.02,0-2.03,0-3.05v-53.59ZM21.62,10.44c-.26.2-.61.42-.9.71-4.62,4.6-9.24,9.19-13.82,13.83-1.17,1.19-1.17,2.92-.04,4.12,1.38,1.48,2.89,2.85,4.28,4.32.76.8,1.33.83,2.12.02,3.45-3.51,6.99-6.94,10.42-10.47,1.78-1.83,3.41-3.79,5.1-5.7-2.09-2.17-4.18-4.36-6.29-6.51-.17-.17-.49-.19-.88-.32Z"/>
      </g>
      <path class="cls-1" d="m93.82,32.78h-37.93c-4.57,0-8.29-3.72-8.29-8.29v-8.5c0-4.57,3.72-8.29,8.29-8.29h37.93c4.57,0,8.29,3.72,8.29,8.29v8.5c0,4.57-3.72,8.29-8.29,8.29ZM55.89,12.93c-1.69,0-3.06,1.37-3.06,3.06v8.5c0,1.69,1.37,3.06,3.06,3.06h37.93c1.69,0,3.06-1.37,3.06-3.06v-8.5c0-1.69-1.37-3.06-3.06-3.06h-37.93Z"/>
      <path class="cls-1" d="m96.75,114.66H26.97c-4.52,0-8.19-3.67-8.19-8.19v-50.99c0-4.52,3.67-8.19,8.19-8.19h5.69v4.04h-5.69c-2.29,0-4.15,1.86-4.15,4.15v50.99c0,2.29,1.86,4.15,4.15,4.15h69.79c2.29,0,4.15-1.86,4.15-4.15v-50.99c0-2.29-1.86-4.15-4.15-4.15h-15.42v-4.04h15.42c4.52,0,8.19,3.67,8.19,8.19v50.99c0,4.52-3.67,8.19-8.19,8.19Z"/>
      <g id="sM8QyU">
        <path class="cls-1" d="m77.85,99.91h-.6l-.45-.18c-.29-.12-.58-.23-.87-.35-.65-.27-1.26-.52-1.85-.71-1.42-.45-2.3-1.46-2.55-2.91-.31-1.84-.87-3.57-1.66-5.14-4.32.37-8.27.03-12.05-1.03-6.07-1.71-11.12-5.17-15-10.27-2.77-3.64-4.71-7.63-5.75-11.85-.58-2.33-.84-4.87-.81-8,.04-5.6,1.16-11.02,3.32-16.09.66-1.55,1.45-3.02,2.21-4.44.32-.6.65-1.21.96-1.82.15-.3.32-.5.41-.62l1.61-2.17,2.72,2.24c.43.37.86.74,1.29,1.1,2.7,2.22,5.77,3.97,9.14,5.2,4.84,1.77,9.27,4.09,13.16,6.89,4.55,3.27,7.83,6.93,10.03,11.19,1.96,3.79,2.92,7.88,2.84,12.16-.09,4.95-1.36,9.63-3.76,13.93-.12.21-.25.41-.41.63l-1.24,1.81c.75,2.1,1.34,4.39,1.81,6.99.06.35.06.64.05.81l.06,2.58-2.58.04Zm-31.92-58.02c-.63,1.18-1.22,2.32-1.72,3.48-1.9,4.46-2.88,9.22-2.92,14.15-.02,2.69.19,4.84.67,6.74.88,3.55,2.52,6.91,4.87,10,3.2,4.21,7.36,7.06,12.35,8.46,3.45.97,7.1,1.22,11.17.77.16-.02.35,0,.46-.03-.6-.74-1.26-1.38-2.02-1.94-1.85-1.38-3.3-2.56-4.56-3.73-6.81-6.3-12.02-14.24-15.49-23.61-.15-.39-.28-.79-.43-1.23l-3.03-8.76,7.32,5.74.38.71c.09.21.17.4.25.59,1.16,2.81,2.64,5.6,4.42,8.32,3.98,6.08,9.15,11.54,15.36,16.22,1.53,1.15,2.9,2.44,4.13,3.88,1.09-2.73,1.67-5.63,1.73-8.64.06-3.43-.7-6.71-2.27-9.75-1.83-3.53-4.61-6.61-8.5-9.41-3.52-2.53-7.53-4.63-11.94-6.24-3.75-1.37-7.19-3.3-10.24-5.74Z"/>
      </g>
    </g>
  </g>
</svg>