<?xml version="1.0" encoding="UTF-8"?>
<svg id="Capa_2" data-name="Capa 2" xmlns="http://www.w3.org/2000/svg" viewBox="0 0 89.15 106.32">
  <defs>
    <style>
      .cls-1 {
        fill: #4d4d4d;
      }

      .cls-1, .cls-2, .cls-3 {
        stroke-width: 0px;
      }

      .cls-2 {
        fill: #0caa91;
      }

      .cls-3 {
        fill: #fff;
      }
    </style>
  </defs>
  <g id="_Capa_" data-name="&amp;lt;Capa&amp;gt;">
    <g>
      <path class="cls-2" d="M89.15,68.63c-5.95,12.58-11.85,25.06-17.83,37.69-1.91-4.08-3.72-7.95-5.54-11.85-1.47.46-2.86.96-4.29,1.32-10.18,2.59-19.88,1.3-29.08-3.74-6.67-3.65-12.08-8.76-16.66-14.75-2.14-2.8-3.99-5.81-5.97-8.73-.19-.28-.34-.59-.41-1.05.42.24.84.48,1.26.72,5.35,3.06,10.99,5.35,17.04,6.58,7.93,1.6,15.75,1.32,23.39-1.52,1.26-.47,2.46-1.07,3.82-1.68-2.08-4.47-4.11-8.84-6.27-13.47,13.61,3.52,27.01,6.98,40.53,10.47Z"/>
      <path class="cls-1" d="M61.99,58.11c-2.11-.62-4.25-1.25-6.53-1.92,6.53-6.66,9.58-14.53,8.76-23.72-.62-6.93-3.49-12.92-8.43-17.82-10.2-10.12-25.65-11.17-36.93-3.39C6.86,19.53,3.17,34.55,8.64,46.92c3.15,7.12,8.37,12.23,15.55,15.21,7.15,2.97,14.4,2.95,21.72.17.77,1.89,1.52,3.74,2.27,5.58-12.04,5.38-31.08,3.1-42-12.8C-4.12,40.09-1.35,19.66,13.07,7.92,27.84-4.1,49.54-2.35,62.17,12.53c11.49,13.54,10.79,33.07-.18,45.58Z"/>
      <path class="cls-1" d="M45.72,20.96v8.45h-5.96c-.21-.24-.52-.61-.85-.96-1.73-1.78-3.9-2.28-6.27-2.03-.53.06-1.09.29-1.52.59-1.52,1.06-1.56,2.83-.03,3.86.75.51,1.66.85,2.54,1.09,2.03.55,4.14.85,6.13,1.53,2.19.74,4.06,2.05,5.34,4.07,2.41,3.79,1.1,8.87-2.87,10.99-.7.37-1.44.66-2.2.9-.71.23-1.47.33-2.31.52v2.48h-5.7v-3.3c-.61-.27-1.13-.51-1.71-.77-.04.42-.07.76-.1,1.17h-5.64v-8.5h5.6c.85.68,1.68,1.48,2.65,2.06,2.01,1.21,4.18,1.4,6.37.54,1.59-.62,1.89-2.17.73-3.43-.96-1.04-2.23-1.48-3.56-1.79-1.38-.32-2.78-.54-4.16-.88-2.47-.62-4.7-1.74-6.3-3.76-2.9-3.66-1.95-8.98,1.99-11.51.61-.39,1.26-.71,1.93-.98.64-.26,1.32-.41,2.1-.64v-2.56h5.76v2.96c.8.33,1.52.63,2.29.95.03-.37.06-.67.1-1.05h5.67Z"/>
      <path class="cls-3" d="M76.05,75.06l-14.18-3.72,2.57,5.9c-.92.54-9.67,5.52-22.23,6.86,0,0,11.87,2.13,20.2-.53,1.98-.63,3.28-1.12,4.13-1.51l2.43,5.58,7.09-12.58Z"/>
    </g>
  </g>
</svg>