<?xml version="1.0" encoding="UTF-8"?>
<svg id="Capa_2" data-name="Capa 2" xmlns="http://www.w3.org/2000/svg" viewBox="0 0 36.05 39.85">
  <defs>
    <style>
      .cls-1 {
        stroke-width: 0px;
      }
    </style>
  </defs>
  <g id="_Capa_" data-name="&amp;lt;Capa&amp;gt;">
    <path class="cls-1" d="M2.51,39.85c3.66-5.39,8.59-8.4,14.88-9.14.05-.08.1-.13.1-.17-.16-3.31-.2-6.63-.53-9.92-.24-2.38-1.56-4.3-3.59-5.64-2.85-1.88-5.9-3.23-9.37-3.4-.26-.01-.53,0-.81.05,5.1,1.12,9.62,3.1,12.38,7.95-.86.94-1.92,1.42-3.12,1.49-3.37.18-6.07-.99-7.76-4.04-.14-.26-.28-.52-.4-.78-.92-2.03-2.02-3.91-4.28-4.78,0-.09.01-.17.02-.26.99-.31,1.97-.69,2.99-.92,2.42-.56,4.88-.55,7.33-.21,2.7.38,4.84,1.73,6.6,3.76.17.2.34.39.62.7.06-.74.07-1.34.15-1.94.43-3.18,1.96-5.74,4.47-7.69C25.4,2.41,28.96.65,33.05.12c.42-.05.84-.08,1.29-.12-.34,1.23-.76,2.38-.96,3.57-.39,2.37-.58,4.77-.98,7.14-.38,2.2-1.11,4.29-2.76,5.93-1.93,1.92-4.2,2.56-6.83,1.83-1.21-.33-1.29-.48-1.09-1.73.52-3.23,1.84-6.11,3.75-8.75,1.44-2,3.37-3.49,5.21-5.08.19-.17.38-.34.5-.63-.3.19-.6.38-.91.57-5.03,3.09-8.15,7.6-9.76,13.21-.72,2.51-.59,5.08-.42,7.64.15,2.13.32,4.26.49,6.39.01.18.07.36.11.57,6.52.65,11.61,3.65,15.37,9.19H2.51Z"/>
  </g>
</svg>