<?xml version="1.0" encoding="UTF-8"?>
<svg id="Capa_2" data-name="Capa 2" xmlns="http://www.w3.org/2000/svg" viewBox="0 0 144.85 152.21">
  <defs>
    <style>
      .cls-1 {
        fill: #2f9393;
      }
    </style>
  </defs>
  <g id="_Capa_" data-name="&amp;lt;Capa&amp;gt;">
    <g id="ZKCWc6">
      <g>
        <path class="cls-1" d="m107.71,89.11c2.32,2.13,4.79,4.4,7.27,6.66,7.89,7.22,15.78,14.44,23.68,21.65,3.73,3.4,6.13,7.49,6.19,12.64.11,9.34-8.1,15.67-17.18,13.36-3.62-.92-6.59-2.87-9.09-5.6-6.17-6.71-12.36-13.41-18.54-20.11-2.69-2.92-5.38-5.85-8.08-8.76-.26-.29-.57-.53-1.02-.95-.51,4.25-3.08,6.99-5.95,9.58-.77.69-1.34,1.66-1.82,2.6-1.3,2.53-2.56,5.09-3.75,7.68-.91,1.97-2.11,3.7-3.7,5.18-6.22,5.8-12.42,11.62-18.63,17.43-1.8,1.69-3.94,1.99-6.26,1.52-3.48-.72-6.41-2.55-9.16-4.68-4.22-3.27-7.55-7.28-9.6-12.23-.51-1.24-.75-2.64-.92-3.98-.21-1.75.39-3.3,1.61-4.6,6.3-6.73,12.59-13.47,18.91-20.18.54-.58,1.26-1.03,1.98-1.39,2.96-1.47,6-2.79,8.92-4.34,1.32-.7,2.53-1.68,3.6-2.73,2.32-2.25,4.64-4.46,8-5.02.79-.13,1.6-.1,2.65-.16-.33-.41-.61-.75-.9-1.11-3.58.94-7.08,1.19-10.67.72-11.14-1.43-20.06-10.32-21.18-21.45-.28-2.81-.06-5.68,0-8.52.03-1.34.72-2.3,2.03-2.76,1.27-.45,2.29,0,3.18.89,3.07,3.06,6.15,6.1,9.17,9.2.81.83,1.57,1.21,2.79,1.06,2.83-.35,5.68-.49,8.52-.74.4-.03.79-.14,1.32-.24.14-1.43.31-2.83.42-4.23.16-1.98.24-3.96.45-5.94.09-.86-.2-1.43-.79-2.01-3.08-3.04-6.12-6.12-9.2-9.17-.99-.99-1.71-2.03-1.17-3.51.56-1.53,1.79-1.9,3.25-2.07,4.99-.58,9.89-.2,14.55,1.73,8.46,3.51,12.9,10.23,14.58,18.97.68,3.55.43,7.09-.53,10.58-.09.34-.11.69-.17,1.09.42.38.83.76,1.07.97,6.26-6.26,12.47-12.46,18.75-18.75,0,0-.22-.28-.41-.58-.94-1.52-.78-3.01.64-4.06,4.54-3.37,9.11-6.69,13.71-9.98,1.31-.94,2.59-.82,3.75.32,3.53,3.46,7.03,6.94,10.49,10.46,1.17,1.19,1.28,2.56.28,3.88-3.37,4.41-6.77,8.8-10.22,13.15-1.26,1.59-2.8,1.58-4.67.31-6.02,6.02-12.02,12.02-18.17,18.17Zm-57.53-19.61c-.11.07-.23.14-.34.21.03.43.04.86.1,1.29,1.71,12.41,15.53,18.26,24.97,14.7,1.92-.72,3.35-.34,4.74,1.2,5.01,5.56,10.12,11.03,15.19,16.54,9.28,10.07,18.57,20.14,27.85,30.23,1.72,1.87,3.66,3.36,6.17,4.03,6.15,1.65,11.11-2.9,9.97-9.16-.54-2.96-2.29-5.14-4.45-7.1-15.58-14.21-31.14-28.44-46.73-42.63-1.47-1.34-1.84-2.67-1.18-4.59,2.68-7.82.93-14.75-4.65-20.72-2.91-3.11-6.74-4.37-11.26-4.91.57.63.88,1.01,1.22,1.35,1.65,1.66,3.29,3.34,4.97,4.96.87.84,1.29,1.78,1.19,2.99-.42,4.97-.8,9.94-1.24,14.91-.14,1.54-1.13,2.5-2.68,2.64-4.61.43-9.23.76-13.84,1.26-2.02.22-3.51-.36-4.85-1.88-1.63-1.86-3.43-3.57-5.16-5.34Zm31.13,27.93c-.36.32-.55.48-.73.66-1.92,1.84-2.38,1.88-4.81.8-.47-.21-1.27-.15-1.69.13-1.22.81-2.48,1.66-3.43,2.75-1.68,1.93-3.65,3.41-5.89,4.53-2.59,1.3-5.25,2.45-7.86,3.71-.62.3-1.26.68-1.73,1.18-5.8,6.15-11.55,12.35-17.37,18.48-.84.88-.98,1.7-.52,2.74,2.82,6.32,7.28,10.96,13.76,13.57,1.16.47,2.07.29,3.03-.62,5.07-4.8,10.14-9.58,15.32-14.26,2.93-2.65,5.16-5.67,6.5-9.42,1.34-3.78,3.29-7.2,6.54-9.76,1.23-.97,2.24-2.22,2.58-4.02-2.08-2.05-1.32-3.94.75-5.66-1.53-1.66-2.94-3.18-4.44-4.81Zm21.96-12.36c.5-.65.83-1.18,1.26-1.61,6.04-6.06,12.09-12.1,18.14-18.15,2.03-2.03,2.68-2.14,5.33-.88,2.16-2.78,4.33-5.57,6.42-8.26-2.35-2.38-4.59-4.65-6.94-7.02-2.83,2.06-5.72,4.17-8.6,6.26,1.28,2.41,1.17,3.21-.64,5.02-6.22,6.23-12.45,12.46-18.68,18.69-.42.42-.83.86-1.32,1.38,1.64,1.49,3.17,2.89,5.03,4.58Z"/>
        <path class="cls-1" d="m24.92,91.58c-3.13.82-6.18,1.46-9.11,2.44-4.22,1.42-9.97-1.34-11.75-5.67-1.12-2.73-2.29-5.44-3.38-8.18-1.77-4.45.08-9.81,4.18-12.21,2.37-1.38,4.73-2.8,7.13-4.13.86-.48,1.12-1.11,1.25-2.06.34-2.6-.37-4.43-2.89-5.66-2.09-1.02-3.96-2.49-5.91-3.78-3.72-2.45-5.44-7.54-3.85-11.71,1.12-2.94,2.38-5.84,3.62-8.74,1.64-3.84,7.33-6.82,11.49-5.38,2.59.89,5.31,1.37,7.95,2.13.9.26,1.58.13,2.2-.52.03-.04.08-.07.12-.1q3.13-2.75,2.07-6.73c-.5-1.87-.83-3.79-1.5-5.59-1.39-3.73,1.11-9.68,5.5-11.57,2.8-1.21,5.64-2.34,8.45-3.51,4.01-1.67,10.19.33,12.12,4.2,1.24,2.5,2.77,4.86,4.21,7.26.24.4.67.95,1.04.98,1.62.11,3.25.12,4.87-.01.4-.03.84-.67,1.12-1.12,1.41-2.36,2.78-4.74,4.16-7.12,2.3-3.94,7.65-5.86,11.96-4.21,2.89,1.11,5.75,2.33,8.6,3.55,3.85,1.65,6.92,7.13,5.48,11.59-.86,2.65-1.49,5.39-2.13,8.11-.12.54.05,1.29.37,1.75,1.76,2.56,3.85,3.99,7.16,2.43,1.67-.79,3.67-.85,5.43-1.5,3.86-1.42,9.63,1.22,11.49,5.36.81,1.81,1.55,3.65,2.27,5.5.69,1.77.12,3.36-1.37,4.02-1.58.7-3.2,0-3.99-1.76-.68-1.53-1.29-3.1-1.94-4.64-1.03-2.43-2.86-3.34-5.38-2.68-3,.78-6,1.56-9,2.37-1.36.37-2.61.23-3.8-.53-2.75-1.75-5-4-6.75-6.74-.75-1.17-.95-2.39-.55-3.78.87-3.03,1.63-6.09,2.43-9.14.59-2.28-.36-4.26-2.57-5.21-2.48-1.06-4.96-2.1-7.47-3.1-2.12-.85-4.2-.1-5.35,1.87-1.62,2.77-3.26,5.52-4.83,8.32-.69,1.22-1.66,1.95-3.04,1.96-3.2.03-6.39.03-9.59-.02-1.33-.02-2.24-.75-2.9-1.92-1.57-2.79-3.21-5.55-4.83-8.31-1.15-1.96-3.25-2.74-5.36-1.9-2.6,1.04-5.18,2.12-7.74,3.23-1.94.84-2.87,2.84-2.34,4.89.78,3,1.5,6.02,2.37,9,.48,1.66.26,3.09-.69,4.49-1.66,2.43-3.69,4.46-6.11,6.12-1.39.95-2.82,1.19-4.48.7-2.98-.87-5.99-1.6-9-2.37-1.95-.51-4.04.38-4.85,2.2-1.2,2.69-2.32,5.42-3.39,8.17-.7,1.8.04,3.83,1.7,4.92,2.89,1.9,5.79,3.8,8.72,5.64,1.03.65,1.74,1.49,1.77,2.68.07,3.14.07,6.29.02,9.43-.02,1.2-.71,2.06-1.78,2.66-2.87,1.64-5.72,3.32-8.57,5-1.75,1.03-2.57,3.1-1.85,4.98,1.06,2.75,2.19,5.48,3.39,8.17.82,1.85,2.85,2.72,4.84,2.21,3.15-.81,6.3-1.63,9.43-2.5,1.21-.34,2.31-.22,3.37.42,2.98,1.8,5.36,4.18,7.17,7.15.68,1.12.73,2.29.4,3.53-.8,3-1.59,6-2.37,9-.56,2.17.02,3.71,1.82,5.04.48.36.99.75,1.32,1.23.7,1.03.52,2.47-.29,3.4-.84.95-2.22,1.21-3.5.66-3.47-1.49-6.19-6.56-5.37-10.27.66-2.98,1.45-5.93,2.3-8.85.32-1.08.15-1.85-.64-2.59-1.04-.97-2.04-1.96-3.06-2.95Z"/>
      </g>
    </g>
  </g>
</svg>