<?xml version="1.0" encoding="UTF-8"?>
<svg id="Capa_2" data-name="Capa 2" xmlns="http://www.w3.org/2000/svg" xmlns:xlink="http://www.w3.org/1999/xlink" viewBox="0 0 37.45 37.33">
  <defs>
    <style>
      .cls-1 {
        fill: #acaeb0;
      }

      .cls-2 {
        fill: #f7f7f8;
      }

      .cls-3 {
        fill: #c9cacb;
      }

      .cls-4 {
        fill: url(#linear-gradient-2);
      }

      .cls-5 {
        fill: #96989a;
      }

      .cls-6 {
        fill: #f4f4f5;
      }

      .cls-7 {
        fill: #fff;
      }

      .cls-8 {
        fill: #dddedf;
      }

      .cls-9 {
        fill: #fcfdfd;
      }

      .cls-10 {
        fill: #fdfefe;
      }

      .cls-11 {
        fill: #fafafa;
      }

      .cls-12 {
        fill: #afb1b3;
      }

      .cls-13 {
        fill: #9d9ea1;
      }

      .cls-14 {
        fill: #e4e5e6;
      }

      .cls-15 {
        fill: #dcdcdd;
      }

      .cls-16 {
        fill: #024e7d;
      }

      .cls-17 {
        fill: #f6f6f6;
      }

      .cls-18 {
        fill: #0f5b8c;
      }

      .cls-19 {
        fill: #f8f8f9;
      }

      .cls-20 {
        fill: #f5f5f5;
      }

      .cls-21 {
        fill: #ebecec;
      }

      .cls-22 {
        fill: url(#linear-gradient-6);
      }

      .cls-23 {
        fill: #d7d7d8;
      }

      .cls-24 {
        fill: #eeefef;
      }

      .cls-25 {
        fill: #929497;
      }

      .cls-26 {
        fill: #eff0f0;
      }

      .cls-27 {
        fill: #c4c5c7;
      }

      .cls-28 {
        fill: #f3f4f4;
      }

      .cls-29 {
        fill: #e7e7e8;
      }

      .cls-30 {
        fill: #d8d9da;
      }

      .cls-31 {
        fill: url(#linear-gradient-11);
      }

      .cls-32 {
        fill: #999b9e;
      }

      .cls-33 {
        fill: #cdcecf;
      }

      .cls-34 {
        fill: #f5f6f6;
      }

      .cls-35 {
        fill: #a9abad;
      }

      .cls-36 {
        fill: #b5b6b8;
      }

      .cls-37 {
        fill: url(#linear-gradient-10);
      }

      .cls-38 {
        fill: #bfc1c2;
      }

      .cls-39 {
        fill: #cbcccd;
      }

      .cls-40 {
        fill: #bdbec0;
      }

      .cls-41 {
        fill: #e6e6e7;
      }

      .cls-42 {
        fill: #fbfbfc;
      }

      .cls-43 {
        fill: #fafafb;
      }

      .cls-44 {
        fill: #414141;
      }

      .cls-45 {
        fill: #173444;
      }

      .cls-46 {
        fill: #b8b9bb;
      }

      .cls-47 {
        fill: #fdfdfd;
      }

      .cls-48 {
        fill: #d1d2d3;
      }

      .cls-49 {
        fill: #fbfbfb;
      }

      .cls-50 {
        fill: #f9f9f9;
      }

      .cls-51 {
        fill: #b2b4b6;
      }

      .cls-52 {
        fill: #e2e2e3;
      }

      .cls-53 {
        fill: url(#linear-gradient-5);
      }

      .cls-54 {
        fill: #f0f1f1;
      }

      .cls-55 {
        fill: #edeeee;
      }

      .cls-56 {
        clip-path: url(#clippath);
      }

      .cls-57 {
        fill: #e9eaea;
      }

      .cls-58 {
        fill: none;
      }

      .cls-59 {
        fill: #e8e9e9;
      }

      .cls-60 {
        fill: url(#linear-gradient-7);
      }

      .cls-61 {
        fill: #d3d4d5;
      }

      .cls-62 {
        fill: #e0e1e2;
      }

      .cls-63 {
        fill: #a3a5a7;
      }

      .cls-64 {
        fill: #a0a2a4;
      }

      .cls-65 {
        fill: #cfd0d1;
      }

      .cls-66 {
        fill: #f7f7f7;
      }

      .cls-67 {
        fill: #dadbdc;
      }

      .cls-68 {
        fill: #eaebeb;
      }

      .cls-69 {
        fill: url(#linear-gradient-9);
      }

      .cls-70 {
        fill: url(#linear-gradient-3);
      }

      .cls-71 {
        fill: #c2c3c5;
      }

      .cls-72 {
        fill: #a6a8aa;
      }

      .cls-73 {
        fill: url(#linear-gradient);
      }

      .cls-74 {
        fill: #f3f3f3;
      }

      .cls-75 {
        fill: #dfdfe0;
      }

      .cls-76 {
        fill: #f1f1f2;
      }

      .cls-77 {
        fill: #f8f8f8;
      }

      .cls-78 {
        fill: url(#linear-gradient-4);
      }

      .cls-79 {
        fill: #c6c8c9;
      }

      .cls-80 {
        fill: #babcbd;
      }

      .cls-81 {
        fill: #f2f2f2;
      }

      .cls-82 {
        fill: url(#linear-gradient-8);
      }

      .cls-83 {
        fill: #e3e4e4;
      }

      .cls-84 {
        fill: #fefefe;
      }

      .cls-85 {
        fill: url(#linear-gradient-12);
      }

      .cls-86 {
        fill: url(#linear-gradient-13);
      }

      .cls-87 {
        fill: #d5d6d7;
      }

      .cls-88 {
        fill: #fcfcfc;
      }

      .cls-89 {
        fill: #ededed;
      }
    </style>
    <linearGradient id="linear-gradient" x1="32.26" y1="20.1" x2="34.36" y2="22.18" gradientUnits="userSpaceOnUse">
      <stop offset="0" stop-color="#808184"/>
      <stop offset=".1" stop-color="#828386"/>
      <stop offset=".16" stop-color="#8a8b8d"/>
      <stop offset=".21" stop-color="#989899"/>
      <stop offset=".24" stop-color="#a6a6a6"/>
      <stop offset=".77" stop-color="#a6a6a6"/>
      <stop offset="1" stop-color="#676767"/>
    </linearGradient>
    <linearGradient id="linear-gradient-2" x1="33.74" y1="25.88" x2="35.84" y2="27.96" xlink:href="#linear-gradient"/>
    <linearGradient id="linear-gradient-3" x1="27.45" y1="26.82" x2="32.95" y2="24.71" gradientUnits="userSpaceOnUse">
      <stop offset=".01" stop-color="#0f7fbb"/>
      <stop offset=".25" stop-color="#0f7fbb"/>
      <stop offset=".29" stop-color="#0f7fbb"/>
      <stop offset=".5" stop-color="#117fba"/>
      <stop offset=".63" stop-color="#1983b9"/>
      <stop offset=".72" stop-color="#2688b7"/>
    </linearGradient>
    <linearGradient id="linear-gradient-4" x1="26.83" y1="28.15" x2="31.65" y2="25.69" gradientUnits="userSpaceOnUse">
      <stop offset=".29" stop-color="#2c9bdb"/>
      <stop offset=".52" stop-color="#2e9ddd"/>
      <stop offset=".65" stop-color="#36a4e4"/>
      <stop offset=".72" stop-color="#3eabeb"/>
    </linearGradient>
    <linearGradient id="linear-gradient-5" x1="9825.87" y1="9813.68" x2="9827.97" y2="9815.76" gradientTransform="translate(9831.06 9831.07) rotate(-90) scale(1 -1)" xlink:href="#linear-gradient"/>
    <linearGradient id="linear-gradient-6" x1="9827.35" y1="9819.45" x2="9829.45" y2="9821.53" gradientTransform="translate(9831.06 9831.07) rotate(-90) scale(1 -1)" xlink:href="#linear-gradient"/>
    <linearGradient id="linear-gradient-7" x1="9821.07" y1="9820.39" x2="9826.56" y2="9818.28" gradientTransform="translate(9831.06 9831.07) rotate(-90) scale(1 -1)" xlink:href="#linear-gradient-3"/>
    <linearGradient id="linear-gradient-8" x1="9820.45" y1="9821.73" x2="9825.27" y2="9819.26" gradientTransform="translate(9831.06 9831.07) rotate(-90) scale(1 -1)" xlink:href="#linear-gradient-4"/>
    <linearGradient id="linear-gradient-9" x1="9.06" y1="32.24" x2="14.7" y2="32.24" gradientUnits="userSpaceOnUse">
      <stop offset=".01" stop-color="#197dbb"/>
      <stop offset=".38" stop-color="#197ebd"/>
      <stop offset=".57" stop-color="#1984c5"/>
      <stop offset=".71" stop-color="#1a8ed2"/>
      <stop offset=".84" stop-color="#1b9de4"/>
      <stop offset=".84" stop-color="#1c9ee6"/>
    </linearGradient>
    <linearGradient id="linear-gradient-10" x1="4.73" y1="26.82" x2="5.17" y2="23.27" xlink:href="#linear-gradient-9"/>
    <clipPath id="clippath">
      <path class="cls-58" d="m11.67,19.45c1-1.47,16.23-16.23,16.23-16.23,0,0,4.89-3.51,7.2-1.96,2.3,1.55,1.21,5.24-.86,7.83-2.07,2.59-13.3,14.59-15.77,15.94-2.47,1.36-9.41,4.05-9.41,4.05l-.81-.86s2.42-7.3,3.42-8.77Z"/>
    </clipPath>
    <linearGradient id="linear-gradient-11" x1="35.61" y1="1.57" x2="35.05" y2="2.12" xlink:href="#linear-gradient-3"/>
    <linearGradient id="linear-gradient-12" x1="-4619.59" y1="6630.2" x2="-4619.59" y2="6636.25" gradientTransform="translate(10250.49 -3680.76) rotate(45) scale(1 1.49)" gradientUnits="userSpaceOnUse">
      <stop offset=".01" stop-color="#a6a8ab"/>
      <stop offset=".21" stop-color="#a3a5a8"/>
      <stop offset=".3" stop-color="#9c9ea0"/>
      <stop offset=".38" stop-color="#8f9193"/>
      <stop offset=".45" stop-color="#7d7e80"/>
      <stop offset=".49" stop-color="#6d6e70"/>
      <stop offset=".82" stop-color="#6d6e70"/>
      <stop offset=".98" stop-color="#929497"/>
    </linearGradient>
    <linearGradient id="linear-gradient-13" x1="-10242.91" y1="6630.15" x2="-10242.91" y2="6636.2" gradientTransform="translate(11583.61 -2346.77) rotate(45) scale(.63 1.49) skewX(-.01)" gradientUnits="userSpaceOnUse">
      <stop offset="0" stop-color="#d0d2d3"/>
      <stop offset=".17" stop-color="#e6e7e8"/>
      <stop offset=".27" stop-color="#e3e4e5"/>
      <stop offset=".32" stop-color="#dcdcdd"/>
      <stop offset=".36" stop-color="#cecfd0"/>
      <stop offset=".4" stop-color="#bcbcbd"/>
      <stop offset=".43" stop-color="#a3a4a5"/>
      <stop offset=".46" stop-color="#858586"/>
      <stop offset=".48" stop-color="#626263"/>
      <stop offset=".5" stop-color="#404041"/>
      <stop offset=".98" stop-color="#929497"/>
    </linearGradient>
  </defs>
  <g id="_Capa_" data-name="&amp;lt;Capa&amp;gt;">
    <g>
      <g>
        <path class="cls-73" d="m31.56,21.05l2.31-2.41s.36-.15,1.16.65c.79.79.84.69.94,1.29l-2.63,2.31h-1.88l.1-1.84Z"/>
        <path class="cls-4" d="m33.04,26.83l2.31-2.41s.36-.15,1.16.65.84.69.94,1.29l-2.63,2.31h-1.88l.1-1.84Z"/>
        <polygon class="cls-18" points="34.66 35.05 35.79 34.88 32.63 22.03 31.51 22.21 34.66 35.05"/>
        <polygon class="cls-45" points="35.26 34.94 33.69 36.55 33.82 37.21 35.65 35.33 35.26 34.94"/>
        <polygon class="cls-16" points="22.51 21.59 21.79 22.39 25.54 25.9 26.17 25.05 22.51 21.59"/>
        <polygon class="cls-16" points="26.81 25.8 25.95 26.44 28.9 30.64 29.69 29.94 26.81 25.8"/>
        <polygon class="cls-70" points="29.97 13.72 35.26 34.94 33.69 36.55 25.82 25.35 21.91 21.86 29.97 13.72"/>
        <polygon class="cls-78" points="27.61 16.08 35.01 35.2 34.17 36.07 26.52 23.97 23.48 20.29 27.61 16.08"/>
      </g>
      <g>
        <path class="cls-53" d="m16.44,5.9l2.41-2.31s.15-.36-.65-1.16c-.79-.79-.69-.84-1.29-.94l-2.31,2.63v1.88s1.84-.1,1.84-.1Z"/>
        <path class="cls-22" d="m10.67,4.41l2.41-2.31s.15-.36-.65-1.16c-.79-.79-.69-.84-1.29-.94l-2.31,2.63v1.88s1.84-.1,1.84-.1Z"/>
        <polygon class="cls-18" points="2.44 2.79 2.61 1.67 15.46 4.82 15.28 5.95 2.44 2.79"/>
        <polygon class="cls-45" points="2.55 2.19 .94 3.76 .28 3.64 2.17 1.8 2.55 2.19"/>
        <polygon class="cls-16" points="15.91 14.94 15.1 15.66 11.59 11.91 12.44 11.29 15.91 14.94"/>
        <polygon class="cls-16" points="11.69 10.64 11.05 11.51 6.85 8.55 7.56 7.76 11.69 10.64"/>
        <polygon class="cls-60" points="23.77 7.49 2.55 2.19 .94 3.76 12.14 11.63 15.63 15.55 23.77 7.49"/>
        <polygon class="cls-82" points="21.41 9.85 2.3 2.44 1.42 3.28 13.52 10.94 17.21 13.97 21.41 9.85"/>
      </g>
      <polyline class="cls-69" points="9.09 28.96 13.74 27.15 14.7 36.28 13.09 37.33 9.06 29.07"/>
      <polyline class="cls-37" points="8.37 28.22 10.18 23.57 1.04 22.61 0 24.22 8.26 28.25"/>
      <g class="cls-56">
        <rect class="cls-25" x="8.25" y="-.29" width="29.15" height="29.38"/>
        <ellipse class="cls-25" cx="23.47" cy="13.98" rx="16.71" ry="4.46" transform="translate(-3.01 20.69) rotate(-45)"/>
        <ellipse class="cls-5" cx="23.47" cy="13.98" rx="16.56" ry="4.42" transform="translate(-3.01 20.69) rotate(-45)"/>
        <ellipse class="cls-32" cx="23.47" cy="13.98" rx="16.41" ry="4.38" transform="translate(-3.01 20.69) rotate(-45)"/>
        <ellipse class="cls-13" cx="23.47" cy="13.98" rx="16.26" ry="4.34" transform="translate(-3.01 20.69) rotate(-45)"/>
        <ellipse class="cls-64" cx="23.47" cy="13.98" rx="16.11" ry="4.3" transform="translate(-3.01 20.69) rotate(-45)"/>
        <ellipse class="cls-63" cx="23.47" cy="13.98" rx="15.96" ry="4.26" transform="translate(-3.01 20.69) rotate(-45)"/>
        <ellipse class="cls-72" cx="23.47" cy="13.98" rx="15.81" ry="4.22" transform="translate(-3.01 20.69) rotate(-45)"/>
        <ellipse class="cls-35" cx="23.47" cy="13.98" rx="15.65" ry="4.18" transform="translate(-3.01 20.69) rotate(-45)"/>
        <ellipse class="cls-1" cx="23.47" cy="13.98" rx="15.5" ry="4.14" transform="translate(-3.01 20.69) rotate(-45)"/>
        <ellipse class="cls-12" cx="23.47" cy="13.98" rx="15.35" ry="4.1" transform="translate(-3.01 20.69) rotate(-45)"/>
        <ellipse class="cls-51" cx="23.47" cy="13.98" rx="15.2" ry="4.06" transform="translate(-3.01 20.69) rotate(-45)"/>
        <ellipse class="cls-36" cx="23.47" cy="13.98" rx="15.05" ry="4.02" transform="translate(-3.01 20.69) rotate(-45)"/>
        <ellipse class="cls-46" cx="23.47" cy="13.98" rx="14.9" ry="3.98" transform="translate(-3.01 20.69) rotate(-45)"/>
        <ellipse class="cls-80" cx="23.47" cy="13.98" rx="14.75" ry="3.93" transform="translate(-3.01 20.69) rotate(-45)"/>
        <ellipse class="cls-40" cx="23.47" cy="13.98" rx="14.59" ry="3.89" transform="translate(-3.01 20.69) rotate(-45)"/>
        <ellipse class="cls-38" cx="23.47" cy="13.98" rx="14.44" ry="3.85" transform="translate(-3.01 20.69) rotate(-45)"/>
        <ellipse class="cls-71" cx="23.47" cy="13.98" rx="14.29" ry="3.81" transform="translate(-3.01 20.69) rotate(-45)"/>
        <ellipse class="cls-27" cx="23.47" cy="13.98" rx="14.14" ry="3.77" transform="translate(-3.01 20.69) rotate(-45)"/>
        <ellipse class="cls-79" cx="23.47" cy="13.98" rx="13.99" ry="3.73" transform="translate(-3.01 20.69) rotate(-45)"/>
        <ellipse class="cls-3" cx="23.47" cy="13.98" rx="13.84" ry="3.69" transform="translate(-3.01 20.69) rotate(-45)"/>
        <ellipse class="cls-39" cx="23.47" cy="13.98" rx="13.69" ry="3.65" transform="translate(-3.01 20.69) rotate(-45)"/>
        <ellipse class="cls-33" cx="23.47" cy="13.98" rx="13.53" ry="3.61" transform="translate(-3.01 20.69) rotate(-45)"/>
        <ellipse class="cls-65" cx="23.47" cy="13.98" rx="13.38" ry="3.57" transform="translate(-3.01 20.69) rotate(-45)"/>
        <ellipse class="cls-48" cx="23.47" cy="13.98" rx="13.23" ry="3.53" transform="translate(-3.01 20.69) rotate(-45)"/>
        <ellipse class="cls-61" cx="23.47" cy="13.98" rx="13.08" ry="3.49" transform="translate(-3.01 20.69) rotate(-45)"/>
        <ellipse class="cls-87" cx="23.47" cy="13.98" rx="12.93" ry="3.45" transform="translate(-3.01 20.69) rotate(-45)"/>
        <ellipse class="cls-23" cx="23.47" cy="13.98" rx="12.78" ry="3.41" transform="translate(-3.01 20.69) rotate(-45)"/>
        <ellipse class="cls-30" cx="23.47" cy="13.98" rx="12.63" ry="3.37" transform="translate(-3.01 20.69) rotate(-45)"/>
        <ellipse class="cls-67" cx="23.47" cy="13.98" rx="12.48" ry="3.33" transform="translate(-3.01 20.69) rotate(-45)"/>
        <ellipse class="cls-15" cx="23.47" cy="13.98" rx="12.32" ry="3.29" transform="translate(-3.01 20.69) rotate(-45)"/>
        <ellipse class="cls-8" cx="23.47" cy="13.98" rx="12.17" ry="3.25" transform="translate(-3.01 20.69) rotate(-45)"/>
        <ellipse class="cls-75" cx="23.47" cy="13.98" rx="12.02" ry="3.21" transform="translate(-3.01 20.69) rotate(-45)"/>
        <ellipse class="cls-62" cx="23.47" cy="13.98" rx="11.87" ry="3.17" transform="translate(-3.01 20.69) rotate(-45)"/>
        <ellipse class="cls-52" cx="23.47" cy="13.98" rx="11.72" ry="3.13" transform="translate(-3.01 20.69) rotate(-45)"/>
        <ellipse class="cls-83" cx="23.47" cy="13.98" rx="11.57" ry="3.09" transform="translate(-3.01 20.69) rotate(-45)"/>
        <ellipse class="cls-14" cx="23.47" cy="13.98" rx="11.42" ry="3.05" transform="translate(-3.01 20.69) rotate(-45)"/>
        <ellipse class="cls-41" cx="23.47" cy="13.98" rx="11.26" ry="3.01" transform="translate(-3.01 20.69) rotate(-45)"/>
        <ellipse class="cls-29" cx="23.47" cy="13.98" rx="11.11" ry="2.97" transform="translate(-3.01 20.69) rotate(-45)"/>
        <ellipse class="cls-59" cx="23.47" cy="13.98" rx="10.96" ry="2.92" transform="translate(-3.01 20.69) rotate(-45)"/>
        <ellipse class="cls-57" cx="23.47" cy="13.98" rx="10.81" ry="2.88" transform="translate(-3.01 20.69) rotate(-45)"/>
        <ellipse class="cls-68" cx="23.47" cy="13.98" rx="10.66" ry="2.84" transform="translate(-3.01 20.69) rotate(-45)"/>
        <ellipse class="cls-21" cx="23.47" cy="13.98" rx="10.51" ry="2.8" transform="translate(-3.01 20.69) rotate(-45)"/>
        <ellipse class="cls-89" cx="23.47" cy="13.98" rx="10.36" ry="2.76" transform="translate(-3.01 20.69) rotate(-45)"/>
        <ellipse class="cls-55" cx="23.47" cy="13.98" rx="10.2" ry="2.72" transform="translate(-3.01 20.69) rotate(-45)"/>
        <ellipse class="cls-24" cx="23.47" cy="13.98" rx="10.05" ry="2.68" transform="translate(-3.01 20.69) rotate(-45)"/>
        <ellipse class="cls-26" cx="23.47" cy="13.98" rx="9.9" ry="2.64" transform="translate(-3.01 20.69) rotate(-45)"/>
        <ellipse class="cls-54" cx="23.47" cy="13.98" rx="9.75" ry="2.6" transform="translate(-3.01 20.69) rotate(-45)"/>
        <ellipse class="cls-76" cx="23.47" cy="13.98" rx="9.6" ry="2.56" transform="translate(-3.01 20.69) rotate(-45)"/>
        <ellipse class="cls-81" cx="23.47" cy="13.98" rx="9.45" ry="2.52" transform="translate(-3.01 20.69) rotate(-45)"/>
        <ellipse class="cls-74" cx="23.47" cy="13.98" rx="9.3" ry="2.48" transform="translate(-3.01 20.69) rotate(-45)"/>
        <ellipse class="cls-28" cx="23.47" cy="13.98" rx="9.14" ry="2.44" transform="translate(-3.01 20.69) rotate(-45)"/>
        <ellipse class="cls-6" cx="23.47" cy="13.98" rx="8.99" ry="2.4" transform="translate(-3.01 20.69) rotate(-45)"/>
        <ellipse class="cls-20" cx="23.47" cy="13.98" rx="8.84" ry="2.36" transform="translate(-3.01 20.69) rotate(-45)"/>
        <ellipse class="cls-34" cx="23.47" cy="13.98" rx="8.69" ry="2.32" transform="translate(-3.01 20.69) rotate(-45)"/>
        <ellipse class="cls-17" cx="23.47" cy="13.98" rx="8.54" ry="2.28" transform="translate(-3.01 20.69) rotate(-45)"/>
        <ellipse class="cls-66" cx="23.47" cy="13.98" rx="8.39" ry="2.24" transform="translate(-3.01 20.69) rotate(-45)"/>
        <ellipse class="cls-2" cx="23.47" cy="13.98" rx="8.24" ry="2.2" transform="translate(-3.01 20.69) rotate(-45)"/>
        <ellipse class="cls-77" cx="23.47" cy="13.98" rx="8.09" ry="2.16" transform="translate(-3.01 20.69) rotate(-45)"/>
        <ellipse class="cls-19" cx="23.47" cy="13.98" rx="7.93" ry="2.12" transform="translate(-3.01 20.69) rotate(-45)"/>
        <ellipse class="cls-50" cx="23.47" cy="13.98" rx="7.78" ry="2.08" transform="translate(-3.01 20.69) rotate(-45)"/>
        <ellipse class="cls-50" cx="23.47" cy="13.98" rx="7.63" ry="2.04" transform="translate(-3.01 20.69) rotate(-45)"/>
        <ellipse class="cls-11" cx="23.47" cy="13.98" rx="7.48" ry="2" transform="translate(-3.01 20.69) rotate(-45)"/>
        <ellipse class="cls-11" cx="23.47" cy="13.98" rx="7.33" ry="1.96" transform="translate(-3.01 20.69) rotate(-45)"/>
        <ellipse class="cls-43" cx="23.47" cy="13.98" rx="7.18" ry="1.91" transform="translate(-3.01 20.69) rotate(-45)"/>
        <ellipse class="cls-49" cx="23.47" cy="13.98" rx="7.03" ry="1.87" transform="translate(-3.01 20.69) rotate(-45)"/>
        <ellipse class="cls-49" cx="23.47" cy="13.98" rx="6.87" ry="1.83" transform="translate(-3.01 20.69) rotate(-45)"/>
        <ellipse class="cls-42" cx="23.47" cy="13.98" rx="6.72" ry="1.79" transform="translate(-3.01 20.69) rotate(-45)"/>
        <ellipse class="cls-88" cx="23.47" cy="13.98" rx="6.57" ry="1.75" transform="translate(-3.01 20.69) rotate(-45)"/>
        <ellipse class="cls-88" cx="23.47" cy="13.98" rx="6.42" ry="1.71" transform="translate(-3.01 20.69) rotate(-45)"/>
        <ellipse class="cls-88" cx="23.47" cy="13.98" rx="6.27" ry="1.67" transform="translate(-3.01 20.69) rotate(-45)"/>
        <ellipse class="cls-9" cx="23.47" cy="13.98" rx="6.12" ry="1.63" transform="translate(-3.01 20.69) rotate(-45)"/>
        <ellipse class="cls-47" cx="23.47" cy="13.98" rx="5.97" ry="1.59" transform="translate(-3.01 20.69) rotate(-45)"/>
        <ellipse class="cls-47" cx="23.47" cy="13.98" rx="5.81" ry="1.55" transform="translate(-3.01 20.69) rotate(-45)"/>
        <ellipse class="cls-47" cx="23.47" cy="13.98" rx="5.66" ry="1.51" transform="translate(-3.01 20.69) rotate(-45)"/>
        <ellipse class="cls-47" cx="23.47" cy="13.98" rx="5.51" ry="1.47" transform="translate(-3.01 20.69) rotate(-45)"/>
        <ellipse class="cls-10" cx="23.47" cy="13.98" rx="5.36" ry="1.43" transform="translate(-3.01 20.69) rotate(-45)"/>
        <ellipse class="cls-84" cx="23.47" cy="13.98" rx="5.21" ry="1.39" transform="translate(-3.01 20.69) rotate(-45)"/>
        <ellipse class="cls-84" cx="23.47" cy="13.98" rx="5.06" ry="1.35" transform="translate(-3.01 20.69) rotate(-45)"/>
        <ellipse class="cls-84" cx="23.47" cy="13.98" rx="4.91" ry="1.31" transform="translate(-3.01 20.69) rotate(-45)"/>
        <ellipse class="cls-84" cx="23.47" cy="13.98" rx="4.75" ry="1.27" transform="translate(-3.01 20.69) rotate(-45)"/>
        <ellipse class="cls-84" cx="23.47" cy="13.98" rx="4.6" ry="1.23" transform="translate(-3.01 20.69) rotate(-45)"/>
        <ellipse class="cls-84" cx="23.47" cy="13.98" rx="4.45" ry="1.19" transform="translate(-3.01 20.69) rotate(-45)"/>
        <ellipse class="cls-84" cx="23.47" cy="13.98" rx="4.3" ry="1.15" transform="translate(-3.01 20.69) rotate(-45)"/>
        <ellipse class="cls-84" cx="23.47" cy="13.98" rx="4.15" ry="1.11" transform="translate(-3.01 20.69) rotate(-45)"/>
        <ellipse class="cls-7" cx="23.47" cy="13.98" rx="4" ry="1.07" transform="translate(-3.01 20.69) rotate(-45)"/>
        <ellipse class="cls-7" cx="23.47" cy="13.98" rx="3.85" ry="1.03" transform="translate(-3.01 20.69) rotate(-45)"/>
        <ellipse class="cls-7" cx="23.47" cy="13.98" rx="3.7" ry=".99" transform="translate(-3.01 20.69) rotate(-45)"/>
        <ellipse class="cls-7" cx="23.47" cy="13.98" rx="3.54" ry=".95" transform="translate(-3.01 20.69) rotate(-45)"/>
        <ellipse class="cls-7" cx="23.47" cy="13.98" rx="3.39" ry=".91" transform="translate(-3.01 20.69) rotate(-45)"/>
        <ellipse class="cls-7" cx="23.47" cy="13.98" rx="3.24" ry=".86" transform="translate(-3.01 20.69) rotate(-45)"/>
        <ellipse class="cls-7" cx="23.47" cy="13.98" rx="3.09" ry=".82" transform="translate(-3.01 20.69) rotate(-45)"/>
        <ellipse class="cls-7" cx="23.47" cy="13.98" rx="2.94" ry=".78" transform="translate(-3.01 20.69) rotate(-45)"/>
        <ellipse class="cls-7" cx="23.47" cy="13.98" rx="2.79" ry=".74" transform="translate(-3.01 20.69) rotate(-45)"/>
        <ellipse class="cls-7" cx="23.47" cy="13.98" rx="2.64" ry=".7" transform="translate(-3.01 20.69) rotate(-45)"/>
        <ellipse class="cls-7" cx="23.47" cy="13.98" rx="2.48" ry=".66" transform="translate(-3.01 20.69) rotate(-45)"/>
        <ellipse class="cls-7" cx="23.47" cy="13.98" rx="2.33" ry=".62" transform="translate(-3.01 20.69) rotate(-45)"/>
        <ellipse class="cls-7" cx="23.47" cy="13.98" rx="2.18" ry=".58" transform="translate(-3.01 20.69) rotate(-45)"/>
        <ellipse class="cls-7" cx="23.47" cy="13.98" rx="2.03" ry=".54" transform="translate(-3.01 20.69) rotate(-45)"/>
        <ellipse class="cls-7" cx="23.47" cy="13.98" rx="1.88" ry=".5" transform="translate(-3.01 20.69) rotate(-45)"/>
        <ellipse class="cls-7" cx="23.47" cy="13.98" rx="1.73" ry=".46" transform="translate(-3.01 20.69) rotate(-45)"/>
        <ellipse class="cls-7" cx="23.47" cy="13.98" rx="1.58" ry=".42" transform="translate(-3.01 20.69) rotate(-45)"/>
        <ellipse class="cls-7" cx="23.47" cy="13.98" rx="1.42" ry=".38" transform="translate(-3.01 20.69) rotate(-45)"/>
        <ellipse class="cls-7" cx="23.47" cy="13.98" rx="1.27" ry=".34" transform="translate(-3.01 20.69) rotate(-45)"/>
        <ellipse class="cls-7" cx="23.47" cy="13.98" rx="1.12" ry=".3" transform="translate(-3.01 20.69) rotate(-45)"/>
        <path class="cls-7" d="m24.15,13.29c.1.1-.12.49-.5.87-.38.38-.77.6-.87.5-.1-.1.12-.49.5-.87.38-.38.77-.6.87-.5Z"/>
        <ellipse class="cls-7" cx="23.47" cy="13.98" rx=".82" ry=".22" transform="translate(-3.01 20.69) rotate(-45)"/>
        <path class="cls-7" d="m23.94,13.5c.07.07-.09.34-.35.6-.26.26-.53.42-.6.35-.07-.07.09-.34.35-.6.26-.26.53-.42.6-.35Z"/>
        <path class="cls-7" d="m23.83,13.61c.05.05-.07.26-.27.46s-.41.32-.46.27.07-.26.27-.46.41-.32.46-.27Z"/>
        <path class="cls-7" d="m23.73,13.72s-.05.18-.19.33c-.14.14-.29.23-.33.19-.04-.04.05-.18.19-.33.14-.14.29-.23.33-.19Z"/>
      </g>
      <path class="cls-31" d="m33.62.88s1.21-.06,1.97.73c.77.79.82,1.59.78,1.86l-2.75-2.59Z"/>
      <path class="cls-85" d="m2.99,34.66l-.28-.28s-.01-.03,0-.04l10.27-10.27s.15-.1.29.04.05.27.04.28l-10.27,10.27s-.03.01-.04,0Z"/>
      <path class="cls-86" d="m2.95,34.62s-.05.04-.14-.04c-.08-.07-.04-.14-.04-.14,0,0,0-.02,0-.03l10.25-10.26s.12-.07.2.02c.07.08.02.17,0,.2l-10.25,10.25s-.03.01-.03,0Z"/>
      <polygon class="cls-44" points="32.4 3.34 32.29 4.02 32.99 4.49 33.37 3.98 32.4 3.34"/>
      <polygon class="cls-44" points="34.24 5.22 33.55 5.31 33.1 4.6 33.62 4.23 34.24 5.22"/>
      <polygon class="cls-44" points="34.43 6.52 33.72 6.29 33.63 5.49 34.3 5.41 34.43 6.52"/>
      <polygon class="cls-44" points="31.07 3.14 31.3 3.85 32.1 3.94 32.19 3.27 31.07 3.14"/>
    </g>
  </g>
</svg>