<?xml version="1.0" encoding="UTF-8"?>
<svg id="Capa_2" data-name="Capa 2" xmlns="http://www.w3.org/2000/svg" viewBox="0 0 31.23 31.85">
  <defs>
    <style>
      .cls-1 {
        fill: #ffce31;
      }

      .cls-2 {
        fill: #ffdf85;
      }

      .cls-3 {
        fill: #ff9d33;
      }
    </style>
  </defs>
  <g id="_Capa_" data-name="&amp;lt;Capa&amp;gt;">
    <g>
      <path class="cls-3" d="m27.52,13.57s-1.47,1.34-3.92,2.93c-.67-3.9-2.53-8.73-6.2-14.61,0,0-1.2,6.31-5.21,12.29-1.75-2.71-2.5-4.83-2.5-4.83-12.6,12.6-2.16,21.53,4.4,21.53,8.42,0,15.83-4.04,13.43-17.31Z"/>
      <path class="cls-1" d="m22.58,24.81c.73-1.6,1.23-3.66,1.35-6.28,0,0-1.03.89-2.75,1.96-.47-2.6-1.77-5.82-4.34-9.74,0,0-.84,4.21-3.64,8.2-1.22-1.8-1.75-3.22-1.75-3.22-2.09,3.3-2.91,5.91-2.96,7.95-1.16-.42-1.87-.79-1.87-.79,1.98,5.91,6.07,7.19,7.91,7.19,3.28,0,6.61-.97,9.92-5.66,0,0-.73.2-1.88.39Z"/>
      <path class="cls-2" d="m10.6,22.12s1.35,1.85,2.38,1.4c0,0,1.95-3.04,4.75-4.74,0,0-.58,4.64.09,5.46.88,1.09,3.26-1.21,3.26-1.21,0,2.74-3,6.2-5.69,6.2s-6.44-2.97-4.79-7.12Z"/>
      <path class="cls-3" d="m24.05,9.68c1.01-1.47,1.7-2.98,1.7-2.98,1.7,2.79.7,4.49-.05,5.04-1,.75-2.82-.37-1.65-2.07Z"/>
      <path class="cls-3" d="m5.59,9.21c-.99-1.7-1.1-3.83-1.1-3.83-2.42,3.65-1.47,5.63-.67,6.23,1.08.81,2.91-.44,1.77-2.41Z"/>
      <path class="cls-3" d="m11.22,5.42c.12-1.14-.35-2.33-.35-2.33,2.29,1.48,2.27,2.77,1.97,3.27-.4.67-1.75.38-1.61-.94Z"/>
    </g>
  </g>
</svg>