<?xml version="1.0" encoding="UTF-8"?>
<svg id="Capa_2" data-name="Capa 2" xmlns="http://www.w3.org/2000/svg" viewBox="0 0 155.11 128.02">
  <defs>
    <style>
      .cls-1 {
        fill: #2f9393;
      }
    </style>
  </defs>
  <g id="_Capa_" data-name="&amp;lt;Capa&amp;gt;">
    <g>
      <path class="cls-1" d="m134.63,66.38c-2.33-4.04-5.89-7.09-10.16-8.79l7.84-29.27c.23-.88-.03-1.8-.7-2.41-.66-.61-1.61-.81-2.46-.5l-32.79,11.69-33.07-8.86V2.43c0-1.34-1.09-2.43-2.43-2.43h-17.68c-1.34,0-2.43,1.09-2.43,2.43v19.78s-4.31-1.15-4.31-1.15c-3.15-.84-6.45-.41-9.3,1.24-2.84,1.64-4.87,4.28-5.72,7.43l-1.99,7.42-3.15-.84c-3.33-.89-6.82-.43-9.82,1.31-3,1.73-5.15,4.52-6.04,7.85-.89,3.33-.43,6.82,1.3,9.82,1.73,3,4.52,5.15,7.85,6.04l3.14.84-1.99,7.42c-.85,3.16-.41,6.46,1.23,9.3,1.64,2.84,4.28,4.87,7.44,5.72l59.91,16.05,22.55,26.52c.46.54,1.14.86,1.85.86.18,0,.36-.02.53-.06.88-.2,1.58-.86,1.81-1.74l7.84-29.26c.97.14,1.95.22,2.93.22,9.28,0,17.43-6.26,19.83-15.22,1.42-5.3.69-10.83-2.05-15.58Zm-9.95,23.83c-2.92,1.68-6.22,2.36-9.49,2l8.01-29.89c3.02,1.33,5.54,3.56,7.23,6.48,2.09,3.63,2.65,7.85,1.57,11.89-1.08,4.04-3.68,7.42-7.31,9.51Zm-14.86,3.29s0,0,0,0l-7.23,26.99-19.22-22.6,15.11-56.39,27.94-9.96-7.23,26.99s0,0,0,0c0,0,0,0,0,0l-9.37,34.96s0,0,0,0ZM15.45,70.83l10.68-39.86c.51-1.9,1.74-3.49,3.46-4.49,1.72-.99,3.71-1.26,5.61-.75l5.56,1.49v18.78c0,6.21,5.05,11.27,11.27,11.27s11.27-5.06,11.27-11.27v-12.74l30.2,8.09-14.51,54.16-58.29-15.62c-3.94-1.06-6.29-5.13-5.24-9.07Zm42.99-24.82c0,3.54-2.88,6.41-6.41,6.41s-6.41-2.88-6.41-6.41V4.85h12.83v41.16Z"/>
      <path class="cls-1" d="m153.31,83.9l-10.37-2.78c-.62-.17-1.28-.08-1.84.24-.56.32-.96.85-1.13,1.47-.17.63-.08,1.28.24,1.84.32.56.85.96,1.47,1.13l10.37,2.78c.21.06.42.08.63.08,1.1,0,2.06-.74,2.34-1.8.17-.63.08-1.28-.24-1.84-.32-.56-.85-.96-1.47-1.13Z"/>
      <path class="cls-1" d="m137.64,92.81c-.95-.95-2.49-.94-3.43,0-.95.95-.95,2.49,0,3.43l7.59,7.59c.46.46,1.07.71,1.72.71s1.26-.25,1.72-.71c.95-.95.95-2.49,0-3.43l-7.59-7.59Z"/>
      <path class="cls-1" d="m142.31,73.12c.21,0,.42-.03.63-.08l10.37-2.78c.63-.17,1.15-.57,1.47-1.13.32-.56.41-1.22.24-1.84-.35-1.29-1.68-2.06-2.97-1.72l-10.37,2.78c-1.29.35-2.06,1.68-1.72,2.97.28,1.06,1.25,1.8,2.34,1.8Z"/>
      <path class="cls-1" d="m52.03,49.9c1.46,0,2.84-.57,3.87-1.61,1.04-1.04,1.61-2.41,1.61-3.87,0-3.02-2.46-5.48-5.48-5.48s-5.48,2.46-5.48,5.48,2.46,5.48,5.48,5.48Zm-.63-5.48c0-.34.28-.62.63-.62s.62.28.62.62-.28.63-.63.63-.62-.28-.62-.63Z"/>
    </g>
  </g>
</svg>