<?xml version="1.0" encoding="UTF-8"?>
<svg id="Capa_2" data-name="Capa 2" xmlns="http://www.w3.org/2000/svg" viewBox="0 0 120.81 165.88">
  <defs>
    <style>
      .cls-1 {
        fill: #2f9393;
      }
    </style>
  </defs>
  <g id="_Capa_" data-name="&amp;lt;Capa&amp;gt;">
    <g id="H8Wzxq">
      <g>
        <path class="cls-1" d="m120.8,140.25c-.06,7.33-2.7,13.59-8.02,18.63-4.35,4.12-9.57,6.43-15.56,6.88-6.94.53-13.14-1.45-18.46-5.89-5.31-4.42-8.3-10.17-9.08-17.06-.33-2.92.04-5.79.47-8.67.57-3.81.78-7.63.12-11.45-.68-3.89-2.38-7.3-5.04-10.17-1.77-1.91-3.74-3.65-5.68-5.4-3.11-2.8-6.37-5.45-9.1-8.65-1.91-2.24-3.5-4.71-4.77-7.35-2.75-5.69-5.41-11.42-8.08-17.14-2.19-4.7-4.35-9.42-6.52-14.13-3.89-8.48-7.86-16.93-11.64-25.46-2.55-5.75-4.12-11.79-4.72-18.07-.45-4.73-.28-9.43.45-14.11.31-1.98,2.25-2.87,3.66-1.67.36.31.62.75.87,1.16,6.09,10.41,12.18,20.82,18.27,31.23,6.15,10.53,12.31,21.05,18.47,31.58,4.58,7.83,9.15,15.66,13.72,23.49,1.8,3.08,3.57,6.19,5.44,9.22,3.43,5.55,8.09,9.82,13.81,12.96,3.59,1.98,7.45,3.3,11.26,4.76,3.57,1.36,7.1,2.81,10.2,5.1,5.44,4.01,8.51,9.45,9.69,16.03.11.63.21,1.27.25,1.91.04.75,0,1.51,0,2.26ZM19.06,9.45c-.08.02-.17.04-.25.06.11,2.1.17,4.2.34,6.29.44,5.44,1.79,10.67,3.89,15.69,1.76,4.21,3.71,8.34,5.62,12.49,3.81,8.3,7.64,16.59,11.46,24.89,2.22,4.81,4.38,9.65,6.66,14.43,1.42,2.98,2.92,5.93,4.58,8.78,2.46,4.25,6.19,7.38,9.83,10.57,2.52,2.2,5.13,4.3,7.34,6.84,3,3.45,5.09,7.34,6.01,11.84.91,4.45.66,8.91.04,13.36-.34,2.46-.74,4.89-.5,7.4.58,5.91,3.15,10.79,7.71,14.52,4.78,3.92,10.34,5.47,16.48,4.56,5.97-.89,10.78-3.82,14.27-8.76,3.32-4.69,4.51-9.92,3.6-15.59-.88-5.47-3.49-9.95-8.01-13.24-2.75-2-5.87-3.29-9.02-4.49-4.06-1.54-8.16-2.99-11.98-5.11-6.46-3.58-11.7-8.46-15.54-14.77-3.34-5.49-6.52-11.08-9.77-16.63-4.61-7.88-9.23-15.76-13.84-23.65-5.36-9.17-10.71-18.34-16.06-27.51-3.46-5.92-6.92-11.83-10.38-17.74-.83-1.41-1.66-2.82-2.49-4.23Z"/>
        <path class="cls-1" d="m45.03,97.73c.61.81,1.15,1.55,1.71,2.28,1.12,1.44,1.13,1.44,0,2.88-3.71,4.75-8.23,8.53-13.54,11.39-3.77,2.02-7.79,3.42-11.76,4.94-3.43,1.31-6.79,2.75-9.66,5.1-4.07,3.33-6.39,7.67-7.11,12.84-.89,6.32.75,11.98,4.88,16.83,3.45,4.05,7.89,6.44,13.18,7.21,8.62,1.25,17.3-3.1,21.48-10.73,1.74-3.18,2.7-6.57,2.64-10.18-.04-2.05-.4-4.1-.66-6.14-.61-4.78-.8-9.55.47-14.26,1.01-3.77,2.84-7.11,5.4-10.05.55-.63,1.14-1.24,1.7-1.87.27-.31.51-.35.83-.06.81.72,1.64,1.43,2.47,2.13.32.27.34.47.05.81-1.17,1.39-2.39,2.75-3.43,4.23-2.17,3.09-3.15,6.59-3.43,10.34-.29,3.93.35,7.77.85,11.64.72,5.5-.31,10.71-3.01,15.53-3.67,6.55-9.2,10.81-16.51,12.53-8.18,1.93-15.66.18-22.18-5.09-5.58-4.51-8.68-10.47-9.31-17.62-.67-7.57,1.67-14.18,6.84-19.74,2.39-2.57,5.33-4.41,8.54-5.77,3.26-1.38,6.58-2.64,9.89-3.92,5.73-2.22,10.96-5.24,15.2-9.76,1.31-1.4,2.46-2.97,3.68-4.46.25-.3.47-.63.77-1.02Z"/>
        <path class="cls-1" d="m75.79,89.88c-.17-.21-.29-.33-.38-.48-.68-1.14-1.34-2.3-2.02-3.44-.23-.38-.22-.72-.03-1.12,3.04-6.56,6.08-13.11,9.1-19.68,4.72-10.23,9.44-20.45,14.13-30.69,2.36-5.15,4.02-10.51,4.85-16.12.43-2.9.58-5.81.3-8.81-12.13,20.75-24.27,41.51-36.47,62.38-.2-.27-.35-.44-.46-.64-.62-1.05-1.22-2.11-1.85-3.15-.24-.4-.21-.71.02-1.1,5.74-9.79,11.47-19.59,17.2-29.39,6.96-11.9,13.91-23.81,20.87-35.72.16-.27.31-.54.48-.8.57-.87,1.43-1.26,2.4-1.04.96.22,1.57.86,1.71,1.82.26,1.78.54,3.55.66,5.34.65,9.66-1.19,18.9-5.08,27.72-2.72,6.19-5.63,12.3-8.45,18.44-3.54,7.69-7.08,15.39-10.63,23.07-1.95,4.23-3.94,8.44-5.91,12.65-.11.23-.25.45-.42.74Z"/>
        <path class="cls-1" d="m8.48,140.08c-.05-9.27,7.68-17.18,17.39-17.1,9.31.08,16.99,7.77,16.99,17.17,0,9.49-7.67,17.17-17.07,17.23-9.55.06-17.43-7.74-17.31-17.31Zm4.43.09c.06,7.16,5.75,12.83,12.83,12.78,7.09-.05,12.74-5.81,12.68-12.94-.05-6.92-5.85-12.62-12.78-12.58-7.07.05-12.79,5.78-12.74,12.74Z"/>
        <path class="cls-1" d="m95.18,157.37c-9.12.03-17.16-7.17-17.18-17.11-.02-10.05,7.92-17.12,16.89-17.27,9.51-.17,17.46,7.38,17.52,17.04.06,10.02-8.08,17.43-17.22,17.33Zm-12.7-17.13c.01,7.08,5.69,12.71,12.81,12.71,7.1,0,12.77-5.77,12.65-13.08-.12-6.95-5.74-12.45-12.82-12.44-7.02,0-12.65,5.71-12.64,12.81Z"/>
        <path class="cls-1" d="m60.47,97.11c-2.95,0-5.25-2.27-5.27-5.2-.01-2.83,2.36-5.2,5.22-5.22,2.87-.02,5.19,2.3,5.2,5.2,0,2.93-2.25,5.21-5.15,5.22Zm-.22-4.41c.67-.1,1.01-.38.88-.82-.08-.28-.44-.63-.72-.68-.43-.07-.79.31-.72.74.05.3.4.56.55.76Z"/>
      </g>
    </g>
  </g>
</svg>