<?xml version="1.0" encoding="UTF-8"?>
<svg id="Capa_2" data-name="Capa 2" xmlns="http://www.w3.org/2000/svg" viewBox="0 0 145.01 144.34">
  <defs>
    <style>
      .cls-1 {
        fill: #2f9393;
      }
    </style>
  </defs>
  <g id="_Capa_" data-name="&amp;lt;Capa&amp;gt;">
    <path class="cls-1" d="m142.85,22.18c-.94-.35-1.96-.51-2.92-.82-1.65-.53-3.29-1.1-4.93-1.66,1.65-.61,3.3-1.24,4.96-1.82,1.31-.45,2.74-.67,3.92-1.33.58-.32,1.14-1.53.96-2.11-.18-.62-1.19-1.14-1.94-1.39-.51-.17-1.21.18-1.82.34-1.95.52-3.89,1.1-5.85,1.57-.56.13-1.2-.03-1.8-.06.29-.4.54-.85.88-1.2,1.41-1.45,2.87-2.86,4.27-4.32,1.88-1.95,2.12-2.8,1.21-3.84-1.02-1.15-2.06-.89-4.11,1.11-1.54,1.5-3.04,3.05-4.58,4.55-.23.22-.6.29-.91.42-.05-.36-.21-.76-.13-1.09.51-2.08.92-4.22,1.68-6.21.6-1.58.26-2.92-.25-4.34h-2.28c-1,3.06-1.99,6.12-3.01,9.17-.13.39-.41.73-.63,1.09-.27-.39-.67-.74-.8-1.18-.57-1.91-.98-3.87-1.61-5.76-.38-1.15-1.03-2.22-1.56-3.32h-1.52c-1,1.09-1.42,2.23-.91,3.79.71,2.15,1.15,4.39,1.67,6.6.05.22-.07.68-.14.68-.31.02-.73.04-.93-.15-1.56-1.48-3.05-3.04-4.62-4.51-1.78-1.68-3.05-1.95-3.91-.94-.81.95-.46,2.26,1.17,3.93,2.3,2.36,4.65,4.66,6.97,7,.56.57,1.1,1.26.15,1.83-.33.2-1.17-.04-1.51-.37-2.29-2.19-4.49-4.47-6.75-6.68-.72-.7-1.48-1.46-2.37-1.83-.51-.21-1.47.16-1.96.58-.36.31-.55,1.26-.33,1.68.44.88,1.15,1.65,1.84,2.37,2.21,2.27,4.49,4.46,6.68,6.75.32.34.57,1.18.38,1.51-.56.95-1.25.43-1.83-.13-.55-.53-1.08-1.07-1.62-1.6-1.97-1.97-3.94-3.93-5.91-5.9-.99-.99-2.12-1.47-3.39-.61-.98.67-.83,1.88.37,3.34.56.68,1.23,1.27,1.86,1.9,1.88,1.88,3.78,3.74,5.63,5.65.47.48,1.36.94.57,1.84-.8.92-1.33.13-1.83-.36-2.17-2.13-4.3-4.3-6.46-6.43-.63-.62-1.3-1.2-2-1.73-.8-.61-1.83-.69-2.36.13-.4.62-.51,1.69-.27,2.4.27.77,1.06,1.38,1.68,2.01,2.22,2.25,4.5,4.46,6.67,6.76.29.31.13,1.06.17,1.6-.53-.07-1.24.05-1.56-.25-2.03-1.91-3.96-3.91-5.94-5.87-.81-.8-1.6-1.62-2.48-2.35-.88-.73-1.84-.82-2.71.07-.9.92-.62,1.85.06,2.72.47.59,1.02,1.12,1.56,1.66,1.7,1.71,3.42,3.38,5.1,5.11,2.45,2.53,2.88,2.09.71,4.25l-9.26-9.26c-.67-.67-1.76-.67-2.44,0-.67.67-.67,1.76,0,2.44l9.26,9.26c-.68.69-1.37,1.37-2.06,2.06l-9.31-9.31c-.67-.67-1.76-.67-2.44,0-.67.67-.67,1.76,0,2.44l9.31,9.32c-.64.64-1.28,1.28-1.91,1.92l-9.49-9.49c-.67-.67-1.76-.67-2.44,0-.67.67-.67,1.76,0,2.44l9.48,9.48c-.62.61-1.33,1.31-2.12,2.1l-9.69-9.69c-.67-.67-1.76-.67-2.44,0-.67.67-.67,1.76,0,2.44l9.68,9.68c-.66.65-1.35,1.33-2.07,2.04l-9.71-9.71c-.67-.67-1.76-.67-2.44,0-.67.67-.67,1.76,0,2.44l9.7,9.7c-.63.62-1.28,1.26-1.94,1.91-.03-.04-.06-.08-.09-.11l-9.76-9.76c-.67-.67-1.76-.67-2.44,0-.67.67-.67,1.76,0,2.44l9.76,9.76s.06.05.1.08c-.75.74-1.52,1.5-2.31,2.27l-9.68-9.68c-.67-.67-1.76-.67-2.44,0-.67.67-.67,1.76,0,2.44l9.66,9.66c-.68.67-1.37,1.35-2.07,2.04l-9.7-9.7c-.67-.67-1.76-.67-2.44,0-.67.67-.67,1.76,0,2.44l9.68,9.68c-.64.63-1.29,1.27-1.94,1.91-.03-.03-.05-.07-.08-.1l-9.76-9.76c-.67-.67-1.76-.67-2.44,0-.67.67-.67,1.76,0,2.44l9.76,9.76s.05.04.08.06c-14.51,14.31-29.33,28.91-31.59,31.14-.57.56-1.68,1.38-2.07,1.18-2.49-1.32-3.76.36-5.19,1.8-6.44,6.45-12.95,12.83-19.3,19.37-1.9,1.96-3.34,4.35-4.99,6.55v3.8c.18.17.41.3.52.5,3.5,6.4,8.83,7.3,14.17,2.38.56-.51,1.08-1.07,1.62-1.61,4.3-4.3,8.59-8.59,12.89-12.89,2.51-2.51,5.01-5.01,7.52-7.52.93-.93,1.89-2.01,1.15-3.31-.91-1.59.12-2.29,1-3.16,3.42-3.42,17.22-17.06,31.74-31.4l9.22,9.22c.34.34.78.5,1.22.5s.88-.17,1.22-.5c.67-.67.67-1.76,0-2.44l-9.21-9.21c.64-.63,1.28-1.27,1.93-1.9l9.37,9.37c.34.34.78.5,1.22.5s.88-.17,1.22-.5c.67-.67.67-1.76,0-2.44l-9.36-9.36c.69-.68,1.38-1.37,2.07-2.04l9.39,9.39c.34.34.78.5,1.22.5s.88-.17,1.22-.5c.67-.67.67-1.76,0-2.44l-9.38-9.38c.77-.76,1.54-1.52,2.29-2.27l9.21,9.21c.34.34.78.5,1.22.5s.88-.17,1.22-.5c.67-.67.67-1.76,0-2.44l-9.2-9.2c.65-.64,1.29-1.28,1.93-1.9l9.36,9.36c.34.34.78.5,1.22.5s.88-.17,1.22-.5c.67-.67.67-1.76,0-2.44l-9.35-9.35c.7-.69,1.39-1.38,2.07-2.04l9.39,9.39c.34.34.78.5,1.22.5s.88-.17,1.22-.5c.67-.67.67-1.76,0-2.44l-9.37-9.37c.73-.72,1.43-1.42,2.12-2.1l9.58,9.58c.34.34.78.5,1.22.5s.88-.17,1.22-.5c.67-.67.67-1.76,0-2.44l-9.57-9.57c.67-.66,1.31-1.3,1.92-1.91l9.74,9.74c.34.34.78.5,1.22.5s.88-.17,1.22-.5c.67-.67.67-1.76,0-2.44l-9.72-9.72c.77-.76,1.46-1.44,2.07-2.05,0,0,0,0,0,0l9.76,9.76c.34.34.78.5,1.22.5s.88-.17,1.22-.5c.67-.67.67-1.76,0-2.44l-9.76-9.76c.19-.18.37-.36.56-.55.64-.67,1.2-.68,1.88.02,2.11,2.18,4.27,4.32,6.43,6.46.63.62,1.25,1.26,1.94,1.81.89.71,1.83.85,2.7-.07.87-.92.65-1.86-.05-2.72-.56-.69-1.2-1.3-1.83-1.93-1.96-1.97-3.95-3.93-5.89-5.92-.56-.57-1.67-1.17-.62-2.1.98-.86,1.55.25,2.16.79.57.5,1.08,1.07,1.62,1.6,1.61,1.61,3.2,3.24,4.83,4.83,1.89,1.83,3.2,2.14,4.16,1.06.87-.99.6-2-1.21-3.87-2.29-2.36-4.65-4.66-6.96-7-.53-.54-1.2-1.19-.21-1.79.33-.19,1.18.06,1.52.39,2.11,2.01,4.13,4.1,6.2,6.15.72.71,1.4,1.55,2.27,1.98.66.33,1.76.39,2.37.05,1.06-.59.87-1.76.31-2.67-.46-.74-1.15-1.34-1.77-1.96-2.14-2.16-4.32-4.28-6.4-6.48-.33-.35-.55-1.26-.33-1.59.59-.9,1.24-.33,1.81.24,2.23,2.25,4.46,4.49,6.71,6.71.63.62,1.26,1.34,2.04,1.65.57.23,1.7.13,1.99-.26.43-.57.64-1.67.37-2.3-.37-.88-1.24-1.57-1.94-2.29-2.22-2.26-4.48-4.47-6.66-6.76-.23-.24-.25-1-.05-1.22.24-.26.96-.41,1.25-.24.63.38,1.14.99,1.68,1.52,1.97,1.96,3.91,3.96,5.92,5.89.62.59,1.36,1.22,2.15,1.41.57.14,1.46-.24,1.92-.69.32-.31.37-1.23.16-1.7-.36-.78-.97-1.47-1.57-2.1-1.3-1.38-2.68-2.69-3.99-4.06-.25-.26-.36-.64-.54-.96.43-.11.9-.4,1.28-.31,2.21.52,4.42,1.05,6.6,1.71,1.45.44,2.64.18,3.09-1.25.5-1.6-.85-2.2-2.06-2.65ZM32.29,117.81c-6.96,6.97-13.9,13.96-20.9,20.88-1.73,1.71-3.53,1.95-5.15,1.06-1.85-1.02-2.62-3.29-1.61-5.21.45-.87,1.17-1.63,1.88-2.34,6.41-6.44,12.84-12.87,19.28-19.29,1.92-1.91,1.95-1.9,3.99.11.9.88,1.79,1.78,2.67,2.68.26.27.47.59.76.96-.3.38-.57.8-.91,1.14Zm8.76-13.07c-1.97,1.96-3.92,3.95-5.96,5.84-.32.29-1.06.12-1.61.16.07-.46.01-.99.24-1.35.32-.53.84-.94,1.28-1.38,7.06-7.07,62.03-61.27,69.1-68.33.53-.53,1.08-1.07,1.69-1.5.21-.14.69,0,.99.13.18.08.25.4.46.79-.52.59-1.05,1.27-1.65,1.87-5.54,5.55-59,58.22-64.55,63.76Z"/>
  </g>
</svg>