<?xml version="1.0" encoding="UTF-8"?>
<svg id="Capa_2" data-name="Capa 2" xmlns="http://www.w3.org/2000/svg" viewBox="0 0 73.31 158.96">
  <defs>
    <style>
      .cls-1 {
        fill: #2f9393;
      }
    </style>
  </defs>
  <g id="_Capa_" data-name="&amp;lt;Capa&amp;gt;">
    <g>
      <path class="cls-1" d="m54.94,51.52c0,12.52.04,25.04-.04,37.57-.01,1.87.52,3.02,2.09,4.15,13.7,9.85,18.85,27.07,12.88,42.61-5.78,15.06-21.33,24.61-37.32,22.92-16.45-1.73-29.65-13.91-32.09-30.47-2.11-14.29,2.84-26.1,14.49-34.82,1.77-1.32,2.3-2.61,2.29-4.67-.06-24.31-.04-48.62-.03-72.92C17.22,5.41,22.64.04,33.21.02c2.53,0,5.05-.05,7.58,0,8.26.19,14.07,5.95,14.13,14.24.09,12.42.02,24.83.02,37.25Zm-5.46,2.17c0-13.05.04-26.09-.02-39.14-.02-5.64-3.45-9-9.05-9.09-2.42-.04-4.84,0-7.26,0-7.49.01-10.48,3-10.48,10.52,0,25.36-.02,50.72.05,76.07,0,2.13-.59,3.31-2.48,4.46-11.42,6.92-17,20.06-14.15,32.81,3.08,13.74,14.87,23.65,28.73,24.13,14.11.49,26.58-8.29,30.71-21.59,4.16-13.4-1.3-27.98-13.42-35.3-1.95-1.18-2.71-2.35-2.69-4.66.13-12.73.06-25.46.06-38.19Z"/>
      <path class="cls-1" d="m60.8,28.79v-4.27c3.54,0,6.98-.13,10.39.1.75.05,1.42,1.38,2.12,2.12-.76.68-1.49,1.9-2.29,1.96-3.32.22-6.66.09-10.22.09Z"/>
      <path class="cls-1" d="m60.8,42.81v-4.23c3.52,0,7.03-.13,10.52.11.71.05,1.67,1.4,1.84,2.28.09.47-1.24,1.71-1.98,1.76-3.33.19-6.68.08-10.39.08Z"/>
      <path class="cls-1" d="m60.8,71.04v-4.26c3.57,0,7.01-.11,10.43.09.72.04,2.02,1.34,1.92,1.83-.18.87-1.18,2.19-1.9,2.24-3.42.24-6.86.11-10.44.11Z"/>
      <path class="cls-1" d="m60.92,14.73v-4.22c3.52,0,7.04-.1,10.54.09.69.04,1.96,1.42,1.84,1.85-.25.88-1.24,2.12-2,2.17-3.41.23-6.84.1-10.38.1Z"/>
      <path class="cls-1" d="m60.8,56.99v-4.25c3.56,0,6.98-.13,10.38.1.75.05,1.41,1.37,2.11,2.1-.77.69-1.49,1.91-2.3,1.96-3.32.22-6.66.09-10.19.09Z"/>
      <path class="cls-1" d="m36.3,53.92c1.66,0,2.4.22,2.64.32.09.23.31.95.31,2.55,0,3.67,0,7.33,0,11,0,2.96,0,5.91,0,8.87,0,1.77,0,3.54,0,5.31.01,5.06.03,10.3-.04,15.43-.05,4.17,1.84,7.22,5.64,9.08,8.59,4.2,12.61,13.1,9.99,22.14-2.24,7.73-9.62,13.34-17.55,13.34-.49,0-.99-.02-1.48-.07-9.69-.86-16.64-7.82-17.3-17.32-.53-7.64,2.48-13.29,9.21-17.29,3.89-2.31,5.69-5.46,5.65-9.92-.08-10.77-.07-21.73-.06-32.33v-8.31c0-1.52.2-2.23.29-2.49.26-.1,1.02-.31,2.67-.31h.01m-.01-6.06c-6.5,0-9.02,2.46-9.02,8.86,0,13.56-.05,27.13.05,40.69.02,2.27-.67,3.46-2.68,4.66-8.64,5.13-12.85,12.95-12.16,22.92.87,12.61,10.33,21.84,22.81,22.94.68.06,1.35.09,2.02.09,10.57,0,20.35-7.29,23.37-17.71,3.42-11.81-1.88-23.77-13.15-29.28-1.69-.83-2.27-1.74-2.24-3.55.09-6.94.04-13.88.03-20.82,0-6.62,0-13.25,0-19.87,0-6.41-2.55-8.92-9.01-8.93h-.02Z"/>
    </g>
  </g>
</svg>