<?xml version="1.0" encoding="UTF-8"?>
<svg id="Capa_2" data-name="Capa 2" xmlns="http://www.w3.org/2000/svg" viewBox="0 0 168.87 173.03">
  <defs>
    <style>
      .cls-1 {
        fill: #2f9393;
      }
    </style>
  </defs>
  <g id="_Capa_" data-name="&amp;lt;Capa&amp;gt;">
    <g>
      <g id="v34x9p">
        <path class="cls-1" d="m129.54,43.05c2.29.88,4.32,1.76,6.4,2.44,3.24,1.07,3.77,2.95,1.35,5.42-14.85,15.19-29.58,30.5-44.61,45.51-16.59,16.58-33.47,32.88-50.2,49.31-.96.95-2.01,1.46-3.34,1.08-16.46-4.65-27.53-15.09-33.08-31.22-.85-2.46-.8-5.32-.71-7.98.12-3.15,1.65-5.83,3.89-8.06,31.47-31.43,62.98-62.82,94.37-94.35C108.41.4,113.83-.99,120.08.67c9.62,2.56,16.46,8.74,20.98,17.45,1.95,3.75,2.34,7.81.34,11.76-.59,1.17-1.4,2.27-2.29,3.22-3.05,3.26-6.18,6.44-9.57,9.95ZM46.18,118.29c.42-.38.71-.63.98-.91,28.69-29.63,57.97-58.67,87.67-87.29,1.66-1.6,2.02-3.35,1.59-5.41-1.7-8.08-10.61-16.49-18.83-17.71-3.04-.45-5.97-.37-8.39,2.07-28.77,28.8-57.56,57.58-86.35,86.37-.25.25-.47.55-.79.93,5.97,1.02,10.84,3.77,15.09,7.69,4.23,3.9,7.4,8.51,9.03,14.25Zm-18.12-12.77c-3.16-1.77-6.32-2.83-9.77-2.65-3.53.18-5.93,1.94-6.38,5.08-.28,1.96-.25,4.15.35,6.01,4.31,13.29,13.47,22,26.25,27.19.91.37,1.29-.17,1.78-.68,29.4-30.55,59.39-60.51,89.88-89.96.3-.29.81-.35,1.22-.52-1.68-1.02-2.94-1.39-4.01-2.06-1.42-.89-2.23-.47-3.32.65-25.53,26.29-51.43,52.2-77.85,77.59-.32.3-.65.61-.88.98-2.4,3.89-6.06,5.12-10.29,4.39-7.84-1.35-12.85-6.22-15.81-13.43-.68-1.67-.41-3.02.9-4.32,2.66-2.65,5.21-5.41,7.95-8.27Zm4.77,3.37c-2.72,2.61-5.35,5.09-7.92,7.65-.23.23-.19.98,0,1.33,1.83,3.28,4.5,5.69,8.02,6.98,1.41.52,3,.72,4.51.72,1.86,0,2.88-1.19,2.97-3.06.03-.74-.04-1.51-.22-2.22-1.14-4.59-3.88-8.15-7.37-11.4Z"/>
      </g>
      <polygon class="cls-1" points="48.29 173.03 0 141.7 12.71 127.79 17.93 132.56 10.85 140.31 47.24 163.92 157.38 49.43 135.16 37.18 138.58 30.98 168.87 47.69 48.29 173.03"/>
    </g>
  </g>
</svg>