<?xml version="1.0" encoding="UTF-8"?>
<svg id="Capa_2" data-name="Capa 2" xmlns="http://www.w3.org/2000/svg" viewBox="0 0 188.89 148.27">
  <defs>
    <style>
      .cls-1 {
        fill: #2f9393;
      }
    </style>
  </defs>
  <g id="_Capa_" data-name="&amp;lt;Capa&amp;gt;">
    <g id="W3a2Zi">
      <g>
        <path class="cls-1" d="m188.89,42.21c-.44,1.3-.81,2.63-1.35,3.88-.56,1.29-1.5,2.31-2.77,2.98-5.13,2.72-10.25,5.46-15.38,8.17-6.77,3.56-13.46,7.22-19.44,12.05-6.66,5.38-12.1,11.82-16.98,18.82-8.63,12.38-17.16,24.83-26.1,36.98-8.67,11.79-20.39,19.25-34.73,22.42-2.21.49-4.53.63-6.8.65-6.84.08-13.69.2-20.52,0-7.94-.23-15.13-3.02-21.65-7.46-11.8-8.04-19.08-19.18-22.12-33.08-.49-2.24-.62-4.59-.66-6.89C.21,90.58.1,80.43,0,70.28c0-.42.26-.88.51-1.24.91-1.34,2.19-1.63,3.79-1.62,19.92.07,39.84.06,59.76.1,2.53,0,5.07.14,7.6.31,1.69.12,2.34.93,2.35,2.58.07,7.55.16,15.09.21,22.64,0,.69.21,1.1.81,1.46,1.66,1.01,3.41.76,5.15.46,1.61-.28,3.04-.95,4.17-2.21,5.44-6.04,10.9-12.05,16.34-18.09,4.67-5.18,9.18-10.5,14.01-15.52,6.84-7.1,15.04-12.36,23.82-16.78,7.08-3.56,14.63-5.7,22.24-7.67,5.28-1.37,10.63-2.47,15.86-3.99,3.85-1.12,9.39,1.66,10.89,4.93.57,1.24.92,2.57,1.38,3.86v2.7ZM6.53,94.46c.26,3.54.27,6.99.81,10.36,2.04,12.71,8.14,23.01,18.88,30.31,5.64,3.84,11.81,6.25,18.81,6.18,7.13-.07,14.26.1,21.39.05,2.1-.01,4.28-.14,6.3-.67,10.86-2.85,19.87-8.74,27.03-17.33,3.04-3.64,5.68-7.62,8.42-11.49,7.38-10.43,14.68-20.92,22.1-31.32,3.6-5.06,7.61-9.77,12.33-13.86,6.94-6.02,14.76-10.66,22.88-14.86,4.99-2.58,9.97-5.16,14.98-7.69,1.19-.6,1.7-1.49,1.7-2.75,0-.39.02-.77,0-1.15-.16-2.63-1.27-3.5-3.85-2.91-3.59.82-7.19,1.64-10.75,2.6-5.85,1.56-11.81,2.88-17.5,4.92-13.24,4.74-24.79,12.17-34.18,22.76-8.57,9.66-17.15,19.31-25.71,28.98-3.18,3.6-7.22,5.19-11.94,5.29-3.2.07-5.96-.92-8.03-3.42-.98-1.19-1.78-2.53-2.79-3.99H6.53Zm60.91-20.19H6.81v13.34h60.63v-13.34Z"/>
        <path class="cls-1" d="m48.17,0c1.03.42,1.64,1.26,2.17,2.19,1.55,2.74,2.99,5.52,3.45,8.7.34,2.34-.17,4.55-1.18,6.63-.98,2.02-2.12,3.95-3.19,5.92-.29.54-.58,1.07-.89,1.6-1.44,2.39-1.45,4.75-.07,7.2.73,1.31,1.33,2.71,1.85,4.11.57,1.53.05,2.66-1.38,3.48-1.35.77-3.19.68-3.96-.46-2.35-3.52-4.37-7.2-4.34-11.61.01-2.14.78-4.09,1.75-5.94,1.06-2.02,2.15-4.02,3.34-5.96,1.63-2.66,1.81-5.25.15-7.97-.63-1.03-1.11-2.17-1.54-3.31-.78-2.1-.11-3.52,1.97-4.39.11-.05.22-.12.33-.18.51,0,1.03,0,1.54,0Z"/>
        <path class="cls-1" d="m30.27,24.85c.03,3.15-.71,5.19-1.72,7.14-.88,1.71-1.86,3.36-2.8,5.04-.16.28-.31.56-.48.83-1.78,2.73-1.93,5.47-.19,8.31.62,1,1.01,2.14,1.51,3.22.53,1.14.6,2.24-.29,3.23-.92,1.02-2.12,1.39-3.41,1.08-.63-.15-1.37-.57-1.71-1.09-1.93-2.93-3.51-6.04-4.08-9.56-.37-2.31.15-4.48,1.12-6.54.89-1.88,1.94-3.68,2.93-5.52.14-.25.27-.51.44-.75,2.19-3.12,2.51-6.26.34-9.57-.62-.95-1.01-2.07-1.37-3.16-.5-1.51.17-2.87,1.67-3.69,1.1-.6,2.95-.37,3.69.71,2.33,3.39,4.11,7.02,4.37,10.32Z"/>
      </g>
    </g>
  </g>
</svg>