<?xml version="1.0" encoding="UTF-8"?>
<svg id="Capa_2" data-name="Capa 2" xmlns="http://www.w3.org/2000/svg" viewBox="0 0 136.1 90.06">
  <defs>
    <style>
      .cls-1, .cls-2 {
        fill: #4d4d4d;
      }

      .cls-1, .cls-2, .cls-3, .cls-4 {
        stroke-width: 0px;
      }

      .cls-2 {
        fill-rule: evenodd;
      }

      .cls-3 {
        fill: #0caa91;
      }

      .cls-4 {
        fill: #fff;
      }
    </style>
  </defs>
  <g id="_Capa_" data-name="&amp;lt;Capa&amp;gt;">
    <g>
      <g>
        <path class="cls-1" d="M72.75,18.79c.3.15.53.35.68.61.15.26.23.55.23.86,0,.4-.11.74-.34,1-.22.27-.54.43-.95.48v.04c.44.13.78.31,1.03.56.25.25.37.59.37,1.03,0,.53-.18.97-.53,1.3-.35.33-.86.5-1.52.5s-1.22-.17-1.64-.52c-.41-.34-.65-.86-.71-1.53h1.02c.04.36.17.65.39.86.22.21.52.32.9.32.35,0,.63-.09.81-.28.19-.19.28-.43.28-.72,0-.35-.14-.62-.41-.81s-.67-.28-1.18-.28h-.24v-.85h.24c.98.01,1.47-.32,1.47-1,0-.29-.09-.53-.27-.69s-.43-.25-.74-.25-.57.09-.78.28-.34.46-.38.82h-1.01c.04-.62.25-1.11.63-1.45s.9-.52,1.57-.52c.42,0,.78.07,1.08.22Z"/>
        <path class="cls-1" d="M84.43,18.5l-1.84,6.62h-1.51l-1.63-5.12-1.66,5.12h-1.5l-1.84-6.62h1.38l1.26,5.36,1.66-5.36h1.44l1.68,5.36,1.26-5.36h1.3Z"/>
        <path class="cls-1" d="M86.45,23.61v1.51h-1.55v-1.51h1.55Z"/>
        <path class="cls-1" d="M91.69,19.01c.47.4.76.93.86,1.59h-1.3c-.06-.36-.21-.65-.46-.87-.25-.22-.59-.33-1-.33-.34,0-.61.08-.8.25-.19.16-.28.39-.28.67,0,.21.07.38.2.5.14.13.31.23.51.3.2.07.49.15.87.24.5.11.9.23,1.21.35s.57.31.79.57c.22.26.33.61.33,1.06,0,.55-.21,1-.63,1.35s-.99.52-1.7.52c-.83,0-1.49-.19-2-.58-.51-.38-.82-.92-.92-1.61h1.33c.04.36.2.65.48.88s.65.34,1.11.34c.33,0,.59-.09.78-.26.19-.17.28-.39.28-.66,0-.23-.07-.42-.22-.55s-.32-.24-.54-.32-.51-.15-.89-.23c-.48-.11-.87-.22-1.17-.34-.3-.11-.56-.29-.77-.55-.21-.25-.32-.59-.32-1.03,0-.56.21-1.02.63-1.36s1-.52,1.75-.52,1.4.2,1.87.6Z"/>
        <path class="cls-1" d="M94.04,16c.16-.15.37-.23.64-.23s.48.08.64.23c.17.15.25.34.25.58s-.08.42-.25.56c-.16.14-.38.22-.64.22s-.48-.07-.64-.22c-.16-.14-.24-.33-.24-.56s.08-.42.24-.58ZM95.36,18.5v6.62h-1.37v-6.62h1.37Z"/>
        <path class="cls-1" d="M97.07,16c.16-.15.37-.23.64-.23s.48.08.64.23c.17.15.25.34.25.58s-.08.42-.25.56c-.16.14-.38.22-.64.22s-.48-.07-.64-.22c-.16-.14-.24-.33-.24-.56s.08-.42.24-.58ZM98.39,18.5v6.62h-1.37v-6.62h1.37Z"/>
        <path class="cls-1" d="M101.13,23.61v1.51h-1.55v-1.51h1.55Z"/>
        <path class="cls-1" d="M107.41,19.09c.56.45.91,1.07,1.05,1.85h-1.46c-.08-.42-.27-.74-.58-.98-.31-.24-.7-.35-1.16-.35-.53,0-.97.19-1.32.56-.35.37-.53.92-.53,1.64s.18,1.27.53,1.65c.35.38.79.56,1.32.56.46,0,.85-.12,1.16-.36.31-.24.5-.57.58-.99h1.46c-.14.78-.49,1.39-1.05,1.85-.56.46-1.27.69-2.13.69-.64,0-1.21-.14-1.7-.41-.49-.27-.88-.67-1.16-1.18-.28-.51-.42-1.12-.42-1.82s.14-1.29.42-1.8c.28-.51.67-.91,1.16-1.18.49-.27,1.06-.41,1.7-.41.86,0,1.57.23,2.13.68Z"/>
        <path class="cls-1" d="M111.15,16.23v8.9h-1.37v-8.9h1.37Z"/>
      </g>
      <circle class="cls-3" cx="112.33" cy="66.18" r="23.77"/>
      <g>
        <path class="cls-1" d="M76.62,72.48H13.34c-3.67,0-6.65-2.98-6.65-6.65V13.34c0-3.67,2.98-6.65,6.65-6.65h97.83c3.67,0,6.65,2.98,6.65,6.65v16.98c2.31.35,4.55.92,6.69,1.69V13.34c0-7.36-5.98-13.34-13.34-13.34H13.34C5.98,0,0,5.98,0,13.34v52.49c0,7.36,5.98,13.34,13.34,13.34h65.13c-.82-2.14-1.45-4.38-1.85-6.69Z"/>
        <path class="cls-1" d="M70.15,49.83c-1.3,0-2.35,1.05-2.35,2.35s1.05,2.35,2.35,2.35h7.84c.55-1.62,1.21-3.19,1.97-4.7h-9.81Z"/>
        <path class="cls-1" d="M70.15,39.84h17.26c1.87-1.77,3.93-3.35,6.14-4.7h-23.41c-1.3,0-2.35,1.05-2.35,2.35s1.05,2.35,2.35,2.35Z"/>
      </g>
      <path class="cls-2" d="M23.38,53.03l.63-6.49-.14,6.49h18.61l-.14-6.49.63,6.49h6.76l-1.69-15.45c-.84-7.68-7.46-5.59-14.26-5.47-.41,0-.82,0-1.23,0-6.79-.13-13.39-2.21-14.23,5.47l-1.69,15.45h6.76Z"/>
      <path class="cls-2" d="M24.86,22.65c.19,4.58,4.07,8.13,8.64,7.94,4.58-.2,8.13-4.07,7.94-8.64-.2-4.58-4.07-8.13-8.64-7.94-4.58.19-8.13,4.06-7.94,8.64Z"/>
      <polygon class="cls-4" points="110.02 79.94 100.76 70.68 106.02 65.42 109.64 69.05 121.45 55.48 127.06 60.37 110.02 79.94"/>
      <rect class="cls-1" x="50.19" y="77.46" width="25.28" height="8.92"/>
      <polygon class="cls-2" points="82.33 90.06 43.33 90.06 46.42 85.17 79.09 85.17 82.33 90.06"/>
    </g>
  </g>
</svg>