<?xml version="1.0" encoding="UTF-8"?>
<svg id="Capa_2" data-name="Capa 2" xmlns="http://www.w3.org/2000/svg" viewBox="0 0 99.13 102.57">
  <defs>
    <style>
      .cls-1, .cls-2 {
        stroke-width: 0px;
      }

      .cls-2 {
        fill: #10ab92;
      }
    </style>
  </defs>
  <g id="Capa_1-2" data-name="Capa 1">
    <g>
      <g id="nbRJbV">
        <path class="cls-1" d="M96.38,102.57H3.05c-.07-1.56-.19-2.97-.19-4.37-.01-17.15-.02-34.31,0-51.46,0-2.2-.25-4.22-1.3-6.25-2.04-3.94-2.04-7.91-.31-12.17C4.8,19.61,7.9,10.73,11.21,1.94c.25-.66.69-1.25,1.08-1.94h74.74c2.86,7.5,5.69,14.92,8.51,22.34.73,1.91,1.28,3.92,2.2,5.73,2.14,4.25,1.59,8.33-.16,12.54-.72,1.72-1.14,3.69-1.15,5.55-.08,17.27-.05,34.55-.05,51.83v4.58ZM66.17,60.8c0,6.42-.01,12.55,0,18.67.01,6.11.05,12.22.08,18.2,4.65.87,22.32.69,24.97-.14v-49.21c-10.39,4.84-19.01,3.07-25.85-5.88-8.26,10.9-22.54,11.81-31.72.04-3.11,3.78-6.55,6.99-11.57,8.05-5.02,1.07-9.67-.06-14.22-2.29-.88,6.07-.56,47.01.31,49.59,5.18.84,21.14.53,23.97-.62v-36.41h34.03ZM11.16,16.25h76.79c-1.1-2.93-2.08-5.48-3.02-8.04-1.24-3.39-1.23-3.42-4.83-3.42-20.38,0-40.76,0-61.14,0-.6,0-1.28-.16-1.79.06-.8.33-1.87.76-2.16,1.43-1.36,3.15-2.5,6.41-3.85,9.98ZM61.28,97.91v-32.12h-24.18v32.12h24.18Z"/>
      </g>
      <path class="cls-2" d="M31.49,33.25h4.37c.33,1.02.65,1.92.91,2.83,1.68,5.96,6.38,9.84,12.2,10.06,5.92.23,10.88-3.17,13.05-8.96.5-1.32.94-2.66,1.45-4.1,1.46.07,2.73.13,4.03.19.28,1.22.44,2.17.72,3.08,1.7,5.46,6.48,9.4,11.82,9.77,5.73.39,10.95-2.79,13.33-8.12,1.09-2.43,1.27-4.85.19-7.36-.86-1.99-1.58-4.04-2.37-6.06-1.24-3.21-1.24-3.23-4.62-3.24-10.38-.01-20.77,0-31.15,0-14.37,0-28.73.06-43.1-.06-2.5-.02-3.75.81-4.46,3.13-.73,2.41-1.84,4.72-2.61,7.12-.35,1.11-.55,2.38-.39,3.52,1.14,8.08,10.33,13.3,17.86,10.2,5.29-2.18,7.97-6.34,8.75-12.01Z"/>
    </g>
  </g>
</svg>