<?xml version="1.0" encoding="UTF-8"?>
<svg id="Capa_2" data-name="Capa 2" xmlns="http://www.w3.org/2000/svg" viewBox="0 0 23.84 39.8">
  <defs>
    <style>
      .cls-1 {
        stroke-width: 0px;
      }
    </style>
  </defs>
  <g id="_Capa_" data-name="&amp;lt;Capa&amp;gt;">
    <g>
      <path class="cls-1" d="M8.32,0c2.35.87,4.34,2.08,5.73,4.11,1.31,1.92,1.74,4.07,1.65,6.36-.13,3.55-1.34,6.78-2.99,9.88-1.04,1.95-2.11,3.89-2.95,5.93-1.79,4.33-1.08,8.37,1.75,12.05.37.48.77.95,1.19,1.47-1.55-.14-2.96-.61-4.29-1.28-3.2-1.62-5.73-3.95-7.24-7.24-1.75-3.83-1.46-7.66.24-11.44,1.04-2.32,2.56-4.35,3.93-6.48,1.22-1.88,2.41-3.79,3.53-5.73.62-1.08,1-2.28.9-3.58-.09-1.14-.58-2.14-1.03-3.16-.12-.27-.26-.53-.43-.89Z"/>
      <path class="cls-1" d="M21.53,39.79c-4.46-.56-8.49-4.24-9.33-8.59-.45-2.33-.1-4.61,1.04-6.68,1.08-1.96,2.38-3.81,3.54-5.72.78-1.28,1.53-2.57,2.22-3.89.61-1.18.48-2.41-.05-3.61-.19-.44-.39-.87-.59-1.31.03-.04.05-.09.08-.13.75.4,1.53.74,2.23,1.21,1.85,1.24,2.86,3,3.1,5.22.33,3.07-.64,5.84-1.99,8.51-.81,1.62-1.73,3.19-2.42,4.86-1.44,3.48-.7,6.64,1.66,9.48.17.2.34.41.51.61,0,.01,0,.03,0,.05Z"/>
    </g>
  </g>
</svg>