<?xml version="1.0" encoding="UTF-8"?>
<svg id="Capa_2" data-name="Capa 2" xmlns="http://www.w3.org/2000/svg" viewBox="0 0 66.78 165.32">
  <defs>
    <style>
      .cls-1 {
        fill: #2f9393;
      }
    </style>
  </defs>
  <g id="_Capa_" data-name="&amp;lt;Capa&amp;gt;">
    <g id="XQjuN9">
      <g>
        <path class="cls-1" d="m17.04,75.44v-39.16c-1.46-.61-3.25-.83-4.01-1.83-.79-1.03-.74-2.82-.79-4.29-.1-3.18-.06-6.36-.01-9.54.02-1.2.23-2.39.38-3.84,2.04-.24,3.78-.44,5.88-.69.94-5.26,1.9-10.59,2.88-16.1h30.07c.9,5.16,1.8,10.38,2.76,15.9,1.33.25,2.77.53,4.66.89.22,1.18.62,2.46.66,3.76.1,3.18.04,6.36.03,9.54,0,4.8-.07,4.87-4.83,6.09v37.1c.33.22.54.47.76.48,7.35.47,11.36,4.7,11.3,12.91-.15,21.98-.04,43.95-.06,65.93,0,1.51-.1,3.04-.37,4.53-.84,4.69-4.34,8.01-9.11,8.07-11.75.16-23.5.18-35.24,0-5.6-.08-9.55-4.48-9.74-10.31-.11-3.31-.02-6.63-.02-9.95,0-19.49.05-38.98-.04-58.47-.02-4.43,1.18-8.13,4.85-11.04Zm.25,44.41c0,11.06-.01,22.12,0,33.19.01,5.64,1.54,7.25,7.05,7.27,10.09.04,20.19.04,30.28,0,5.5-.02,7.12-1.64,7.13-7.21.03-22.26.03-44.52,0-66.79,0-5.63-1.81-7.38-7.5-7.39-9.82-.02-19.64-.02-29.45,0-5.84.01-7.5,1.74-7.51,7.75-.01,11.06,0,22.12,0,33.19ZM49.36,46.96c-6-.84-24.11-.6-26.89.3v15.36h11.43c0-2.34,0-4.4,0-6.46,0-1.95.42-3.85,2.75-3.82,2.23.03,2.29,1.97,2.28,3.69-.01,2.17,0,4.34,0,6.63h10.44v-15.7Zm4.84-16.54v-8.99H17.6v8.99h36.6Zm-5.24-14.3c-.56-3.89-1.08-7.48-1.61-11.18h-21.9c-.56,3.79-1.08,7.38-1.64,11.18h25.16Zm.45,19.82c-6.63-.8-24.2-.54-26.96.34v5.07h26.96v-5.41Zm-26.97,37.63h26.8v-5.37h-26.8v5.37Z"/>
        <path class="cls-1" d="m5.01,106.59c0,4.96,0,9.92,0,14.88,0,.96.14,2.03-.23,2.85-.34.73-1.26,1.59-1.98,1.64-.74.05-1.92-.64-2.22-1.32-.47-1.07-.5-2.4-.5-3.62-.03-9.92-.03-19.85,0-29.77,0-1.22.04-2.55.52-3.62.3-.67,1.5-1.36,2.23-1.3.72.06,1.62.94,1.96,1.68.37.82.22,1.89.23,2.85.02,5.24,0,10.47,0,15.71Z"/>
        <path class="cls-1" d="m.57,130.85c1.77.22,2.78.34,4.1.5v11.06c-1.28.15-2.4.28-3.65.43-1.58-4.03-.99-7.7-.46-11.99Z"/>
        <path class="cls-1" d="m39.57,117.68c0-2.78,0-4.68,0-6.59,0-6.21-.01-12.42,0-18.63.01-5.07.25-5.29,5.47-5.31,2.07,0,4.14-.09,6.21.03,1.29.08,2.56.49,3.88.76v29.55c-5.15.69-9.98.37-15.57.19Zm5.36-25.37v20.3h5.3v-20.3h-5.3Z"/>
        <path class="cls-1" d="m53.79,131.97c.06,3.73-2.7,6.58-6.43,6.63-3.7.05-6.68-2.8-6.75-6.43-.06-3.54,2.98-6.69,6.52-6.75,3.57-.06,6.6,2.92,6.66,6.55Z"/>
        <path class="cls-1" d="m53.79,149.38c.04,3.68-2.71,6.52-6.39,6.61-3.61.09-6.64-2.74-6.77-6.32-.13-3.58,3.15-7.03,6.66-6.98,3.46.05,6.46,3.14,6.5,6.69Z"/>
      </g>
    </g>
  </g>
</svg>