<?xml version="1.0" encoding="UTF-8"?>
<svg id="Capa_2" data-name="Capa 2" xmlns="http://www.w3.org/2000/svg" viewBox="0 0 94.37 108.43">
  <defs>
    <style>
      .cls-1, .cls-2 {
        stroke-width: 0px;
      }

      .cls-2 {
        fill: #10ab92;
      }
    </style>
  </defs>
  <g id="Capa_1-2" data-name="Capa 1">
    <g>
      <path class="cls-2" d="M33.72,42.37c.14.03.27.07.41.1.74.17,1.34.55,1.76,1.19,2.28,3.45,4.57,6.9,6.84,10.35.53.8.54,1.68.28,2.56-.19.62-.44,1.24-.75,1.81-.73,1.38-1.51,2.73-2.29,4.08-.11.2-.11.32.03.5,2.05,2.79,4.41,5.31,6.87,7.75,2.16,2.15,4.37,4.23,6.8,6.08.26.2.53.38.78.58.14.11.24.11.39.03,1.39-.79,2.77-1.57,4.16-2.35.93-.52,1.9-.9,2.99-.85.5.02.97.15,1.39.43,3.47,2.3,6.95,4.59,10.41,6.9,1.02.68,1.28,1.73,1.17,2.89-.07.74-.36,1.41-.8,2-1.74,2.35-3.63,4.57-5.94,6.4-.67.53-1.38,1-2.25,1.07-.61.05-1.23-.01-1.83-.09-2.81-.36-5.39-1.4-7.88-2.7-3.07-1.6-5.9-3.56-8.58-5.72-5.65-4.55-10.75-9.65-15.34-15.26-2.44-2.98-4.63-6.13-6.36-9.57-1.01-2.01-1.85-4.09-2.26-6.31-.14-.78-.22-1.58-.29-2.37-.07-.78.2-1.49.64-2.09.57-.78,1.18-1.53,1.83-2.23,1.48-1.58,3.14-2.95,4.86-4.26.65-.49,1.38-.78,2.18-.92.26,0,.53,0,.79,0Z"/>
      <path class="cls-2" d="M67.06,92.26c.38.09.8-.08,1.17-.35.51-.38,1.02-.77,1.49-1.21,1.64-1.52,3.08-3.21,4.4-5.01.18-.24.32-.53.4-.82.17-.58.08-1.06-.51-1.44-3.3-2.16-6.58-4.35-9.86-6.53-.31-.21-.65-.3-1-.2-.44.13-.89.27-1.29.49-1.81.99-3.61,2.01-5.41,3.03-.16.09-.27.1-.42-.01-1.18-.88-2.4-1.71-3.53-2.65-2.96-2.44-5.66-5.16-8.28-7.96-1.8-1.92-3.49-3.94-4.95-6.14-.12-.18-.14-.31-.02-.51.99-1.74,1.97-3.47,2.94-5.22.21-.38.36-.79.51-1.21.17-.47.1-.91-.21-1.34-.62-.89-1.2-1.81-1.8-2.72-1.57-2.37-3.15-4.74-4.72-7.12-.28-.43-.66-.55-1.13-.5-.45.05-.84.25-1.19.52-1.55,1.18-3.06,2.41-4.4,3.83-.65.69-1.24,1.45-1.82,2.21-.16.21-.22.51-.25.78-.03.3.02.61.06.92.19,1.88.78,3.64,1.52,5.36,1.21,2.83,2.84,5.41,4.64,7.89,2.51,3.47,5.34,6.66,8.34,9.71,4.13,4.2,8.49,8.15,13.42,11.42,2.17,1.44,4.44,2.71,6.88,3.64,1.59.6,3.22,1.07,5.04,1.14Z"/>
      <path class="cls-1" d="M94.35,100.2c-.27-3.76-.72-7.5-1.11-11.25-.52-4.94-1.06-9.87-1.58-14.81-.43-4.11-.83-8.22-1.26-12.32-.56-5.36-1.15-10.72-1.72-16.08-.46-4.31-.89-8.62-1.36-12.92-.45-4.07-3.67-6.94-7.74-6.95-3.55,0-7.09,0-10.64,0-.24,0-.47,0-.74,0,0-2.03.03-3.95-.01-5.86-.03-1.15-.1-2.31-.3-3.43C65.94,5.8,55.76-1.42,44.86.24c-9.73,1.48-17.06,10.02-17.07,19.86,0,1.89,0,3.79,0,5.77-.32,0-.54,0-.76,0-4.11,0-8.22-.03-12.33.02-3.08.04-5.38,1.47-6.86,4.17-.69,1.26-.81,2.65-.95,4.05-.51,4.96-1.05,9.92-1.57,14.88-.56,5.41-1.1,10.82-1.67,16.22-.61,5.81-1.24,11.62-1.85,17.43-.54,5.14-1.1,10.27-1.6,15.41-.13,1.32-.31,2.69-.09,3.97.66,3.88,3.81,6.4,7.75,6.4,4.27,0,8.54,0,12.81,0,21.96,0,43.91,0,65.87,0,4.63,0,8.15-3.63,7.82-8.23ZM34.98,16.01c1.62-5.08,6.28-8.81,11.58-9.41,6.79-.76,13.67,3.86,14.96,11.44.11.64.15,1.3.16,1.95.02,1.94,0,3.87,0,5.87h-27.24s-.1-.08-.1-.12c.06-3.26-.38-6.54.63-9.74ZM88.79,103.56c-4.42,0-8.85.01-13.27.01-23.22,0-46.44,0-69.67,0-1.26,0-1.46-.27-1.33-1.56.6-5.73,1.19-11.45,1.79-17.18.5-4.82,1.03-9.64,1.53-14.46.6-5.73,1.17-11.45,1.77-17.18.6-5.68,1.21-11.35,1.82-17.02.16-1.47.32-2.95.45-4.42.06-.66.37-1.02,1.04-1.02,3.74,0,7.47,0,11.21,0-.04.86.1,1.74.43,2.59.98,2.49,3.32,4.04,6.05,4.02,2.64-.02,5.05-1.84,5.89-4.46.22-.69.31-1.4.28-2.11h22.93c-.03.87.11,1.76.46,2.61,1.05,2.59,3.67,4.2,6.44,3.96,2.52-.22,4.74-2.04,5.49-4.5.21-.69.29-1.42.25-2.13,2.92,0,5.83,0,8.75.01,1.11,0,1.28.14,1.39,1.24.58,5.46,1.14,10.93,1.72,16.39.51,4.8,1.04,9.59,1.54,14.39.55,5.25,1.07,10.5,1.62,15.75.49,4.7,1.01,9.4,1.51,14.11.35,3.28.68,6.56,1.02,9.84.08.75-.3,1.12-1.12,1.12Z"/>
    </g>
  </g>
</svg>