<?xml version="1.0" encoding="UTF-8"?>
<svg id="Capa_2" data-name="Capa 2" xmlns="http://www.w3.org/2000/svg" viewBox="0 0 38.17 49.95">
  <defs>
    <style>
      .cls-1 {
        fill: #319393;
        stroke-width: 0px;
      }
    </style>
  </defs>
  <g id="Capa_1-2" data-name="Capa 1">
    <g>
      <g id="vfIcWe">
        <path class="cls-1" d="M9.78,6.56c-1.6-.19-2.7-.95-3.13-2.49C6.12,2.21,7.46.27,9.38.05c.14-.02.28-.04.42-.04,2.9,0,5.8-.03,8.69.01,1.63.02,2.84,1.08,3.16,2.61.35,1.68-.75,3.4-2.43,3.79-.24.06-.48.09-.76.14,0,.18,0,.36,0,.53,0,4.95,0,9.89-.01,14.84,0,.42.12.59.51.76.97.42,1.9.93,2.82,1.38.79-.78,1.62-1.6,2.47-2.45-.66-.76-1-1.67-.85-2.74.35-2.41,3.28-3.73,5.09-2.12,2.41,2.15,4.66,4.48,6.86,6.84,1.06,1.14.82,3.03-.27,4.16-1.1,1.13-2.86,1.31-4.17.41-.15-.1-.28-.21-.54-.44-.25.3-.47.61-.74.88-.85.87-1.73,1.72-2.58,2.59-.14.14-.25.41-.22.58.94,4.53-.5,8.27-3.74,11.42-.02.02-.04.06-.14.19.3,0,.53,0,.75,0,2.62.02,4.47,1.83,4.51,4.45,0,.34.01.67,0,1.01-.04.61-.39.97-.99,1.04-.07,0-.14.02-.21.02-8.59,0-17.17,0-25.76,0-.75,0-1.2-.38-1.23-1.03-.03-.54-.04-1.1.03-1.64.32-2.29,2.09-3.82,4.4-3.84.25,0,.49,0,.81,0-.09-.12-.13-.21-.2-.27C-1.49,37.02.24,26.37,9.24,22.77c.41-.16.55-.35.55-.79-.02-4.95-.01-9.89-.01-14.84v-.58ZM16.31,6.56h-4.34v.65c0,5.19,0,10.39,0,15.58,0,1.07-.19,1.31-1.21,1.62-2.55.79-4.56,2.29-5.96,4.56-.47.76-.8,1.62-1.24,2.54,1.87.02,3.31.76,4.73,1.56.44.24.95.4,1.44.48,1.53.27,2.98.05,4.32-.79,1.07-.67,2.24-1.11,3.52-1.23,1.89-.18,3.64.22,5.28,1.19.62.37,1.31.62,1.97.92.05-.05.09-.1.14-.15-.1-.59-.14-1.19-.31-1.76-.2-.68-.05-1.17.45-1.66,1.28-1.24,2.52-2.52,3.74-3.75-1.02-1.02-2.02-2.03-3.04-3.04-.95.94-1.92,1.9-2.9,2.87-.66.65-1.12.68-1.85.11-1.08-.85-2.27-1.48-3.59-1.89-1.01-.31-1.16-.51-1.16-1.59,0-5.19,0-10.39,0-15.58,0-.21,0-.42,0-.67ZM24.83,35.74c-1.42-.19-2.58-.85-3.76-1.49-.41-.22-.88-.38-1.34-.47-1.58-.29-3.08-.09-4.47.79-1.83,1.15-3.83,1.48-5.95,1.12-1.15-.2-2.17-.72-3.16-1.3-.87-.51-1.8-.76-2.83-.7-.01.13-.02.22-.03.3-.15,3.81,2.37,7.82,5.86,9.33.17.07.37.1.56.1,2.95,0,5.9,0,8.85,0,.2,0,.43-.03.61-.12,2.8-1.44,4.68-3.64,5.5-6.71.07-.27.1-.54.16-.85ZM2.22,47.74h23.83c0-.11,0-.18,0-.25-.21-1.24-1.04-1.88-2.46-1.89-6.28,0-12.57,0-18.85,0-.23,0-.46,0-.69.03-1.05.12-1.81.98-1.82,2.1ZM32.58,26.6c.65-.01.99-.24,1.17-.67.19-.46.07-.87-.27-1.21-2.01-2.01-4.02-4.03-6.03-6.03-.51-.51-1.14-.52-1.6-.06-.45.45-.44,1.08.07,1.59,1.99,2,3.99,4,6,5.99.21.21.52.31.66.39ZM14.14,2.18c-1.41,0-2.82,0-4.23,0-.72,0-1.19.43-1.2,1.06-.02.63.44,1.1,1.16,1.1,2.84.01,5.68.01,8.52,0,.26,0,.56-.1.78-.25.41-.29.48-.74.33-1.19-.16-.49-.55-.71-1.06-.72-1.43,0-2.86,0-4.28,0Z"/>
      </g>
      <path class="cls-1" d="M32.44,22.34l-3.53-2.71,3.42-3.94-.06-1.4c-.01-.35.19-.68.51-.82.32-.14.7-.07.95.18l4.19,4.19c.24.24.32.6.2.91-.11.32-.4.54-.74.57l-1.65.16-3.29,2.86ZM31.18,19.4l1.2.92,2.7-2.35.68-.06-1.86-1.86v.2s-2.73,3.15-2.73,3.15Z"/>
    </g>
  </g>
</svg>