<?xml version="1.0" encoding="UTF-8"?>
<svg id="Capa_2" data-name="Capa 2" xmlns="http://www.w3.org/2000/svg" viewBox="0 0 50.29 38.85">
  <defs>
    <style>
      .cls-1 {
        fill: #319393;
        stroke-width: 0px;
      }
    </style>
  </defs>
  <g id="Capa_1-2" data-name="Capa 1">
    <g id="doHmn2">
      <path class="cls-1" d="M0,38.85c.56-2.3,1.1-4.54,1.64-6.79,1.61-6.61,3.21-13.23,4.81-19.84.07-.28.19-.47.44-.63C12.79,7.77,18.67,3.94,24.56.11c.23-.15.38-.15.6,0,5.96,3.84,11.92,7.68,17.88,11.52.17.11.33.32.38.52,2.27,8.78,4.54,17.55,6.8,26.33.03.11.05.23.07.37H0ZM25.8,6.7c.01.08.03.14.04.21.73,5.48,2.46,10.63,5.08,15.48,1.93,3.56,4.22,6.85,7.11,9.7.18.18.14.3.05.48-.76,1.5-1.52,3-2.27,4.5-.06.11-.11.23-.17.37h12.85c-.03-.13-.04-.22-.06-.31-2.07-8.02-4.13-16.05-6.21-24.07-.05-.21-.23-.43-.41-.55-5.54-3.58-11.08-7.14-16.62-10.71-.24-.16-.4-.15-.64,0-5.49,3.58-10.98,7.14-16.47,10.72-.16.1-.31.3-.36.49-.3,1.16-.57,2.32-.86,3.49-1.52,6.25-3.03,12.5-4.55,18.74-.18.72-.35,1.45-.53,2.21h12.82c-.07-.16-.12-.28-.18-.39-.7-1.38-1.4-2.76-2.09-4.14q-.32-.63.2-1.14c.09-.09.17-.17.25-.26,5.94-6.45,9.66-14.02,11.3-22.62.14-.73.24-1.48.36-2.19h1.37ZM31.7,37.44c-.4-.55-.8-1.06-1.14-1.6-1.08-1.74-1.77-3.65-2.35-5.6-1.52-5.07-2.33-10.28-3-15.51-.02-.13-.04-.26-.06-.39-.07.04-.09.06-.09.09-.52,3.28-.98,6.57-1.57,9.84-.55,3.03-1.33,6.01-2.48,8.88-.62,1.54-1.36,3-2.54,4.29h13.23ZM16.12,37.33c.36-.21.74-.34.98-.6.54-.57,1.07-1.18,1.49-1.84.87-1.37,1.42-2.9,1.9-4.44,1.2-3.76,1.93-7.63,2.53-11.53.08-.55.16-1.09.24-1.64-.11.08-.15.18-.19.28-.62,1.4-1.19,2.83-1.87,4.19-1.94,3.87-4.33,7.43-7.29,10.6-.08.09-.14.3-.09.4.74,1.49,1.49,2.98,2.29,4.57ZM26.97,17.34c0,.08,0,.16.02.24.46,2.58.86,5.17,1.39,7.74.6,2.9,1.37,5.76,2.64,8.45.48,1.01,1.02,1.99,1.86,2.76.35.31.78.54,1.2.82.84-1.67,1.63-3.23,2.41-4.78-4.17-4.47-7.25-9.59-9.53-15.23Z"/>
    </g>
  </g>
</svg>