<?xml version="1.0" encoding="UTF-8"?>
<svg id="Capa_2" data-name="Capa 2" xmlns="http://www.w3.org/2000/svg" viewBox="0 0 44.88 47.16">
  <defs>
    <style>
      .cls-1 {
        fill: #319393;
        stroke-width: 0px;
      }
    </style>
  </defs>
  <g id="Capa_1-2" data-name="Capa 1">
    <g id="ZKCWc6">
      <g>
        <path class="cls-1" d="M33.38,27.61c.72.66,1.49,1.36,2.25,2.06,2.45,2.24,4.89,4.47,7.34,6.71,1.16,1.06,1.9,2.32,1.92,3.92.03,2.89-2.51,4.86-5.32,4.14-1.12-.28-2.04-.89-2.82-1.73-1.91-2.08-3.83-4.15-5.74-6.23-.83-.91-1.67-1.81-2.5-2.72-.08-.09-.18-.17-.32-.29-.16,1.32-.95,2.17-1.84,2.97-.24.21-.41.52-.56.81-.4.78-.79,1.58-1.16,2.38-.28.61-.65,1.15-1.15,1.6-1.93,1.8-3.85,3.6-5.77,5.4-.56.52-1.22.62-1.94.47-1.08-.22-1.99-.79-2.84-1.45-1.31-1.01-2.34-2.25-2.97-3.79-.16-.39-.23-.82-.28-1.23-.07-.54.12-1.02.5-1.43,1.95-2.08,3.9-4.17,5.86-6.25.17-.18.39-.32.61-.43.92-.45,1.86-.87,2.76-1.34.41-.22.78-.52,1.12-.84.72-.7,1.44-1.38,2.48-1.56.24-.04.5-.03.82-.05-.1-.13-.19-.23-.28-.35-1.11.29-2.19.37-3.31.22-3.45-.44-6.22-3.2-6.56-6.65-.09-.87-.02-1.76,0-2.64,0-.41.22-.71.63-.86.39-.14.71,0,.98.28.95.95,1.9,1.89,2.84,2.85.25.26.49.38.86.33.88-.11,1.76-.15,2.64-.23.12-.01.24-.04.41-.07.04-.44.1-.88.13-1.31.05-.61.08-1.23.14-1.84.03-.27-.06-.44-.24-.62-.96-.94-1.9-1.9-2.85-2.84-.31-.31-.53-.63-.36-1.09.17-.47.56-.59,1.01-.64,1.55-.18,3.07-.06,4.51.54,2.62,1.09,4,3.17,4.52,5.88.21,1.1.13,2.2-.17,3.28-.03.1-.03.22-.05.34.13.12.26.23.33.3,1.94-1.94,3.86-3.86,5.81-5.81,0,0-.07-.09-.13-.18-.29-.47-.24-.93.2-1.26,1.41-1.04,2.82-2.07,4.25-3.09.41-.29.8-.26,1.16.1,1.09,1.07,2.18,2.15,3.25,3.24.36.37.4.79.09,1.2-1.04,1.37-2.1,2.73-3.17,4.07-.39.49-.87.49-1.45.09-1.87,1.87-3.73,3.73-5.63,5.63ZM15.55,21.53s-.07.04-.11.06c.01.13.01.27.03.4.53,3.85,4.81,5.66,7.74,4.56.6-.22,1.04-.11,1.47.37,1.55,1.72,3.14,3.42,4.71,5.12,2.88,3.12,5.76,6.24,8.63,9.37.53.58,1.14,1.04,1.91,1.25,1.91.51,3.44-.9,3.09-2.84-.17-.92-.71-1.59-1.38-2.2-4.83-4.4-9.65-8.81-14.48-13.21-.46-.42-.57-.83-.37-1.42.83-2.42.29-4.57-1.44-6.42-.9-.96-2.09-1.35-3.49-1.52.18.2.27.31.38.42.51.52,1.02,1.03,1.54,1.54.27.26.4.55.37.93-.13,1.54-.25,3.08-.38,4.62-.04.48-.35.77-.83.82-1.43.13-2.86.24-4.29.39-.63.07-1.09-.11-1.5-.58-.51-.58-1.06-1.11-1.6-1.65ZM25.2,30.19c-.11.1-.17.15-.23.2-.6.57-.74.58-1.49.25-.14-.06-.39-.05-.52.04-.38.25-.77.51-1.06.85-.52.6-1.13,1.06-1.83,1.4-.8.4-1.63.76-2.44,1.15-.19.09-.39.21-.54.37-1.8,1.91-3.58,3.83-5.38,5.73-.26.27-.3.53-.16.85.87,1.96,2.26,3.4,4.26,4.2.36.14.64.09.94-.19,1.57-1.49,3.14-2.97,4.75-4.42.91-.82,1.6-1.76,2.01-2.92.42-1.17,1.02-2.23,2.03-3.03.38-.3.69-.69.8-1.25-.64-.63-.41-1.22.23-1.75-.48-.51-.91-.99-1.38-1.49ZM32,26.36c.16-.2.26-.37.39-.5,1.87-1.88,3.75-3.75,5.62-5.62.63-.63.83-.66,1.65-.27.67-.86,1.34-1.73,1.99-2.56-.73-.74-1.42-1.44-2.15-2.18-.88.64-1.77,1.29-2.66,1.94.4.75.36.99-.2,1.55-1.93,1.93-3.86,3.86-5.79,5.79-.13.13-.26.27-.41.43.51.46.98.9,1.56,1.42Z"/>
        <path class="cls-1" d="M7.72,28.38c-.97.26-1.91.45-2.82.76-1.31.44-3.09-.41-3.64-1.76-.35-.85-.71-1.69-1.05-2.53-.55-1.38.02-3.04,1.3-3.78.74-.43,1.47-.87,2.21-1.28.27-.15.35-.34.39-.64.11-.81-.11-1.37-.9-1.75-.65-.32-1.23-.77-1.83-1.17-1.15-.76-1.69-2.34-1.19-3.63.35-.91.74-1.81,1.12-2.71.51-1.19,2.27-2.11,3.56-1.67.8.28,1.65.43,2.46.66.28.08.49.04.68-.16.01-.01.02-.02.04-.03q.97-.85.64-2.08c-.15-.58-.26-1.18-.47-1.73-.43-1.15.35-3,1.7-3.58.87-.37,1.75-.72,2.62-1.09,1.24-.52,3.16.1,3.75,1.3.39.77.86,1.51,1.31,2.25.08.13.21.3.32.3.5.03,1.01.04,1.51,0,.13-.01.26-.21.35-.35.44-.73.86-1.47,1.29-2.21.71-1.22,2.37-1.82,3.7-1.3.9.34,1.78.72,2.67,1.1,1.19.51,2.14,2.21,1.7,3.59-.27.82-.46,1.67-.66,2.51-.04.17.02.4.11.54.55.79,1.19,1.24,2.22.75.52-.24,1.14-.26,1.68-.46,1.19-.44,2.98.38,3.56,1.66.25.56.48,1.13.7,1.7.21.55.04,1.04-.43,1.25-.49.22-.99,0-1.24-.54-.21-.47-.4-.96-.6-1.44-.32-.75-.89-1.03-1.67-.83-.93.24-1.86.48-2.79.73-.42.11-.81.07-1.18-.16-.85-.54-1.55-1.24-2.09-2.09-.23-.36-.29-.74-.17-1.17.27-.94.51-1.89.75-2.83.18-.71-.11-1.32-.8-1.62-.77-.33-1.54-.65-2.31-.96-.66-.26-1.3-.03-1.66.58-.5.86-1.01,1.71-1.5,2.58-.21.38-.51.6-.94.61-.99,0-1.98,0-2.97,0-.41,0-.69-.23-.9-.6-.49-.87-1-1.72-1.5-2.58-.36-.61-1.01-.85-1.66-.59-.8.32-1.6.66-2.4,1-.6.26-.89.88-.73,1.52.24.93.47,1.87.74,2.79.15.51.08.96-.21,1.39-.51.75-1.14,1.38-1.89,1.9-.43.3-.88.37-1.39.22-.92-.27-1.86-.49-2.79-.74-.6-.16-1.25.12-1.5.68-.37.83-.72,1.68-1.05,2.53-.22.56.01,1.19.53,1.53.9.59,1.79,1.18,2.7,1.75.32.2.54.46.55.83.02.97.02,1.95,0,2.92,0,.37-.22.64-.55.82-.89.51-1.77,1.03-2.66,1.55-.54.32-.8.96-.57,1.54.33.85.68,1.7,1.05,2.53.25.57.88.84,1.5.68.98-.25,1.95-.5,2.92-.77.38-.1.72-.07,1.04.13.92.56,1.66,1.3,2.22,2.22.21.35.23.71.13,1.09-.25.93-.49,1.86-.73,2.79-.17.67,0,1.15.56,1.56.15.11.31.23.41.38.22.32.16.77-.09,1.05-.26.29-.69.37-1.08.2-1.08-.46-1.92-2.03-1.67-3.18.2-.92.45-1.84.71-2.74.1-.34.05-.57-.2-.8-.32-.3-.63-.61-.95-.91Z"/>
      </g>
    </g>
  </g>
</svg>