<?xml version="1.0" encoding="UTF-8"?>
<svg id="Capa_2" data-name="Capa 2" xmlns="http://www.w3.org/2000/svg" viewBox="0 0 48.06 39.67">
  <defs>
    <style>
      .cls-1 {
        fill: #319393;
        stroke-width: 0px;
      }
    </style>
  </defs>
  <g id="Capa_1-2" data-name="Capa 1">
    <g>
      <path class="cls-1" d="M41.72,20.57c-.72-1.25-1.83-2.2-3.15-2.72l2.43-9.07c.07-.27-.01-.56-.22-.75-.21-.19-.5-.25-.76-.16l-10.16,3.62-10.25-2.75V.75c0-.41-.34-.75-.75-.75h-5.48c-.41,0-.75.34-.75.75v6.13s-1.33-.36-1.33-.36c-.98-.26-2-.13-2.88.38-.88.51-1.51,1.33-1.77,2.3l-.62,2.3-.97-.26c-1.03-.28-2.11-.13-3.04.4-.93.54-1.6,1.4-1.87,2.43-.28,1.03-.13,2.11.4,3.04.54.93,1.4,1.6,2.43,1.87l.97.26-.62,2.3c-.26.98-.13,2,.38,2.88.51.88,1.33,1.51,2.31,1.77l18.56,4.97,6.99,8.22c.14.17.35.26.57.26.06,0,.11,0,.16-.02.27-.06.49-.27.56-.54l2.43-9.07c.3.04.6.07.91.07,2.87,0,5.4-1.94,6.15-4.72.44-1.64.21-3.36-.64-4.83ZM38.63,27.95c-.9.52-1.93.73-2.94.62l2.48-9.26c.94.41,1.72,1.1,2.24,2.01.65,1.12.82,2.43.49,3.69-.34,1.25-1.14,2.3-2.26,2.95ZM34.03,28.97s0,0,0,0l-2.24,8.36-5.96-7,4.68-17.47,8.66-3.09-2.24,8.36s0,0,0,0c0,0,0,0,0,0l-2.9,10.83s0,0,0,0ZM4.34,17.81l-.97-.26c-.64-.17-1.18-.59-1.52-1.17-.34-.58-.43-1.26-.25-1.9.17-.64.59-1.18,1.17-1.52.58-.34,1.26-.43,1.9-.25l.97.26-1.3,4.85ZM4.79,21.95l3.31-12.35c.16-.59.54-1.08,1.07-1.39.53-.31,1.15-.39,1.74-.23l1.72.46v5.82c0,1.93,1.57,3.49,3.49,3.49s3.49-1.57,3.49-3.49v-3.95l9.36,2.51-4.5,16.78-18.06-4.84c-1.22-.33-1.95-1.59-1.62-2.81ZM18.11,14.26c0,1.1-.89,1.99-1.99,1.99s-1.99-.89-1.99-1.99V1.5h3.97v12.75Z"/>
      <path class="cls-1" d="M47.5,26l-3.21-.86c-.19-.05-.4-.03-.57.08-.17.1-.3.26-.35.46-.05.19-.03.4.08.57.1.17.26.3.46.35l3.21.86c.06.02.13.03.2.03.34,0,.64-.23.73-.56.05-.19.03-.4-.08-.57-.1-.17-.26-.3-.46-.35Z"/>
      <path class="cls-1" d="M42.65,28.76c-.29-.29-.77-.29-1.06,0-.29.29-.29.77,0,1.06l2.35,2.35c.14.14.33.22.53.22s.39-.08.53-.22c.29-.29.29-.77,0-1.06l-2.35-2.35Z"/>
      <path class="cls-1" d="M44.1,22.66c.07,0,.13,0,.2-.03l3.21-.86c.19-.05.36-.18.46-.35s.13-.38.08-.57c-.11-.4-.52-.64-.92-.53l-3.21.86c-.4.11-.64.52-.53.92.09.33.39.56.73.56Z"/>
      <path class="cls-1" d="M16.12,15.46c.45,0,.88-.18,1.2-.5.32-.32.5-.75.5-1.2,0-.94-.76-1.7-1.7-1.7s-1.7.76-1.7,1.7.76,1.7,1.7,1.7ZM15.93,13.76c0-.11.09-.19.19-.19s.19.09.19.19-.09.19-.19.19-.19-.09-.19-.19Z"/>
    </g>
  </g>
</svg>