<?xml version="1.0" encoding="UTF-8"?>
<svg id="Capa_2" data-name="Capa 2" xmlns="http://www.w3.org/2000/svg" viewBox="0 0 22.72 49.26">
  <defs>
    <style>
      .cls-1 {
        fill: #319393;
        stroke-width: 0px;
      }
    </style>
  </defs>
  <g id="Capa_1-2" data-name="Capa 1">
    <g>
      <path class="cls-1" d="M17.02,15.96c0,3.88.01,7.76-.01,11.64,0,.58.16.94.65,1.29,4.24,3.05,5.84,8.39,3.99,13.2-1.79,4.67-6.61,7.62-11.56,7.1-5.1-.54-9.19-4.31-9.94-9.44-.65-4.43.88-8.09,4.49-10.79.55-.41.71-.81.71-1.45-.02-7.53-.01-15.06-.01-22.6C5.34,1.68,7.01.01,10.29,0c.78,0,1.57-.02,2.35,0,2.56.06,4.36,1.84,4.38,4.41.03,3.85,0,7.7,0,11.54ZM15.33,16.64c0-4.04.01-8.09,0-12.13,0-1.75-1.07-2.79-2.81-2.82-.75-.01-1.5,0-2.25,0-2.32,0-3.25.93-3.25,3.26,0,7.86,0,15.71.02,23.57,0,.66-.18,1.03-.77,1.38-3.54,2.14-5.27,6.22-4.38,10.17.95,4.26,4.61,7.33,8.9,7.48,4.37.15,8.24-2.57,9.52-6.69,1.29-4.15-.4-8.67-4.16-10.94-.61-.37-.84-.73-.83-1.45.04-3.94.02-7.89.02-11.83Z"/>
      <path class="cls-1" d="M18.84,8.92v-1.32c1.1,0,2.16-.04,3.22.03.23.02.44.43.66.66-.24.21-.46.59-.71.61-1.03.07-2.06.03-3.17.03Z"/>
      <path class="cls-1" d="M18.84,13.27v-1.31c1.09,0,2.18-.04,3.26.03.22.01.52.43.57.71.03.14-.38.53-.61.54-1.03.06-2.07.03-3.22.03Z"/>
      <path class="cls-1" d="M18.84,22.01v-1.32c1.11,0,2.17-.03,3.23.03.22.01.62.42.59.57-.06.27-.36.68-.59.69-1.06.07-2.13.03-3.24.03Z"/>
      <path class="cls-1" d="M18.88,4.56v-1.31c1.09,0,2.18-.03,3.27.03.21.01.61.44.57.57-.08.27-.38.66-.62.67-1.06.07-2.12.03-3.22.03Z"/>
      <path class="cls-1" d="M18.84,17.66v-1.32c1.1,0,2.16-.04,3.22.03.23.02.44.42.65.65-.24.21-.46.59-.71.61-1.03.07-2.06.03-3.16.03Z"/>
      <path class="cls-1" d="M11.25,16.71c.52,0,.74.07.82.1.03.07.1.29.1.79,0,1.14,0,2.27,0,3.41,0,.92,0,1.83,0,2.75,0,.55,0,1.1,0,1.64,0,1.57,0,3.19-.01,4.78-.02,1.29.57,2.24,1.75,2.81,2.66,1.3,3.91,4.06,3.09,6.86-.69,2.39-2.98,4.13-5.44,4.13-.15,0-.31,0-.46-.02-3-.27-5.16-2.42-5.36-5.37-.16-2.37.77-4.12,2.85-5.36,1.21-.72,1.76-1.69,1.75-3.07-.03-3.34-.02-6.73-.02-10.02v-2.57c0-.47.06-.69.09-.77.08-.03.31-.1.83-.1h0M11.24,14.83c-2.01,0-2.79.76-2.79,2.74,0,4.2-.02,8.41.02,12.61,0,.7-.21,1.07-.83,1.44-2.68,1.59-3.98,4.01-3.77,7.1.27,3.91,3.2,6.77,7.07,7.11.21.02.42.03.63.03,3.27,0,6.31-2.26,7.24-5.49,1.06-3.66-.58-7.36-4.07-9.07-.52-.26-.7-.54-.7-1.1.03-2.15.01-4.3,0-6.45,0-2.05,0-4.1,0-6.16,0-1.99-.79-2.76-2.79-2.77h0Z"/>
    </g>
  </g>
</svg>