<?xml version="1.0" encoding="UTF-8"?>
<svg id="Capa_2" data-name="Capa 2" xmlns="http://www.w3.org/2000/svg" viewBox="0 0 52.33 53.62">
  <defs>
    <style>
      .cls-1 {
        fill: #319393;
        stroke-width: 0px;
      }
    </style>
  </defs>
  <g id="Capa_1-2" data-name="Capa 1">
    <g>
      <g id="v34x9p">
        <path class="cls-1" d="M40.14,13.34c.71.27,1.34.54,1.98.76,1,.33,1.17.91.42,1.68-4.6,4.71-9.17,9.45-13.82,14.1-5.14,5.14-10.37,10.19-15.56,15.28-.3.29-.62.45-1.04.34-5.1-1.44-8.53-4.67-10.25-9.67-.26-.76-.25-1.65-.22-2.47.04-.98.51-1.81,1.2-2.5C12.62,21.11,22.38,11.38,32.11,1.62c1.48-1.49,3.17-1.92,5.1-1.41,2.98.79,5.1,2.71,6.5,5.41.6,1.16.72,2.42.11,3.64-.18.36-.43.7-.71,1-.94,1.01-1.92,2-2.96,3.08ZM14.31,36.65c.13-.12.22-.2.3-.28,8.89-9.18,17.96-18.18,27.16-27.05.52-.5.63-1.04.49-1.67-.53-2.5-3.29-5.11-5.84-5.49-.94-.14-1.85-.11-2.6.64C24.92,11.73,16,20.65,7.08,29.57c-.08.08-.14.17-.24.29,1.85.32,3.36,1.17,4.68,2.38,1.31,1.21,2.29,2.64,2.8,4.42ZM8.69,32.7c-.98-.55-1.96-.88-3.03-.82-1.09.06-1.84.6-1.98,1.57-.09.61-.08,1.29.11,1.86,1.34,4.12,4.17,6.82,8.13,8.42.28.11.4-.05.55-.21,9.11-9.47,18.4-18.75,27.85-27.87.09-.09.25-.11.38-.16-.52-.32-.91-.43-1.24-.64-.44-.28-.69-.15-1.03.2-7.91,8.15-15.94,16.17-24.12,24.04-.1.09-.2.19-.27.3-.74,1.2-1.88,1.59-3.19,1.36-2.43-.42-3.98-1.93-4.9-4.16-.21-.52-.13-.94.28-1.34.82-.82,1.61-1.68,2.46-2.56ZM10.17,33.74c-.84.81-1.66,1.58-2.45,2.37-.07.07-.06.3,0,.41.57,1.02,1.39,1.76,2.49,2.16.44.16.93.22,1.4.22.58,0,.89-.37.92-.95.01-.23-.01-.47-.07-.69-.35-1.42-1.2-2.53-2.28-3.53Z"/>
      </g>
      <polygon class="cls-1" points="14.96 53.62 0 43.91 3.94 39.6 5.56 41.07 3.36 43.48 14.64 50.79 48.77 15.32 41.88 11.52 42.94 9.6 52.33 14.78 14.96 53.62"/>
    </g>
  </g>
</svg>