<?xml version="1.0" encoding="UTF-8"?>
<svg id="Capa_2" data-name="Capa 2" xmlns="http://www.w3.org/2000/svg" viewBox="0 0 58.53 45.94">
  <defs>
    <style>
      .cls-1 {
        fill: #319393;
        stroke-width: 0px;
      }
    </style>
  </defs>
  <g id="Capa_1-2" data-name="Capa 1">
    <g id="W3a2Zi">
      <g>
        <path class="cls-1" d="M58.53,13.08c-.14.4-.25.81-.42,1.2-.17.4-.46.71-.86.92-1.59.84-3.17,1.69-4.77,2.53-2.1,1.1-4.17,2.24-6.02,3.73-2.06,1.67-3.75,3.66-5.26,5.83-2.67,3.83-5.32,7.69-8.09,11.46-2.69,3.65-6.32,5.97-10.76,6.95-.68.15-1.4.19-2.11.2-2.12.03-4.24.06-6.36,0-2.46-.07-4.69-.93-6.71-2.31-3.66-2.49-5.91-5.94-6.85-10.25-.15-.69-.19-1.42-.2-2.13C.06,28.07.03,24.92,0,21.78c0-.13.08-.27.16-.39.28-.42.68-.51,1.18-.5,6.17.02,12.34.02,18.52.03.79,0,1.57.04,2.36.1.52.04.72.29.73.8.02,2.34.05,4.68.06,7.02,0,.21.07.34.25.45.51.31,1.06.24,1.6.14.5-.09.94-.29,1.29-.68,1.69-1.87,3.38-3.73,5.06-5.6,1.45-1.6,2.84-3.25,4.34-4.81,2.12-2.2,4.66-3.83,7.38-5.2,2.19-1.1,4.53-1.77,6.89-2.38,1.63-.42,3.29-.76,4.91-1.24,1.19-.35,2.91.52,3.38,1.53.18.38.29.8.43,1.2v.84ZM2.02,29.27c.08,1.1.08,2.17.25,3.21.63,3.94,2.52,7.13,5.85,9.39,1.75,1.19,3.66,1.94,5.83,1.92,2.21-.02,4.42.03,6.63.02.65,0,1.33-.04,1.95-.21,3.37-.88,6.16-2.71,8.37-5.37.94-1.13,1.76-2.36,2.61-3.56,2.29-3.23,4.55-6.48,6.85-9.7,1.12-1.57,2.36-3.03,3.82-4.29,2.15-1.87,4.57-3.3,7.09-4.6,1.55-.8,3.09-1.6,4.64-2.38.37-.19.53-.46.53-.85,0-.12,0-.24,0-.36-.05-.81-.39-1.09-1.19-.9-1.11.26-2.23.51-3.33.8-1.81.48-3.66.89-5.42,1.52-4.1,1.47-7.68,3.77-10.59,7.05-2.65,2.99-5.31,5.98-7.97,8.98-.99,1.11-2.24,1.61-3.7,1.64-.99.02-1.85-.28-2.49-1.06-.3-.37-.55-.78-.86-1.24H2.02ZM20.9,23.01H2.11v4.13h18.79v-4.13Z"/>
        <path class="cls-1" d="M14.93,0c.32.13.51.39.67.68.48.85.93,1.71,1.07,2.7.11.73-.05,1.41-.37,2.05-.3.62-.66,1.22-.99,1.84-.09.17-.18.33-.28.49-.45.74-.45,1.47-.02,2.23.23.4.41.84.57,1.27.18.47.02.82-.43,1.08-.42.24-.99.21-1.23-.14-.73-1.09-1.35-2.23-1.35-3.6,0-.66.24-1.27.54-1.84.33-.62.67-1.24,1.03-1.85.5-.82.56-1.63.05-2.47-.2-.32-.35-.67-.48-1.02-.24-.65-.03-1.09.61-1.36.04-.01.07-.04.1-.06.16,0,.32,0,.48,0Z"/>
        <path class="cls-1" d="M9.38,7.7c0,.98-.22,1.61-.53,2.21-.27.53-.58,1.04-.87,1.56-.05.09-.1.17-.15.26-.55.85-.6,1.7-.06,2.57.19.31.31.66.47,1,.16.35.18.69-.09,1-.28.31-.66.43-1.06.33-.2-.05-.42-.18-.53-.34-.6-.91-1.09-1.87-1.26-2.96-.12-.72.05-1.39.35-2.03.28-.58.6-1.14.91-1.71.04-.08.08-.16.14-.23.68-.97.78-1.94.1-2.97-.19-.29-.31-.64-.42-.98-.15-.47.05-.89.52-1.14.34-.19.91-.12,1.14.22.72,1.05,1.27,2.17,1.35,3.2Z"/>
      </g>
    </g>
  </g>
</svg>