<?xml version="1.0" encoding="UTF-8"?>
<svg id="Capa_2" data-name="Capa 2" xmlns="http://www.w3.org/2000/svg" viewBox="0 0 37.44 51.4">
  <defs>
    <style>
      .cls-1 {
        fill: #319393;
        stroke-width: 0px;
      }
    </style>
  </defs>
  <g id="Capa_1-2" data-name="Capa 1">
    <g id="H8Wzxq">
      <g>
        <path class="cls-1" d="M37.43,43.46c-.02,2.27-.84,4.21-2.48,5.77-1.35,1.28-2.97,1.99-4.82,2.13-2.15.16-4.07-.45-5.72-1.82-1.64-1.37-2.57-3.15-2.81-5.28-.1-.9.01-1.79.15-2.69.18-1.18.24-2.36.04-3.55-.21-1.2-.74-2.26-1.56-3.15-.55-.59-1.16-1.13-1.76-1.67-.97-.87-1.97-1.69-2.82-2.68-.59-.69-1.08-1.46-1.48-2.28-.85-1.76-1.68-3.54-2.5-5.31-.68-1.46-1.35-2.92-2.02-4.38-1.21-2.63-2.43-5.25-3.61-7.89-.79-1.78-1.28-3.65-1.46-5.6-.14-1.47-.09-2.92.14-4.37.1-.61.7-.89,1.13-.52.11.09.19.23.27.36,1.89,3.22,3.77,6.45,5.66,9.68,1.91,3.26,3.81,6.52,5.72,9.78,1.42,2.43,2.83,4.85,4.25,7.28.56.95,1.1,1.92,1.69,2.86,1.06,1.72,2.51,3.04,4.28,4.02,1.11.61,2.31,1.02,3.49,1.47,1.11.42,2.2.87,3.16,1.58,1.69,1.24,2.64,2.93,3,4.97.04.2.06.39.08.59.01.23,0,.47,0,.7ZM5.91,2.93s-.05.01-.08.02c.03.65.05,1.3.11,1.95.14,1.69.55,3.31,1.2,4.86.55,1.3,1.15,2.58,1.74,3.87,1.18,2.57,2.37,5.14,3.55,7.71.69,1.49,1.36,2.99,2.06,4.47.44.92.91,1.84,1.42,2.72.76,1.32,1.92,2.29,3.05,3.27.78.68,1.59,1.33,2.27,2.12.93,1.07,1.58,2.28,1.86,3.67.28,1.38.21,2.76.01,4.14-.11.76-.23,1.52-.15,2.29.18,1.83.97,3.34,2.39,4.5,1.48,1.21,3.2,1.7,5.11,1.41,1.85-.27,3.34-1.18,4.42-2.71,1.03-1.45,1.4-3.08,1.12-4.83-.27-1.7-1.08-3.08-2.48-4.1-.85-.62-1.82-1.02-2.8-1.39-1.26-.48-2.53-.93-3.71-1.58-2-1.11-3.63-2.62-4.81-4.58-1.03-1.7-2.02-3.43-3.03-5.15-1.43-2.44-2.86-4.88-4.29-7.33-1.66-2.84-3.32-5.68-4.98-8.52-1.07-1.83-2.14-3.66-3.21-5.5-.26-.44-.51-.87-.77-1.31Z"/>
        <path class="cls-1" d="M13.95,30.28c.19.25.36.48.53.71.35.45.35.45,0,.89-1.15,1.47-2.55,2.64-4.2,3.53-1.17.63-2.41,1.06-3.65,1.53-1.06.41-2.1.85-2.99,1.58-1.26,1.03-1.98,2.38-2.2,3.98-.28,1.96.23,3.71,1.51,5.22,1.07,1.26,2.44,2,4.09,2.23,2.67.39,5.36-.96,6.66-3.33.54-.99.84-2.04.82-3.16-.01-.64-.12-1.27-.2-1.9-.19-1.48-.25-2.96.15-4.42.31-1.17.88-2.2,1.67-3.11.17-.2.35-.38.53-.58.08-.1.16-.11.26-.02.25.22.51.44.76.66.1.08.1.15.02.25-.36.43-.74.85-1.06,1.31-.67.96-.98,2.04-1.06,3.21-.09,1.22.11,2.41.26,3.61.22,1.7-.1,3.32-.93,4.81-1.14,2.03-2.85,3.35-5.12,3.88-2.53.6-4.85.06-6.87-1.58-1.73-1.4-2.69-3.24-2.88-5.46-.21-2.35.52-4.39,2.12-6.12.74-.8,1.65-1.37,2.65-1.79,1.01-.43,2.04-.82,3.06-1.22,1.78-.69,3.4-1.62,4.71-3.03.41-.43.76-.92,1.14-1.38.08-.09.15-.19.24-.32Z"/>
        <path class="cls-1" d="M23.49,27.85c-.05-.07-.09-.1-.12-.15-.21-.35-.42-.71-.63-1.07-.07-.12-.07-.22-.01-.35.94-2.03,1.88-4.06,2.82-6.1,1.46-3.17,2.93-6.34,4.38-9.51.73-1.59,1.25-3.26,1.5-5,.13-.9.18-1.8.09-2.73-3.76,6.43-7.52,12.86-11.3,19.33-.06-.08-.11-.14-.14-.2-.19-.33-.38-.65-.57-.98-.07-.12-.07-.22,0-.34,1.78-3.03,3.55-6.07,5.33-9.11,2.16-3.69,4.31-7.38,6.47-11.07.05-.08.1-.17.15-.25.18-.27.44-.39.74-.32.3.07.49.27.53.56.08.55.17,1.1.2,1.66.2,2.99-.37,5.86-1.57,8.59-.84,1.92-1.74,3.81-2.62,5.71-1.1,2.38-2.19,4.77-3.29,7.15-.61,1.31-1.22,2.61-1.83,3.92-.03.07-.08.14-.13.23Z"/>
        <path class="cls-1" d="M2.63,43.4c-.02-2.87,2.38-5.32,5.39-5.3,2.89.02,5.26,2.41,5.27,5.32,0,2.94-2.38,5.32-5.29,5.34-2.96.02-5.4-2.4-5.36-5.36ZM4,43.43c.02,2.22,1.78,3.97,3.98,3.96,2.2-.02,3.95-1.8,3.93-4.01-.02-2.14-1.81-3.91-3.96-3.9-2.19.01-3.96,1.79-3.95,3.95Z"/>
        <path class="cls-1" d="M29.49,48.76c-2.82,0-5.32-2.22-5.32-5.3,0-3.11,2.46-5.3,5.23-5.35,2.95-.05,5.41,2.29,5.43,5.28.02,3.11-2.5,5.4-5.34,5.37ZM25.56,43.45c0,2.2,1.76,3.94,3.97,3.94,2.2,0,3.96-1.79,3.92-4.05-.04-2.15-1.78-3.86-3.97-3.86-2.17,0-3.92,1.77-3.92,3.97Z"/>
        <path class="cls-1" d="M18.74,30.09c-.91,0-1.63-.7-1.63-1.61,0-.88.73-1.61,1.62-1.62.89,0,1.61.71,1.61,1.61,0,.91-.7,1.61-1.6,1.62ZM18.67,28.72c.21-.03.31-.12.27-.25-.02-.09-.14-.2-.22-.21-.13-.02-.24.1-.22.23.02.09.12.17.17.23Z"/>
      </g>
    </g>
  </g>
</svg>