<?xml version="1.0" encoding="UTF-8"?>
<svg id="Capa_2" data-name="Capa 2" xmlns="http://www.w3.org/2000/svg" viewBox="0 0 43.09 43.08">
  <defs>
    <style>
      .cls-1 {
        fill: #319393;
        stroke-width: 0px;
      }
    </style>
  </defs>
  <g id="Capa_1-2" data-name="Capa 1">
    <g>
      <g>
        <path class="cls-1" d="M22.54,42.95c-6.32,0-12.65,0-18.97,0-.17,0-.34,0-.52,0-.83-.02-.98-.15-.94-.97.13-2.51-.33-4.96-.76-7.42C.31,28.47-.24,22.33.41,16.15c.4-3.74,1.06-7.44,1.54-11.17.15-1.17.13-2.36.15-3.54.02-1.26.05-1.31,1.31-1.31,9.18,0,18.35,0,27.53,0,.22,0,.45,0,.67,0,.44.01.68.23.65.68-.19,3.25.57,6.39,1.06,9.55.99,6.33,1.22,12.68.4,19.05,0,.03,0,.07-.01.1-.15,1.32-.15,1.31,1.09,1.78,1.48.56,2.34,1.64,2.58,3.2.07.46.24.73.69.91,1.23.5,2.01,1.42,2.32,2.7.11.45.32.75.73.98,1.05.6,1.63,1.55,1.81,2.74.13.83-.1,1.1-.95,1.1-6.48,0-12.95,0-19.43,0h0ZM32.63,28.71c.1-1.31.26-2.7.31-4.11.13-3.75,0-7.49-.43-11.22-.29-2.55-.8-5.08-1.19-7.63-.08-.54-.35-.65-.87-.65-8.62.02-17.25,0-25.87,0-1.61,0-1.3-.13-1.57,1.28-.71,3.73-1.24,7.49-1.49,11.28-.44,6.64.37,13.17,1.58,19.67.08.46.29.63.76.63,4.71-.01,9.41,0,14.12,0,.43,0,.69-.12.87-.55.37-.91,1.02-1.61,1.94-1.96.58-.21.76-.56.84-1.12.22-1.56,1.42-2.83,2.94-3.16.48-.1.73-.32.9-.77.73-1.89,2.67-3.03,4.67-2.65.82.15,1.58.58,2.49.93ZM41.61,41.69c-.26-.9-.8-1.47-1.64-1.74-.45-.14-.66-.41-.7-.89-.12-1.5-.85-2.34-2.32-2.71-.76-.19-.8-.25-.77-1.01.08-1.72-1-2.93-2.72-3.03-.69-.04-.78-.11-.92-.79-.31-1.52-1.55-2.57-3.04-2.59-1.48-.02-2.73,1.02-3.08,2.54-.18.77-.2.79-.98.84-1.63.11-2.75,1.35-2.68,2.99.04.86.03.87-.8,1.07-1.33.31-2.11,1.16-2.23,2.49-.06.63-.34,1-.94,1.19-.78.25-1.21.83-1.42,1.68,1.7,0,3.34-.01,4.97,0,.43,0,.65-.15.81-.54.4-.97,1.14-1.58,2.18-1.77.7-.12,1.05.05,1.11.5.05.43-.15.6-.9.73-.63.11-1.03.47-1.12,1.03h17.19ZM3.41,3.82h27.57V1.43H3.41v2.4ZM3.38,41.68h12.48c.54-.87,1.03-1.66,1.49-2.42H3.38v2.42Z"/>
        <path class="cls-1" d="M3.41,43.08c-.12,0-.24,0-.36,0-.44,0-.73-.05-.9-.23-.17-.18-.19-.47-.17-.87.12-2.34-.29-4.68-.68-6.94l-.08-.45C0,27.46-.3,21.59.28,16.13c.24-2.24.58-4.5.9-6.69.22-1.47.45-2.99.64-4.48.12-.94.13-1.91.14-2.85,0-.23,0-.45,0-.68.02-1.33.12-1.43,1.42-1.43h27.54c.22,0,.45.01.67.02.27,0,.47.09.61.23.13.14.19.34.17.58-.15,2.52.29,5.03.71,7.46.12.68.24,1.38.35,2.07,1.05,6.74,1.19,12.99.4,19.09v.1q-.15,1.21.96,1.63l.04.02c1.52.58,2.42,1.69,2.66,3.3.07.44.23.66.61.81,1.27.51,2.07,1.45,2.4,2.79.1.43.3.69.67.9,1.05.6,1.68,1.55,1.87,2.83.07.48.03.77-.14.96-.17.2-.46.28-.94.28-4.98,0-9.96,0-14.95,0H3.49s-.05,0-.08,0ZM3.34.26c-1.09,0-1.09.02-1.11,1.18,0,.22,0,.45,0,.67,0,.95-.02,1.93-.14,2.88-.19,1.5-.42,3.02-.64,4.49-.33,2.19-.66,4.45-.9,6.68-.58,5.44-.27,11.28.95,18.38l.08.45c.39,2.27.8,4.62.68,7-.02.39,0,.58.1.68.09.1.29.14.71.15.14,0,.29,0,.43,0h23.53c4.98,0,9.96,0,14.95,0,.4,0,.63-.06.75-.19.11-.13.14-.37.08-.76-.18-1.2-.77-2.09-1.74-2.64-.44-.25-.67-.57-.8-1.06-.3-1.26-1.06-2.14-2.24-2.61-.46-.19-.68-.48-.76-1.01-.23-1.51-1.07-2.56-2.49-3.1l-.04-.02c-1.26-.48-1.29-.53-1.13-1.9v-.08c.79-6.1.66-12.32-.39-19.04-.11-.69-.23-1.39-.35-2.07-.43-2.44-.87-4.96-.72-7.51.01-.17-.03-.3-.1-.39-.09-.09-.23-.14-.43-.15-.22,0-.44,0-.67,0H3.41s-.04,0-.07,0ZM22.36,41.86h-.02c-1.18-.01-2.34-.01-3.58,0-.46,0-.92,0-1.39,0h-.17l.04-.16c.24-.94.73-1.52,1.51-1.77.55-.18.8-.49.85-1.08.12-1.37.93-2.27,2.33-2.6q.74-.17.71-.93c-.07-1.7,1.1-3.01,2.8-3.12q.7-.05.86-.74c.36-1.57,1.68-2.67,3.21-2.64,1.56.02,2.83,1.1,3.16,2.69.13.62.16.65.8.69,1.79.11,2.93,1.38,2.84,3.17q-.03.7.67.88c1.53.38,2.29,1.28,2.41,2.82.03.43.2.65.61.78.89.28,1.46.88,1.73,1.82l.05.16h-17.51l.03-.15c.1-.61.54-1.02,1.23-1.14.76-.14.83-.29.79-.59-.02-.15-.07-.25-.16-.32-.15-.11-.42-.14-.8-.07-.99.18-1.69.74-2.08,1.69-.18.44-.45.62-.91.62ZM20.11,41.59c.75,0,1.49,0,2.23.01.37,0,.54-.11.69-.46.43-1.03,1.2-1.65,2.28-1.84.45-.08.78-.04.99.12.15.11.24.28.27.49.07.57-.3.75-1,.88-.52.09-.86.36-.98.78h16.85c-.26-.76-.76-1.25-1.51-1.48-.5-.16-.75-.47-.79-1-.11-1.43-.8-2.23-2.22-2.59-.82-.21-.9-.31-.86-1.14.08-1.66-.94-2.8-2.6-2.9-.75-.04-.88-.16-1.04-.89-.3-1.47-1.48-2.47-2.91-2.49-1.41-.03-2.62.99-2.95,2.44-.19.83-.25.89-1.1.94-1.57.1-2.62,1.28-2.56,2.86.04.93,0,.98-.9,1.2-1.28.3-2.02,1.12-2.13,2.37-.06.69-.38,1.1-1.03,1.3-.65.21-1.07.66-1.29,1.43.41,0,.82,0,1.22,0,.46,0,.91,0,1.35,0ZM15.94,41.81H3.25v-2.67h14.33l-1.65,2.67ZM3.51,41.55h12.28l1.34-2.16H3.51v2.16ZM17.98,38.11h0c-5.03-.01-9.65-.02-14.12,0h0c-.53,0-.78-.21-.88-.73-1.47-7.9-1.96-13.98-1.59-19.7.23-3.55.72-7.25,1.49-11.3.04-.21.07-.39.09-.54.13-.84.21-.86,1.23-.85.11,0,.23,0,.37,0h5.99c6.52,0,13.26,0,19.89,0h0c.54,0,.89.13.99.76.14.88.29,1.78.44,2.65.28,1.63.57,3.31.76,4.98.42,3.68.57,7.46.43,11.24-.03.97-.12,1.94-.2,2.88-.04.42-.07.83-.1,1.23v.17s-.17-.06-.17-.06c-.3-.11-.58-.23-.85-.35-.56-.24-1.08-.47-1.62-.57-1.9-.36-3.81.72-4.52,2.57-.19.5-.48.75-1,.85-1.48.31-2.62,1.54-2.84,3.05-.08.58-.27.98-.92,1.23-.85.31-1.5.96-1.87,1.88-.18.44-.46.63-.98.63ZM9.64,37.84c2.67,0,5.44,0,8.33.01h0c.41,0,.6-.12.74-.47.4-.99,1.1-1.69,2.02-2.03.54-.2.68-.51.76-1.02.23-1.62,1.46-2.93,3.04-3.26.43-.09.65-.27.81-.7.76-1.96,2.78-3.11,4.81-2.73.57.11,1.11.34,1.68.59.22.09.44.19.68.29.03-.35.06-.7.09-1.06.08-.93.17-1.9.2-2.86.13-3.76-.01-7.53-.43-11.2-.19-1.66-.48-3.34-.76-4.97-.15-.87-.3-1.77-.44-2.65-.07-.42-.22-.54-.73-.54h0c-6.63.01-13.37,0-19.89,0h-5.99c-.14,0-.26,0-.37,0q-.88,0-.98.63c-.02.15-.05.33-.09.55-.77,4.04-1.25,7.72-1.49,11.27-.38,5.7.11,11.76,1.58,19.64.07.39.23.52.63.52h0c1.9,0,3.82,0,5.79,0ZM31.1,3.95H3.28V1.3h27.82v2.65ZM3.54,3.69h27.31V1.55H3.54v2.14Z"/>
      </g>
      <g>
        <path class="cls-1" d="M26.32,21.52c.04,5.34-4.29,9.67-9.69,9.71-5.26.04-9.64-4.3-9.67-9.57-.03-5.43,4.22-9.76,9.63-9.82,5.32-.06,9.69,4.29,9.73,9.68ZM16.6,29.99c4.71,0,8.51-3.81,8.48-8.5-.02-4.65-3.85-8.43-8.52-8.41-4.58.02-8.37,3.85-8.36,8.45.01,4.67,3.78,8.46,8.4,8.46Z"/>
        <path class="cls-1" d="M16.56,31.36c-2.55,0-4.96-1-6.8-2.82-1.87-1.84-2.91-4.29-2.92-6.87-.03-5.52,4.25-9.89,9.75-9.95,2.58-.02,5.03.96,6.89,2.79,1.89,1.86,2.95,4.35,2.97,7.01h0c.04,5.38-4.37,9.8-9.82,9.84-.02,0-.05,0-.07,0ZM16.69,11.97s-.07,0-.1,0c-5.36.06-9.53,4.31-9.5,9.69.01,2.52,1.02,4.89,2.84,6.69,1.8,1.77,4.15,2.75,6.62,2.75.02,0,.05,0,.07,0,5.31-.04,9.6-4.34,9.56-9.58h0c-.02-2.59-1.04-5.02-2.89-6.83-1.79-1.76-4.13-2.72-6.61-2.72ZM16.59,30.12c-4.69,0-8.51-3.85-8.52-8.58-.01-4.71,3.8-8.56,8.49-8.58h.03c4.73,0,8.59,3.82,8.62,8.54.01,2.29-.87,4.45-2.49,6.08-1.63,1.64-3.8,2.54-6.12,2.55h-.01ZM16.6,13.21h-.03c-4.55.02-8.25,3.75-8.24,8.32.01,4.6,3.72,8.33,8.26,8.33h.01c2.25,0,4.36-.88,5.94-2.47,1.57-1.58,2.43-3.67,2.42-5.9-.02-4.58-3.77-8.29-8.36-8.29Z"/>
      </g>
      <g>
        <path class="cls-1" d="M29.13,33.36c.25,0,.59.1.63.57.04.43-.24.62-.62.66-.87.1-1.36.58-1.5,1.44-.06.4-.21.75-.71.71-.39-.03-.56-.37-.51-.92.13-1.32,1.29-2.44,2.71-2.46Z"/>
        <path class="cls-1" d="M27.01,36.87s-.06,0-.09,0c-.18-.02-.34-.09-.45-.23-.15-.19-.21-.47-.18-.83.14-1.42,1.39-2.55,2.83-2.57h0c.44,0,.72.26.75.68.04.46-.22.74-.74.8-.8.09-1.26.53-1.38,1.33-.04.23-.13.82-.75.82ZM29.13,33.49c-1.32.02-2.45,1.05-2.58,2.34-.03.29.01.51.12.64.07.08.15.12.27.13.34.03.5-.13.57-.6.14-.92.69-1.44,1.61-1.55.49-.06.53-.33.51-.53-.03-.3-.19-.45-.5-.45Z"/>
      </g>
      <g>
        <path class="cls-1" d="M35.56,38.88c0,.37-.05.71-.5.77-.49.07-.68-.23-.74-.66-.11-.86-.6-1.31-1.44-1.42-.4-.05-.7-.24-.65-.7.06-.47.41-.54.8-.53,1.28.03,2.52,1.28,2.52,2.54Z"/>
        <path class="cls-1" d="M34.93,39.79c-.17,0-.31-.04-.43-.13-.17-.13-.27-.34-.31-.65-.1-.78-.53-1.21-1.33-1.31-.55-.07-.82-.37-.76-.84.08-.66.7-.65.93-.64,1.36.03,2.65,1.33,2.65,2.67,0,.26,0,.81-.61.9-.05,0-.1.01-.15.01ZM32.98,36.47c-.41,0-.58.12-.62.42-.02.21,0,.49.54.56.92.12,1.44.64,1.55,1.53.03.23.1.39.21.48.09.07.22.09.38.07.29-.04.39-.2.39-.64h0c0-1.19-1.19-2.39-2.4-2.41-.02,0-.04,0-.06,0Z"/>
      </g>
      <g>
        <path class="cls-1" d="M17.34,22.5c.32-.24.62-.49.94-.71.74-.5,1.57-.77,2.47-.8.68-.03.9.21.86.89-.11,2.08-1.53,3.85-3.56,4.46-.79.23-.78.23-.79,1.08,0,.22.04.48-.06.66-.12.21-.34.43-.56.48-.32.07-.56-.16-.59-.5-.04-.34-.06-.69-.03-1.03.04-.39-.12-.52-.49-.61-2-.52-3.29-1.78-3.75-3.82-.34-1.5,0-1.84,1.51-1.52.5.11.99.31,1.43.55.43.23.8.57,1.23.88.14-.55.05-1.02-.29-1.49-1.29-1.81-1.21-4.22.18-5.94.63-.78.97-.78,1.61,0,1.35,1.67,1.44,4,.21,5.86-.4.61-.46.9-.32,1.55ZM16.65,20.17c.87-1.16.82-3.23-.05-3.94-.83,1.14-.82,2.93.05,3.94ZM15.84,25.16c-.07-1.32-1.58-2.79-2.77-2.73.14,1.31,1.45,2.61,2.77,2.73ZM17.41,25.16c1.34-.05,2.93-1.71,2.71-2.79-1.36.25-2.52,1.42-2.71,2.79Z"/>
        <path class="cls-1" d="M16.53,28.7c-.12,0-.23-.04-.33-.1-.15-.11-.25-.3-.28-.52-.03-.29-.06-.67-.03-1.05.03-.29-.05-.39-.39-.48-2.09-.54-3.38-1.86-3.85-3.91-.19-.85-.17-1.3.09-1.56.26-.26.71-.29,1.57-.11.47.1.96.29,1.47.56.31.16.58.37.86.6.07.06.14.11.22.17.07-.43-.03-.81-.31-1.19-1.33-1.86-1.25-4.31.18-6.1.36-.45.62-.63.9-.63h0c.28,0,.54.19.91.64,1.4,1.73,1.49,4.09.22,6.01-.34.51-.42.77-.34,1.25.04-.03.09-.07.13-.1.21-.16.43-.34.65-.49.75-.51,1.6-.79,2.53-.82.38-.02.63.05.79.22.16.17.23.42.21.81-.11,2.12-1.58,3.96-3.65,4.57q-.69.21-.7.95c0,.06,0,.11,0,.16,0,.2.01.4-.08.57-.13.23-.38.48-.64.54-.05.01-.09.02-.14.02ZM12.44,21.11c-.25,0-.41.05-.51.15-.18.18-.19.59-.02,1.32.44,1.95,1.67,3.2,3.66,3.72.39.1.63.26.58.75-.03.36,0,.72.03,1,.02.15.08.27.17.34.07.05.17.07.27.05.18-.04.38-.25.47-.42.06-.1.05-.27.05-.43,0-.06,0-.11,0-.16,0-.9.05-.96.88-1.2,1.97-.58,3.36-2.33,3.47-4.34.02-.31-.03-.51-.13-.62-.11-.11-.3-.15-.6-.14-.88.03-1.69.3-2.4.78-.22.15-.42.31-.64.48-.1.08-.2.15-.3.23l-.16.12-.04-.2c-.15-.69-.08-1.01.34-1.65,1.2-1.83,1.13-4.07-.2-5.71-.31-.38-.53-.55-.71-.55h0c-.19,0-.4.17-.7.54-1.36,1.7-1.43,4.02-.17,5.79.36.5.46,1.01.31,1.6l-.05.18-.15-.11c-.13-.1-.26-.19-.38-.29-.28-.22-.54-.42-.83-.57-.48-.26-.96-.44-1.4-.53-.34-.07-.61-.11-.82-.11ZM15.97,25.3h-.15c-1.36-.14-2.73-1.49-2.88-2.86v-.14s.12,0,.12,0c1.26-.07,2.83,1.48,2.9,2.85v.15ZM13.22,22.56c.2,1.15,1.33,2.27,2.47,2.46-.16-1.14-1.43-2.4-2.47-2.46ZM17.26,25.29l.02-.15c.2-1.42,1.38-2.64,2.81-2.9l.12-.02.03.12c.09.45-.1,1.03-.54,1.59-.51.65-1.41,1.32-2.29,1.36h-.15ZM20.01,22.52c-1.2.28-2.21,1.31-2.44,2.49.66-.09,1.42-.57,1.94-1.24.35-.44.53-.89.51-1.25ZM16.66,20.38l-.1-.12c-.9-1.04-.92-2.92-.06-4.1l.08-.11.11.09c.93.76.97,2.92.08,4.12l-.1.13ZM16.62,16.43c-.68,1.05-.67,2.59.02,3.53.68-1.06.67-2.81-.02-3.53Z"/>
      </g>
    </g>
  </g>
</svg>