<?xml version="1.0" encoding="UTF-8"?>
<svg id="Capa_2" data-name="Capa 2" xmlns="http://www.w3.org/2000/svg" viewBox="0 0 50.29 44.14">
  <defs>
    <style>
      .cls-1 {
        fill: #319393;
        stroke-width: 0px;
      }
    </style>
  </defs>
  <g id="Capa_1-2" data-name="Capa 1">
    <g id="Etd8Du">
      <g>
        <path class="cls-1" d="M25.16,0C32.66,0,40.16,0,47.66.02c.42,0,.87.27,1.26.5.66.38,1.03,1.03,1.34,1.7.04.08.03.18.03.28,0,13.03,0,26.05,0,39.08,0,.55-.34.99-.66,1.39-.59.74-1.35,1.11-2.32,1.11-3.02,0-6.03.05-9.05.05-11,0-22,0-33-.02-.8,0-1.59-.05-2.39-.05-1.04,0-1.79-.51-2.36-1.33C.17,42.28,0,41.76,0,41.14.02,28.36.01,15.57,0,2.79c0-.36.07-.67.25-.99.35-.63.8-1.17,1.46-1.47.32-.15.7-.27,1.05-.27,7.47-.02,14.94-.01,22.41-.01V0ZM25.17,2.11c-7.34,0-14.69,0-22.03,0-.66,0-1.07.41-1.07,1.08-.01,8.86-.03,17.71-.03,26.57,0,3.73.03,7.46.06,11.19,0,.73.27,1.03,1,1.05,1.96.05,3.92.09,5.87.09,11.06,0,22.12,0,33.18,0,1.74,0,3.48-.05,5.21-.1.5-.01.81-.34.83-.85.02-.43.03-.86.03-1.29,0-12.24,0-24.48,0-36.71,0-.6-.43-1.02-1.03-1.02-7.34,0-14.69,0-22.03,0Z"/>
        <path class="cls-1" d="M4.25,22.06c-.31-8.97,7.39-17.72,17.52-17.86,9.75-.13,17.96,7.92,18.06,17.7.09,9.91-8.06,18.14-17.96,18.03-10.62-.11-17.97-9.17-17.61-17.87ZM21.99,37.78c7.63.31,15.69-6.17,15.74-15.69.04-8.28-6.65-15.83-15.81-15.81-8.51.02-15.66,7.02-15.64,15.79.02,9.69,8.3,16.05,15.72,15.71Z"/>
        <path class="cls-1" d="M39.99,37.89c1.72,0,3.43,0,5.15,0,.43,0,.8.3.93.76.12.4-.02.86-.38,1.08-.2.12-.45.2-.68.21-1,.04-2.01.05-3.01.05-2.49,0-4.98-.02-7.47-.03-.4,0-.92-.5-.96-.92-.05-.52.31-1.06.81-1.11.54-.05,1.09-.06,1.63-.07,1.33,0,2.66,0,3.99,0v.03Z"/>
        <path class="cls-1" d="M24.64,30.76c0-.8.04-1.6-.02-2.39-.03-.39-.2-.78-.34-1.16-.08-.21-.26-.25-.49-.2-.68.12-1.36.22-2.04.28-.23.02-.41.08-.58.24-1.3,1.2-2.61,2.39-4.08,3.4-.97.67-1.99,1.12-3.21.85-.96-.21-1.72-.74-2.4-1.42-1.78-1.77-2.74-3.97-3.23-6.39-.24-1.15-.39-2.3-.18-3.47.07-.39.2-.78.38-1.13.45-.87,1.3-1.21,2.2-.82.68.29,1.31.7,1.95,1.08.75.44,1.47.94,2.23,1.36.43.24.92.39,1.4.53.34.1.49-.03.62-.36.27-.7.57-1.39.83-2.1.06-.15.06-.35.02-.51-.35-1.55-.73-3.09-.8-4.68-.03-.63-.02-1.26-.03-1.89,0-.56.24-1.03.56-1.47.77-1.06,1.86-1.64,3.11-1.85.84-.14,1.71-.14,2.56-.16,2.31-.04,4.47.52,6.44,1.71.53.32,1.02.75,1.42,1.22.76.89.64,1.88-.31,2.57-.72.52-1.52.92-2.29,1.37-.8.47-1.62.92-2.4,1.42-.29.19-.48.51-.71.78-.11.13-.1.25.04.38.58.55,1.09,1.16,1.48,1.87.06.11.22.19.34.23,1.55.57,3.12,1.1,4.66,1.7.82.32,1.58.78,2.15,1.49.39.49.6,1.04.69,1.66.22,1.55-.25,2.94-.96,4.26-1.32,2.45-3.2,4.37-5.68,5.66-.35.18-.74.29-1.13.36-1.17.21-2-.35-2.16-1.53-.1-.7-.05-1.42-.06-2.14,0-.25,0-.5,0-.76.01,0,.03,0,.04,0ZM19.13,26.61c-.02-.05-.03-.07-.04-.09-.04-.05-.08-.1-.13-.14-.82-.73-1.52-1.53-1.9-2.58-.07-.2-.23-.19-.39-.18-.81.03-1.59-.14-2.3-.53-.98-.54-1.93-1.13-2.89-1.71-.45-.27-.88-.55-1.41-.87-.03.39-.08.69-.06.98.1,1.5.38,2.96.95,4.35.52,1.27,1.27,2.39,2.29,3.31.79.71,1.44.79,2.34.23.57-.35,1.11-.76,1.63-1.17.65-.52,1.28-1.07,1.91-1.61ZM19.55,17.42c1.06-.53,2.13-.66,3.22-.53.36.04.55-.05.68-.4.08-.23.24-.45.43-.61.56-.49,1.11-1,1.73-1.39.98-.61,2.02-1.12,3.03-1.67.18-.1.35-.22.6-.38-.25-.17-.43-.33-.63-.43-2.13-1.14-4.41-1.61-6.82-1.45-.72.05-1.4.24-2.03.62-.58.35-.93.84-.87,1.55.06.65.09,1.3.19,1.94.13.9.31,1.8.49,2.75ZM27.27,22.34c-.02.09-.04.13-.04.17-.16,1.11-.55,2.13-1.25,3.01-.05.07-.04.24.01.33.55.88.76,1.84.75,2.85,0,1.28-.06,2.56-.08,3.84,0,.18.08.35.12.53.17-.06.36-.09.51-.18,1.31-.81,2.46-1.82,3.42-3.02.83-1.02,1.44-2.17,1.74-3.45.31-1.32,0-2.02-1.19-2.55-1.16-.53-2.37-.95-3.55-1.42-.13-.05-.28-.07-.45-.1ZM18.91,22.04c-.15,1.84,1.57,3.19,3,3.17,1.82-.02,3.21-1.33,3.21-3.08,0-1.79-1.37-3.19-3.11-3.21-1.6-.02-3.25,1.45-3.1,3.12Z"/>
        <path class="cls-1" d="M22,24.14c-1.19,0-2.05-.89-2.06-2.14,0-1.05.97-2,2.06-2,1.11,0,2.06.94,2.07,2.03,0,1.21-.88,2.11-2.06,2.12Z"/>
      </g>
    </g>
  </g>
</svg>