<?xml version="1.0" encoding="UTF-8"?>
<svg id="Capa_2" data-name="Capa 2" xmlns="http://www.w3.org/2000/svg" viewBox="0 0 57.6 58.37">
  <defs>
    <style>
      .cls-1 {
        fill: #319393;
        stroke-width: 0px;
      }
    </style>
  </defs>
  <g id="Capa_1-2" data-name="Capa 1">
    <g id="_29CJ3X" data-name="29CJ3X">
      <g>
        <path class="cls-1" d="M12.86,32.47c-.85.86-1.57,1.59-2.29,2.31-.89.89-1.75,1.8-2.68,2.65-.3.27-.76.47-1.16.49-1.11.06-2.23.02-3.34.02-.88,0-1.22-.34-1.22-1.21,0-1.09.02-2.19-.01-3.28-.02-.55.18-.95.56-1.34,6.9-6.88,13.79-13.78,20.68-20.67.23-.23.49-.42.84-.7-.76-.74-1.43-1.38-2.09-2.03-.72-.71-.72-1.14-.01-1.85.84-.85,1.68-1.7,2.54-2.54.59-.58,1.09-.58,1.68,0,.68.67,1.33,1.35,2.05,2.08.2-.19.35-.33.51-.48,1.62-1.62,3.23-3.25,4.86-4.85,1.16-1.13,2.73-1.38,4.16-.73,1.38.63,2.25,2.04,2.17,3.57-.05,1.02-.49,1.86-1.21,2.58-1.57,1.56-3.13,3.12-4.69,4.68-.15.15-.3.32-.5.53.69.68,1.35,1.32,2.01,1.98.68.69.69,1.13.01,1.81-.84.85-1.69,1.7-2.54,2.54-.63.62-1.09.63-1.72,0-.67-.67-1.33-1.36-1.96-2.01-1.81,1.82-3.56,3.59-5.31,5.35.07,0,.24.03.4.03,1.82,0,3.65,0,5.47,0,.96,0,1.28.32,1.29,1.27,0,1.5,0,2.99,0,4.56h3.86v1.96c-.59,0-1.19,0-1.79,0-.91,0-1.82,0-2.74,0-.96,0-1.27-.32-1.28-1.27,0-.2,0-.4,0-.66h-1.92v-1.93h1.88v-1.97c-.17,0-.36,0-.56,0-2.09,0-4.17,0-6.26,0-.76,0-.93.17-.93.92,0,.32,0,.64,0,1h4.82v1.95h-4.82c0,.32,0,.58,0,.84-.02.76-.37,1.12-1.13,1.12-1.28.01-2.55-.02-3.83.02-.28,0-.59.18-.84.35-.84.57-1.05,1.36-1.04,2.38.05,7.7.03,15.4.03,23.1,0,1.11.29,1.39,1.41,1.39,6.18,0,12.36,0,18.54,0,.75,0,1.33-.14,1.49-.96h1.85c.12,1.55-1.22,2.89-2.92,2.89-3.63.01-7.25,0-10.88,0-2.67,0-5.35,0-8.02,0-2.29,0-3.41-1.11-3.41-3.38,0-7.25,0-14.51,0-21.76,0-.18,0-.36,0-.76ZM4.1,36c.62,0,1.18-.03,1.74,0,.52.04.89-.13,1.27-.51,6.81-6.82,13.63-13.63,20.44-20.45.14-.14.27-.29.38-.41-.84-.84-1.65-1.64-2.49-2.48-.05.05-.15.12-.23.2-6.94,6.94-13.89,13.89-20.83,20.84-.13.13-.27.33-.27.5-.03.74-.01,1.49-.01,2.29ZM33.86,14.56c-.69-.67-1.35-1.3-1.99-1.94-.73-.73-.73-1.14.02-1.89,1.86-1.86,3.72-3.73,5.59-5.59.44-.44.7-.95.62-1.57-.09-.72-.49-1.24-1.19-1.48-.72-.25-1.36-.05-1.89.48-1.89,1.89-3.78,3.78-5.67,5.67-.71.71-1.14.72-1.85.01-.65-.66-1.3-1.32-1.88-1.9-.56.55-1.06,1.03-1.44,1.4,2.73,2.73,5.49,5.49,8.22,8.22.41-.4.89-.86,1.46-1.41ZM19.63,25.96c-.39.41-.83.87-1.19,1.26h1.19v-1.26Z"/>
        <path class="cls-1" d="M29.78,42.28c-.72-1.3-1.41-2.42-1.99-3.59-1.39-2.8-2.2-5.78-2.43-8.9-.08-1.07.5-1.52,1.5-1.15,3.17,1.16,5.82,3.07,7.94,5.7.1.13.2.25.37.46.08-.48.16-.88.22-1.28.4-2.39,1.61-4.37,3.26-6.06,1.61-1.65,3.34-3.18,5.04-4.74.65-.59,1.4-.43,1.67.33,1.1,3.18,2.03,6.41,2.13,9.81.05,1.66-.42,3.2-1.08,4.69-.05.1-.08.22-.12.33,1.16-.29,2.27-.62,3.41-.84,2.27-.44,4.55-.37,6.82.11,1.15.24,1.39.99.64,1.88-2.76,3.27-6.09,5.79-9.99,7.56-.2.09-.4.19-.75.35,1.78.8,3.45,1.55,5.12,2.3.24.11.55.12.73.28.27.23.61.56.63.86.01.3-.27.79-.54.9-2.71,1.11-5.47,2.03-8.48,1.41-.15-.03-.31-.02-.52-.04.08.17.14.3.18.43.3.82-.17,1.68-1.03,1.65-.7-.03-1.47-.21-2.05-.58-.89-.57-1.64-1.36-2.45-2.07-.19-.17-.36-.38-.6-.63-.31,1.04-.59,2.01-.89,3.03-.62-.18-1.21-.35-1.85-.54.28-1,.55-1.96.84-3.01-.9.2-1.69.47-2.5.54-.88.08-1.77.02-2.65-.04-.28-.02-.58-.19-.82-.36-.91-.63-.79-1.55.32-2.32-.18-.09-.33-.17-.48-.23-2.87-1.09-4.75-3.31-6.44-5.71-.17-.24-.11-.76.03-1.06.2-.43.66-.45,1.12-.37,1.85.31,3.71.59,5.67.89ZM49.11,50.38c-.19-.11-.29-.18-.39-.23-1.84-.79-3.67-1.59-5.52-2.36-.48-.2-.81-.49-.78-1.03.03-.5.35-.8.84-.91,3.64-.85,6.73-2.73,9.51-5.15.65-.56,1.25-1.18,1.96-1.85-1.48,0-2.82-.12-4.13.03-2.33.25-4.46,1.13-6.41,2.42-.59.39-1.05.37-1.43-.02-.36-.38-.34-.86.06-1.43.25-.37.53-.72.75-1.11,1.11-1.95,2.14-3.95,1.96-6.27-.11-1.47-.41-2.92-.7-4.37-.2-1.02-.53-2.01-.84-3.13-.89.82-1.71,1.52-2.46,2.29-.87.9-1.7,1.85-2.51,2.8-.77.91-1.23,1.98-1.51,3.14-.4,1.69-.56,3.39-.41,5.12.05.55-.15.97-.72,1.11-.56.15-.93-.12-1.17-.62-.04-.09-.09-.18-.13-.28-.95-2.05-2.29-3.81-4.02-5.27-1.08-.91-2.24-1.68-3.63-2.26.78,4.45,2.27,8.45,5.4,11.69.4.42.75.85.4,1.44-.35.59-.88.48-1.45.38-1.82-.3-3.66-.55-5.49-.82-.02.06-.04.11-.06.17.84.99,1.81,1.83,2.97,2.43,1.21.63,2.51,1,3.88,1.14,1.11.11,1.44.74.91,1.71,0,.02.03.06.06.11.79-.21,1.6-.4,2.39-.64.58-.18,1.01-.04,1.41.4.57.64,1.17,1.26,1.83,1.97-.11-.66.02-1.16.55-1.31.32-.09.76,0,1.09.15,2.49,1.15,5.03,1.46,7.78.54Z"/>
        <path class="cls-1" d="M18.74,52.55h10.63v1.9c-.19,0-.39.03-.58.03-3.57,0-7.13,0-10.7,0-1.03,0-1.34-.3-1.34-1.34,0-6.56,0-13.13,0-19.69,0-1.04.3-1.34,1.33-1.34,1.8,0,3.6,0,5.44,0v1.93h-4.78v18.51Z"/>
        <path class="cls-1" d="M3.15,49.61c-2.39,0-3.55-1.58-3.02-4.17.37-1.8,1.16-3.44,2.12-4.99.44-.72,1.3-.74,1.74-.03,1.09,1.78,2.02,3.64,2.25,5.77.23,2.07-1,3.43-3.08,3.43ZM3.19,43.02c-.09,0-.19-.02-.28-.03-.33,1.18-.72,2.34-.96,3.54-.16.79.28,1.13,1.17,1.14.89,0,1.26-.31,1.2-1.12-.09-1.26-.58-2.41-1.13-3.52Z"/>
      </g>
    </g>
  </g>
</svg>