<?xml version="1.0" encoding="UTF-8"?>
<svg id="Capa_2" data-name="Capa 2" xmlns="http://www.w3.org/2000/svg" viewBox="0 0 35.14 42.18">
  <defs>
    <style>
      .cls-1 {
        fill: #319393;
        stroke-width: 0px;
      }
    </style>
  </defs>
  <g id="Capa_1-2" data-name="Capa 1">
    <g>
      <g id="J5xu5j">
        <path class="cls-1" d="M35.14,22.72c0,5.58.02,11.16-.02,16.75,0,1.12-.46,2.09-1.59,2.54-.31.12-.67.15-1.01.16-5.45,0-10.89,0-16.34,0-3.56,0-7.11-.01-10.67,0-1.08,0-1.74-.53-2.28-1.42-.29-.47-.24-.92-.24-1.39,0-8.1,0-16.21,0-24.31,0-.94-.03-1.88-.05-2.81-.64-.64-1.26-1.28-1.91-1.91-.42-.4-.68-.84-.88-1.39-.29-.81-.02-1.52.43-2,1.52-1.66,3.12-3.24,4.76-4.79.97-.92,2.45-.74,3.39.46.06.07.12.13.19.19.46.42.92.83,1.37,1.25.43-.38.89-.72,1.28-1.15.89-.97,1.93-1.73,3.11-2.28C15.42.28,16.23.01,17.09,0c4.19,0,8.37-.02,12.56,0,1.18,0,2.19.53,3.11,1.27,2.2,1.75,2.37,3.08,2.37,5.23v16.21ZM33.25,22.31c0-5.67-.01-11.34,0-17.01,0-1.2-.6-2.13-1.46-2.74-.79-.57-1.77-.94-2.85-.93-3.73.03-7.47.02-11.21.01-1.68,0-3.09.66-4.25,1.8-2.73,2.67-5.4,5.42-8.14,8.09-.55.54-.79,1.06-.78,1.85.03,8.46.02,16.92.02,25.38,0,.27-.01.54,0,.81.03.5.51.96,1.02.99.18.01.36,0,.54,0h25.79c.23,0,.45.03.67,0,.37-.06.64-.25.63-.69,0-.31,0-.63,0-.95v-16.61ZM6.7,3.24c-.08.06-.19.13-.28.22-1.43,1.43-2.86,2.85-4.28,4.29-.36.37-.36.9-.01,1.28.43.46.89.88,1.33,1.34.23.25.41.26.66,0,1.07-1.09,2.16-2.15,3.23-3.24.55-.57,1.06-1.18,1.58-1.77-.65-.67-1.29-1.35-1.95-2.02-.05-.05-.15-.06-.27-.1Z"/>
      </g>
      <path class="cls-1" d="M29.07,10.16h-11.75c-1.42,0-2.57-1.15-2.57-2.57v-2.63c0-1.42,1.15-2.57,2.57-2.57h11.75c1.42,0,2.57,1.15,2.57,2.57v2.63c0,1.42-1.15,2.57-2.57,2.57ZM17.32,4.01c-.52,0-.95.42-.95.95v2.63c0,.52.43.95.95.95h11.75c.52,0,.95-.42.95-.95v-2.63c0-.52-.43-.95-.95-.95h-11.75Z"/>
      <path class="cls-1" d="M29.98,35.53H8.36c-1.4,0-2.54-1.14-2.54-2.54v-15.8c0-1.4,1.14-2.54,2.54-2.54h1.76v1.25h-1.76c-.71,0-1.29.58-1.29,1.28v15.8c0,.71.58,1.28,1.29,1.28h21.62c.71,0,1.28-.58,1.28-1.28v-15.8c0-.71-.58-1.28-1.28-1.28h-4.78v-1.25h4.78c1.4,0,2.54,1.14,2.54,2.54v15.8c0,1.4-1.14,2.54-2.54,2.54Z"/>
      <g id="sM8QyU">
        <path class="cls-1" d="M24.12,30.96h-.19l-.14-.06c-.09-.04-.18-.07-.27-.11-.2-.08-.39-.16-.57-.22-.44-.14-.71-.45-.79-.9-.1-.57-.27-1.11-.52-1.59-1.34.11-2.56,0-3.74-.32-1.88-.53-3.45-1.6-4.65-3.18-.86-1.13-1.46-2.36-1.78-3.67-.18-.72-.26-1.51-.25-2.48.01-1.74.36-3.41,1.03-4.99.21-.48.45-.94.68-1.37.1-.19.2-.37.3-.56.05-.09.1-.15.13-.19l.5-.67.84.69c.13.12.27.23.4.34.84.69,1.79,1.23,2.83,1.61,1.5.55,2.87,1.27,4.08,2.13,1.41,1.01,2.43,2.15,3.11,3.47.61,1.17.9,2.44.88,3.77-.03,1.53-.42,2.98-1.17,4.32-.04.07-.08.13-.13.19l-.38.56c.23.65.41,1.36.56,2.17.02.11.02.2.02.25l.02.8h-.8ZM14.23,12.98c-.2.37-.38.72-.53,1.08-.59,1.38-.89,2.86-.9,4.38,0,.83.06,1.5.21,2.09.27,1.1.78,2.14,1.51,3.1.99,1.3,2.28,2.19,3.83,2.62,1.07.3,2.2.38,3.46.24.05,0,.11,0,.14,0-.18-.23-.39-.43-.62-.6-.57-.43-1.02-.79-1.41-1.16-2.11-1.95-3.72-4.41-4.8-7.32-.05-.12-.09-.25-.13-.38l-.94-2.71,2.27,1.78.12.22c.03.06.05.12.08.18.36.87.82,1.73,1.37,2.58,1.23,1.88,2.83,3.58,4.76,5.03.47.36.9.75,1.28,1.2.34-.85.52-1.74.53-2.68.02-1.06-.22-2.08-.7-3.02-.57-1.1-1.43-2.05-2.63-2.92-1.09-.78-2.33-1.44-3.7-1.93-1.16-.42-2.23-1.02-3.17-1.78Z"/>
      </g>
    </g>
  </g>
</svg>