<?xml version="1.0" encoding="UTF-8"?>
<svg id="Capa_2" data-name="Capa 2" xmlns="http://www.w3.org/2000/svg" viewBox="0 0 44.93 44.72">
  <defs>
    <style>
      .cls-1 {
        fill: #319393;
        stroke-width: 0px;
      }
    </style>
  </defs>
  <g id="Capa_1-2" data-name="Capa 1">
    <path class="cls-1" d="M44.26,6.87c-.29-.11-.61-.16-.9-.25-.51-.16-1.02-.34-1.53-.51.51-.19,1.02-.38,1.54-.56.41-.14.85-.21,1.22-.41.18-.1.35-.47.3-.65-.06-.19-.37-.35-.6-.43-.16-.05-.38.06-.56.11-.6.16-1.21.34-1.81.49-.17.04-.37,0-.56-.02.09-.13.17-.26.27-.37.44-.45.89-.89,1.32-1.34.58-.6.66-.87.37-1.19-.32-.36-.64-.27-1.27.34-.48.46-.94.94-1.42,1.41-.07.07-.19.09-.28.13-.01-.11-.06-.23-.04-.34.16-.65.29-1.31.52-1.92.19-.49.08-.9-.08-1.34h-.71c-.31.95-.62,1.9-.93,2.84-.04.12-.13.23-.19.34-.08-.12-.21-.23-.25-.36-.18-.59-.3-1.2-.5-1.78-.12-.36-.32-.69-.48-1.03h-.47c-.31.34-.44.69-.28,1.17.22.67.36,1.36.52,2.05.02.07-.02.21-.04.21-.1,0-.23.01-.29-.05-.48-.46-.94-.94-1.43-1.4-.55-.52-.94-.6-1.21-.29-.25.3-.14.7.36,1.22.71.73,1.44,1.44,2.16,2.17.17.18.34.39.05.57-.1.06-.36-.01-.47-.11-.71-.68-1.39-1.38-2.09-2.07-.22-.22-.46-.45-.73-.57-.16-.06-.46.05-.61.18-.11.09-.17.39-.1.52.14.27.36.51.57.73.68.7,1.39,1.38,2.07,2.09.1.11.18.37.12.47-.17.29-.39.13-.57-.04-.17-.16-.33-.33-.5-.5-.61-.61-1.22-1.22-1.83-1.83-.31-.31-.66-.46-1.05-.19-.3.21-.26.58.11,1.03.17.21.38.39.58.59.58.58,1.17,1.16,1.75,1.75.14.15.42.29.18.57-.25.29-.41.04-.57-.11-.67-.66-1.33-1.33-2-1.99-.19-.19-.4-.37-.62-.54-.25-.19-.57-.21-.73.04-.13.19-.16.53-.08.74.08.24.33.43.52.62.69.7,1.39,1.38,2.07,2.09.09.1.04.33.05.5-.16-.02-.39.01-.48-.08-.63-.59-1.23-1.21-1.84-1.82-.25-.25-.5-.5-.77-.73-.27-.22-.57-.26-.84.02-.28.29-.19.57.02.84.14.18.32.35.48.51.53.53,1.06,1.05,1.58,1.58.76.78.89.65.22,1.32l-2.87-2.87c-.21-.21-.55-.21-.75,0s-.21.55,0,.75l2.87,2.87c-.21.21-.42.43-.64.64l-2.89-2.89c-.21-.21-.55-.21-.75,0s-.21.55,0,.75l2.89,2.89c-.2.2-.4.4-.59.59l-2.94-2.94c-.21-.21-.55-.21-.75,0s-.21.55,0,.75l2.94,2.94c-.19.19-.41.41-.66.65l-3-3c-.21-.21-.55-.21-.75,0s-.21.55,0,.75l3,3c-.2.2-.42.41-.64.63l-3.01-3.01c-.21-.21-.55-.21-.75,0s-.21.55,0,.75l3.01,3.01c-.19.19-.4.39-.6.59,0-.01-.02-.02-.03-.04l-3.02-3.02c-.21-.21-.55-.21-.75,0s-.21.55,0,.75l3.02,3.02s.02.02.03.02c-.23.23-.47.47-.71.7l-3-3c-.21-.21-.55-.21-.75,0s-.21.55,0,.75l2.99,2.99c-.21.21-.43.42-.64.63l-3.01-3.01c-.21-.21-.55-.21-.75,0s-.21.55,0,.75l3,3c-.2.2-.4.39-.6.59,0,0-.01-.02-.02-.03l-3.02-3.02c-.21-.21-.55-.21-.75,0s-.21.55,0,.75l3.02,3.02s.02.01.02.02c-4.5,4.43-9.09,8.96-9.79,9.65-.18.17-.52.43-.64.36-.77-.41-1.17.11-1.61.56-2,2-4.01,3.98-5.98,6-.59.61-1.04,1.35-1.55,2.03v1.18c.05.05.13.09.16.16,1.09,1.98,2.74,2.26,4.39.74.17-.16.33-.33.5-.5,1.33-1.33,2.66-2.66,3.99-3.99.78-.78,1.55-1.55,2.33-2.33.29-.29.59-.62.36-1.03-.28-.49.04-.71.31-.98,1.06-1.06,5.34-5.28,9.83-9.73l2.86,2.86c.1.1.24.16.38.16s.27-.05.38-.16c.21-.21.21-.55,0-.75l-2.85-2.85c.2-.2.4-.39.6-.59l2.9,2.9c.1.1.24.16.38.16s.27-.05.38-.16c.21-.21.21-.55,0-.75l-2.9-2.9c.21-.21.43-.42.64-.63l2.91,2.91c.1.1.24.16.38.16s.27-.05.38-.16c.21-.21.21-.55,0-.75l-2.91-2.91c.24-.24.48-.47.71-.7l2.86,2.86c.1.1.24.16.38.16s.27-.05.38-.16c.21-.21.21-.55,0-.75l-2.85-2.85c.2-.2.4-.4.6-.59l2.9,2.9c.1.1.24.16.38.16s.27-.05.38-.16c.21-.21.21-.55,0-.75l-2.9-2.9c.22-.21.43-.43.64-.63l2.91,2.91c.1.1.24.16.38.16s.27-.05.38-.16c.21-.21.21-.55,0-.75l-2.9-2.9c.23-.22.44-.44.66-.65l2.97,2.97c.1.1.24.16.38.16s.27-.05.38-.16c.21-.21.21-.55,0-.75l-2.97-2.97c.21-.21.41-.4.6-.59l3.02,3.02c.1.1.24.16.38.16s.27-.05.38-.16c.21-.21.21-.55,0-.75l-3.01-3.01c.24-.24.45-.45.64-.63,0,0,0,0,0,0l3.02,3.02c.1.1.24.16.38.16s.27-.05.38-.16c.21-.21.21-.55,0-.75l-3.02-3.02c.06-.06.12-.11.17-.17.2-.21.37-.21.58,0,.65.68,1.32,1.34,1.99,2,.19.19.39.39.6.56.27.22.57.26.84-.02.27-.28.2-.58-.02-.84-.17-.21-.37-.4-.57-.6-.61-.61-1.22-1.22-1.83-1.83-.17-.18-.52-.36-.19-.65.3-.27.48.08.67.25.18.15.33.33.5.5.5.5.99,1.01,1.5,1.5.58.57.99.66,1.29.33.27-.31.19-.62-.38-1.2-.71-.73-1.44-1.44-2.16-2.17-.16-.17-.37-.37-.06-.55.1-.06.36.02.47.12.65.62,1.28,1.27,1.92,1.9.22.22.43.48.7.61.2.1.54.12.73.01.33-.18.27-.55.09-.83-.14-.23-.36-.41-.55-.61-.66-.67-1.34-1.33-1.98-2.01-.1-.11-.17-.39-.1-.49.18-.28.38-.1.56.07.69.7,1.38,1.39,2.08,2.08.19.19.39.41.63.51.18.07.53.04.62-.08.13-.18.2-.52.12-.71-.11-.27-.38-.49-.6-.71-.69-.7-1.39-1.39-2.06-2.09-.07-.07-.08-.31-.02-.38.07-.08.3-.13.39-.07.2.12.35.31.52.47.61.61,1.21,1.23,1.83,1.83.19.18.42.38.67.44.18.04.45-.07.6-.21.1-.1.11-.38.05-.53-.11-.24-.3-.45-.49-.65-.4-.43-.83-.83-1.24-1.26-.08-.08-.11-.2-.17-.3.13-.03.28-.12.4-.1.69.16,1.37.33,2.04.53.45.14.82.06.96-.39.15-.5-.26-.68-.64-.82ZM10,36.5c-2.16,2.16-4.31,4.33-6.48,6.47-.54.53-1.09.6-1.6.33-.57-.31-.81-1.02-.5-1.61.14-.27.36-.51.58-.73,1.99-2,3.98-3.99,5.97-5.98.6-.59.6-.59,1.24.04.28.27.56.55.83.83.08.08.14.18.23.3-.09.12-.18.25-.28.35ZM12.72,32.45c-.61.61-1.21,1.22-1.85,1.81-.1.09-.33.04-.5.05.02-.14,0-.31.07-.42.1-.16.26-.29.4-.43,2.19-2.19,19.22-18.99,21.41-21.17.17-.17.33-.33.52-.46.07-.04.21,0,.31.04.06.02.08.13.14.25-.16.18-.32.39-.51.58-1.72,1.72-18.28,18.04-20,19.76Z"/>
  </g>
</svg>