<?xml version="1.0" encoding="UTF-8"?>
<svg id="Capa_2" data-name="Capa 2" xmlns="http://www.w3.org/2000/svg" viewBox="0 0 20.69 51.23">
  <defs>
    <style>
      .cls-1 {
        fill: #319393;
        stroke-width: 0px;
      }
    </style>
  </defs>
  <g id="Capa_1-2" data-name="Capa 1">
    <g id="XQjuN9">
      <g>
        <path class="cls-1" d="M5.28,23.38v-12.14c-.45-.19-1.01-.26-1.24-.57-.24-.32-.23-.87-.25-1.33-.03-.98-.02-1.97,0-2.95,0-.37.07-.74.12-1.19.63-.07,1.17-.14,1.82-.21.29-1.63.59-3.28.89-4.99h9.32c.28,1.6.56,3.22.85,4.93.41.08.86.16,1.44.28.07.36.19.76.2,1.16.03.98.01,1.97,0,2.95,0,1.49-.02,1.51-1.5,1.89v11.5c.1.07.17.14.24.15,2.28.15,3.52,1.46,3.5,4-.04,6.81-.01,13.62-.02,20.43,0,.47-.03.94-.11,1.4-.26,1.45-1.34,2.48-2.82,2.5-3.64.05-7.28.05-10.92,0-1.73-.02-2.96-1.39-3.02-3.19-.03-1.03,0-2.06,0-3.08,0-6.04.02-12.08-.01-18.12,0-1.37.37-2.52,1.5-3.42ZM5.36,37.14c0,3.43,0,6.86,0,10.28,0,1.75.48,2.25,2.18,2.25,3.13.01,6.26.01,9.38,0,1.71,0,2.21-.51,2.21-2.23,0-6.9,0-13.8,0-20.69,0-1.74-.56-2.29-2.32-2.29-3.04,0-6.08,0-9.13,0-1.81,0-2.32.54-2.33,2.4,0,3.43,0,6.86,0,10.28ZM15.29,14.55c-1.86-.26-7.47-.19-8.33.09v4.76h3.54c0-.73,0-1.36,0-2,0-.6.13-1.19.85-1.18.69,0,.71.61.71,1.14,0,.67,0,1.34,0,2.05h3.23v-4.87ZM16.79,9.43v-2.79H5.45v2.79h11.34ZM15.17,5c-.17-1.2-.33-2.32-.5-3.46h-6.79c-.17,1.18-.34,2.29-.51,3.46h7.8ZM15.31,11.14c-2.06-.25-7.5-.17-8.35.11v1.57h8.35v-1.68ZM6.95,22.8h8.3v-1.66H6.95v1.66Z"/>
        <path class="cls-1" d="M1.55,33.03c0,1.54,0,3.07,0,4.61,0,.3.04.63-.07.88-.1.23-.39.49-.61.51-.23.02-.6-.2-.69-.41-.15-.33-.15-.74-.15-1.12-.01-3.07-.01-6.15,0-9.22,0-.38.01-.79.16-1.12.09-.21.46-.42.69-.4.22.02.5.29.61.52.11.25.07.59.07.88,0,1.62,0,3.25,0,4.87Z"/>
        <path class="cls-1" d="M.18,40.54c.55.07.86.11,1.27.16v3.43c-.4.05-.74.09-1.13.13-.49-1.25-.31-2.39-.14-3.72Z"/>
        <path class="cls-1" d="M12.26,36.46c0-.86,0-1.45,0-2.04,0-1.92,0-3.85,0-5.77,0-1.57.08-1.64,1.7-1.65.64,0,1.28-.03,1.92.01.4.02.79.15,1.2.23v9.16c-1.6.21-3.09.11-4.82.06ZM13.92,28.6v6.29h1.64v-6.29h-1.64Z"/>
        <path class="cls-1" d="M16.67,40.89c.02,1.16-.84,2.04-1.99,2.06-1.14.02-2.07-.87-2.09-1.99-.02-1.1.92-2.07,2.02-2.09,1.11-.02,2.05.9,2.06,2.03Z"/>
        <path class="cls-1" d="M16.67,46.29c.01,1.14-.84,2.02-1.98,2.05-1.12.03-2.06-.85-2.1-1.96-.04-1.11.98-2.18,2.06-2.16,1.07.02,2,.97,2.02,2.07Z"/>
      </g>
    </g>
  </g>
</svg>