<?xml version="1.0" encoding="UTF-8"?>
<svg id="Capa_2" data-name="Capa 2" xmlns="http://www.w3.org/2000/svg" viewBox="0 0 49.83 40.51">
  <defs>
    <style>
      .cls-1 {
        fill: #2f9393;
        stroke-width: 0px;
      }
    </style>
  </defs>
  <g id="_Capa_" data-name="&amp;lt;Capa&amp;gt;">
    <g id="kV3yBU">
      <path class="cls-1" d="M16.53,30.12c-.4-1.08-.8-2.14-1.2-3.2-.85-2.25-1.7-4.5-2.55-6.75-1.35-3.58-2.7-7.16-4.05-10.73-.68-1.8-1.37-3.59-2.03-5.4-.09-.25-.21-.3-.44-.29-1.43,0-2.85,0-4.28,0-.79,0-1.42-.33-1.76-1.05C-.11,2.03-.08,1.33.41.72.75.29,1.19,0,1.76,0c2.07,0,4.14-.02,6.21,0,.79,0,1.33.47,1.61,1.2.53,1.38,1.05,2.76,1.57,4.14.14.36.26.73.42,1.09.04.1.17.17.28.21.09.04.2,0,.31,0,11.89,0,23.78,0,35.66,0,1.12,0,1.83.58,1.99,1.67.04.26,0,.55-.09.81-1.05,3.43-2.1,6.85-3.16,10.28-.62,2-1.23,4.01-1.84,6.01-.21.68-.62,1.17-1.32,1.37-.21.06-.43.07-.64.07-3.8,0-7.6,0-11.4,0-3.95,0-7.9,0-11.85,0-.07,0-.13,0-.24.02.21.55.4,1.07.6,1.59.02.05.04.11.06.16.12.29.17.69.39.85.21.15.6.04.91.04,6.32,0,12.65,0,18.97,0,2.73,0,5,1.89,5.4,4.6.33,2.26-.45,4.15-2.35,5.43-1.75,1.18-3.64,1.26-5.51.26-2.25-1.2-3.33-3.77-2.67-6.24.02-.09.04-.18.07-.29h-11c.52,1.75.29,3.4-.76,4.9-.79,1.14-1.89,1.88-3.24,2.16-2.63.55-5.11-.81-6.13-3.24-1-2.4-.22-5.46,2.52-6.99ZM13.08,10.43c.02.08.02.11.03.14.67,1.77,1.34,3.53,2,5.3.08.21.18.27.4.27,2.64,0,5.29,0,7.93,0,.1,0,.2-.01.35-.02-.15-1.91-.29-3.8-.43-5.69h-10.28ZM35.46,16.13c.09.01.14.02.18.02,2.61,0,5.22,0,7.83,0,.21,0,.26-.08.32-.27.39-1.3.81-2.6,1.21-3.9.16-.51.3-1.02.46-1.55-.1,0-.16-.02-.21-.02-3.02,0-6.05,0-9.07,0-.27,0-.3.13-.31.33-.06.83-.13,1.67-.19,2.5-.07.95-.14,1.89-.21,2.87ZM34.05,10.45h-8.83c.15,1.91.29,3.79.44,5.69h7.94c.15-1.89.3-3.77.45-5.69ZM25.8,18.03c.13,1.71.26,3.39.38,5.07h6.87c.13-1.7.26-3.37.39-5.07h-7.64ZM23.94,18.03h-8.01c.65,1.71,1.28,3.4,1.91,5.07h6.49c-.13-1.7-.26-3.38-.39-5.07ZM34.92,23.13c.17,0,.31,0,.44,0,1.95,0,3.9-.01,5.86,0,.3,0,.39-.11.47-.36.39-1.3.79-2.6,1.19-3.9.08-.27.16-.54.25-.83h-7.82c-.13,1.7-.25,3.37-.38,5.09ZM40.28,36.72c.93,0,1.7-.77,1.71-1.7,0-.96-.76-1.74-1.71-1.75-.94,0-1.7.77-1.7,1.75,0,.94.75,1.7,1.7,1.7ZM17.29,35c0,.97.75,1.72,1.72,1.72.93,0,1.68-.76,1.68-1.72,0-.95-.75-1.72-1.68-1.73-.94,0-1.72.77-1.72,1.73Z"/>
    </g>
  </g>
</svg>