<?xml version="1.0" encoding="UTF-8"?>
<svg id="Capa_2" data-name="Capa 2" xmlns="http://www.w3.org/2000/svg" viewBox="0 0 53.44 35.76">
  <defs>
    <style>
      .cls-1 {
        stroke-width: 0px;
      }
    </style>
  </defs>
  <g id="_Capa_" data-name="&amp;lt;Capa&amp;gt;">
    <g>
      <path class="cls-1" d="M52.42,8.08L24.05,0c-.26-.07-2.25.91-4.75,2.23l27.11,7.72c.74.21,1.17.99.96,1.73l-5.55,19.49,3.72,1.06c.74.21,1.52-.22,1.73-.96l6.11-21.46c.21-.74-.22-1.52-.96-1.73Z"/>
      <path class="cls-1" d="M1.65,10.38C.1,11.24-.46,13.19.41,14.74c2.49,4.47,7.14,12.73,7.69,12.89l28.37,8.08c.74.21,1.52-.22,1.73-.96l6.11-21.46c.21-.74-.22-1.52-.96-1.73L14.97,3.48c-.54-.15-8.86,4.41-13.32,6.9ZM11.96,15.67c-.53,1.84-2.45,2.91-4.29,2.39-1.84-.53-2.91-2.45-2.39-4.29.53-1.84,2.45-2.91,4.29-2.39,1.84.53,2.91,2.45,2.39,4.29Z"/>
    </g>
  </g>
</svg>