<?xml version="1.0" encoding="UTF-8"?>
<svg id="Capa_2" data-name="Capa 2" xmlns="http://www.w3.org/2000/svg" viewBox="0 0 29.79 28.94">
  <defs>
    <style>
      .cls-1 {
        stroke-width: 0px;
      }
    </style>
  </defs>
  <g id="_Capa_" data-name="&amp;lt;Capa&amp;gt;">
    <g>
      <path class="cls-1" d="M25.6,0c1.71.1,3.06.98,3.79,2.69.73,1.72.46,3.37-.83,4.68-5.22,5.29-10.5,10.53-15.75,15.78-1.03,1.03-2.42,1.07-3.73,1.29-1.1.18-2.21.3-3.31.46-.66.1-1.02-.18-.93-.84.25-1.84.47-3.68.85-5.49.14-.65.59-1.32,1.07-1.8,5.13-5.18,10.29-10.33,15.45-15.48C23.11.39,24.2-.02,25.6,0ZM21.75,4.22c-4.33,4.33-8.69,8.69-12.98,12.98,1.24,1.24,2.54,2.54,3.76,3.75,4.31-4.29,8.68-8.64,13-12.95-1.25-1.25-2.54-2.54-3.78-3.78ZM26.89,6.84c.92-.82,1.53-1.77,1.21-3.07-.28-1.16-1.02-1.9-2.19-2.14-1.28-.27-2.26.26-3,1.22,1.33,1.33,2.62,2.62,3.98,3.99ZM11.32,22.46c-1.41-1.42-2.67-2.67-4.06-4.07-.25,1.61-.49,3.17-.75,4.83,1.72-.27,3.25-.52,4.81-.76Z"/>
      <path class="cls-1" d="M12.05.96v1.55c-1.62,0-3.21-.02-4.8,0-2.17.04-3.88.99-4.93,2.88-.4.72-.69,1.61-.7,2.43-.07,4.72-.09,9.44-.02,14.16.04,3.01,2.56,5.37,5.57,5.38,4.49.01,8.98,0,13.47,0,3.24,0,5.7-2.42,5.76-5.66.02-1.57,0-3.14,0-4.77h1.69c-.13,2.24,0,4.5-.43,6.66-.62,3.15-3.6,5.33-6.81,5.34-4.58.02-9.15.02-13.73,0-3.91-.02-7.07-3.18-7.09-7.11C-.01,17.33,0,12.84.01,8.35.02,4.29,2.69,1.32,6.74.98c1.73-.14,3.48-.02,5.31-.02Z"/>
    </g>
  </g>
</svg>