<?xml version="1.0" encoding="UTF-8"?>
<svg id="Capa_2" data-name="Capa 2" xmlns="http://www.w3.org/2000/svg" viewBox="0 0 47.07 49.61">
  <defs>
    <style>
      .cls-1 {
        fill: #fff;
        stroke-width: 0px;
      }
    </style>
  </defs>
  <g id="_Capa_" data-name="&amp;lt;Capa&amp;gt;">
    <path class="cls-1" d="M40.85,0H6.25C2.13,0,0,2.27,0,6.64v36.46c0,4.2,2.19,6.51,6.04,6.51h21.13v-19.48h-4.43v-6.78h4.43v-2.33c0-2.62.27-4.74.83-5.97.55-1.4,1.51-2.36,2.97-3.23,1.45-.87,3.24-1.24,5.52-1.24s4.49.22,6.63,1.01l-1.04,5.93c-1.24-.37-2.56-.53-3.65-.53-1.18,0-2.01.37-2.42.88-.55.58-.76,1.61-.76,3.28v2.19h5.87v6.78h-5.87v19.48h5.6c4.02,0,6.23-2.31,6.23-6.58V6.49c0-4.22-2.21-6.49-6.23-6.49Z"/>
  </g>
</svg>