<?xml version="1.0" encoding="UTF-8"?>
<svg id="Capa_2" data-name="Capa 2" xmlns="http://www.w3.org/2000/svg" viewBox="0 0 47.07 49.61">
  <defs>
    <style>
      .cls-1 {
        fill: #fff;
        fill-rule: evenodd;
        stroke-width: 0px;
      }
    </style>
  </defs>
  <g id="_Capa_" data-name="&amp;lt;Capa&amp;gt;">
    <path class="cls-1" d="M40.85,0H6.25C2.13,0,0,2.27,0,6.64v36.46c0,4.2,2.19,6.51,6.04,6.51h34.8c4.02,0,6.23-2.31,6.23-6.58V6.49c0-4.22-2.21-6.49-6.23-6.49ZM37.03,5.59q4.66,0,4.66,4.93t-4.58,4.82-4.62-4.88,4.54-4.86ZM23.57,15.17c4.91,0,9.13,4.48,9.04,9.64-.04,5.29-4.22,9.68-9.21,9.6-4.95-.13-9.13-4.52-9.01-9.73.12-5.21,4.26-9.51,9.17-9.51ZM41.7,41c-.04,2.31-.61,2.98-2.8,2.98H8.15c-2.15,0-2.76-.66-2.76-2.98,0-5.96.02-12.04-.08-18.08,0-1.72.45-2.1,1.95-2.04,2.15.15,2.19.06,1.95,2.27-.83,7.69,4.2,15.12,11.36,16.6,7.38,1.5,14.77-3.17,16.79-10.65.61-2.34.79-4.82.33-7.13-.16-.86.04-1.03.77-1.03,3.24-.26,3.24-.32,3.24,3.24v16.82Z"/>
  </g>
</svg>