<?xml version="1.0" encoding="UTF-8"?>
<svg id="Capa_2" data-name="Capa 2" xmlns="http://www.w3.org/2000/svg" viewBox="0 0 29.39 39.23">
  <defs>
    <style>
      .cls-1, .cls-2 {
        stroke-width: 0px;
      }

      .cls-2 {
        fill: #333;
      }
    </style>
  </defs>
  <g id="_Capa_" data-name="&amp;lt;Capa&amp;gt;">
    <g>
      <g id="_2ePlHK" data-name="2ePlHK">
        <g>
          <path class="cls-1" d="M20.7,0c2.66,2.67,5.31,5.34,7.99,7.99.5.49.69,1,.69,1.69-.02,8.59-.01,17.18-.02,25.77,0,.4-.03.81-.11,1.21-.23,1.18-.97,1.94-2.08,2.37-.18.07-.37.14-.55.21H2.74c-.1-.05-.19-.13-.29-.16-1.47-.39-2.22-1.4-2.42-2.85-.04-.31-.03-.64-.03-.96,0-10.43,0-20.86,0-31.29,0-.23,0-.47,0-.7C.09,1.68.91.64,2.45.16,2.56.13,2.65.05,2.74,0c5.99,0,11.97,0,17.96,0ZM19.66,1.62c-.39-.02-.67-.04-.96-.04-4.97,0-9.93,0-14.9,0-.17,0-.35,0-.52,0-.95.06-1.62.7-1.71,1.65-.03.29-.01.58-.01.87,0,6.48,0,12.96,0,19.43,0,4.01,0,8.02,0,12.03,0,1.39.66,2.09,1.98,2.09,7.44,0,14.87,0,22.31,0,1.3,0,1.98-.69,1.99-2,0-8.42,0-16.85,0-25.27,0-.19-.06-.38-.1-.62-1.58,0-3.12-.05-4.66.01-1.99.08-3.55-1.58-3.44-3.43.09-1.53.02-3.07.02-4.72ZM21.22,2.93c0,1.27-.03,2.55.01,3.82.03.82.72,1.42,1.57,1.45.72.03,1.45,0,2.18,0,.5,0,1.01,0,1.52,0-1.78-1.78-3.5-3.5-5.28-5.28Z"/>
          <path class="cls-1" d="M14.65,19.54c-2.79,0-5.58,0-8.37,0-.23,0-.47,0-.7-.01-.38-.03-.56-.28-.62-.62-.06-.39.12-.7.49-.81.22-.06.46-.08.69-.08,5.69,0,11.39,0,17.08,0,.2,0,.41,0,.6.05.41.1.59.34.58.74-.01.43-.25.68-.71.72-.23.02-.46,0-.7,0-2.79,0-5.58,0-8.37,0Z"/>
          <path class="cls-1" d="M14.69,24.44c-2.79,0-5.58,0-8.37,0-.23,0-.47.01-.7-.01-.43-.05-.63-.27-.66-.67-.03-.45.16-.71.62-.79.26-.05.52-.05.78-.05,5.55,0,11.1,0,16.65,0,.26,0,.53,0,.78.05.46.08.65.34.62.79-.03.4-.23.62-.66.67-.23.03-.46.01-.7.01-2.79,0-5.58,0-8.37,0Z"/>
          <path class="cls-1" d="M14.69,27.85c2.76,0,5.51,0,8.27,0,.26,0,.52,0,.78.02.47.05.68.28.68.73,0,.45-.19.68-.67.74-.23.03-.46.02-.7.02-5.57,0-11.14,0-16.71,0-.23,0-.47.01-.7-.02-.49-.06-.68-.28-.68-.73,0-.45.21-.68.67-.73.26-.03.52-.02.78-.02,2.76,0,5.51,0,8.27,0Z"/>
          <path class="cls-1" d="M18.76,14.65c-1.45,0-2.9,0-4.35,0-.2,0-.41.01-.61-.01-.4-.05-.64-.3-.68-.67-.04-.35.18-.69.54-.8.19-.06.4-.06.6-.06,3.02,0,6.04,0,9.05,0,.09,0,.17,0,.26,0,.57.06.85.32.84.79,0,.47-.29.73-.87.74-.84.02-1.68,0-2.52,0-.75,0-1.51,0-2.26,0Z"/>
          <path class="cls-1" d="M10.6,32.76c1.45,0,2.9,0,4.35,0,.23,0,.46,0,.7.02.39.03.56.29.6.63.04.34-.08.65-.43.77-.24.08-.51.11-.76.11-2.96,0-5.92,0-8.88,0-.17,0-.35,0-.52-.02-.49-.09-.73-.39-.69-.84.04-.42.27-.64.76-.67.61-.03,1.22-.01,1.83-.01,1.02,0,2.03,0,3.05,0Z"/>
        </g>
      </g>
      <path class="cls-2" d="M9.64,9.71c.33.15.63.38.87.69.25.32.37.74.37,1.28,0,.39-.1.75-.29,1.08-.19.33-.48.61-.88.82-.4.21-.88.32-1.46.32h-.04v.93h-.36v-.96c-.74-.07-1.34-.31-1.81-.73-.47-.42-.73-.93-.78-1.54h1.13c.03.33.17.63.43.91.25.28.6.46,1.03.53v-2.98c-.6-.18-1.06-.34-1.39-.48-.33-.14-.62-.37-.86-.68-.24-.31-.37-.73-.37-1.25,0-.43.11-.8.33-1.13.22-.33.52-.58.92-.76.4-.18.85-.27,1.38-.27v-1h.36v1.01c.72.05,1.3.28,1.73.66s.68.86.76,1.41h-1.14c-.05-.29-.19-.56-.42-.79-.23-.23-.53-.38-.92-.44v2.87c.61.19,1.08.35,1.41.5ZM6.76,8.52c.25.22.62.41,1.1.57v-2.77c-.45,0-.81.11-1.08.33-.27.22-.4.54-.4.95s.13.7.38.92ZM9.36,12.68c.26-.26.4-.58.4-.98s-.13-.73-.4-.96c-.26-.22-.64-.42-1.13-.57v2.89h.01c.48,0,.85-.13,1.12-.38Z"/>
    </g>
  </g>
</svg>