<?xml version="1.0" encoding="UTF-8"?>
<svg id="Capa_2" data-name="Capa 2" xmlns="http://www.w3.org/2000/svg" viewBox="0 0 37.39 41.58">
  <defs>
    <style>
      .cls-1 {
        stroke-width: 0px;
      }
    </style>
  </defs>
  <g id="_Capa_" data-name="&amp;lt;Capa&amp;gt;">
    <g id="f3YSAp">
      <g>
        <path class="cls-1" d="M27.63,41.58H9.76c-.07-.03-.15-.07-.22-.08-2.61-.37-4.73-2.25-5.21-4.83-.3-1.63-.35-3.3-.49-4.96-.26-3.07-.51-6.15-.76-9.22-.26-3.17-.54-6.34-.78-9.51-.03-.39-.15-.52-.53-.56-1.22-.15-2.02-1.39-1.68-2.57.28-.99,1.06-1.53,2.21-1.53,2.53,0,5.06,0,7.59,0,.16,0,.31,0,.51,0,0-.2,0-.35,0-.5,0-1.23,0-2.46,0-3.7C10.4,1.83,12.24,0,14.53,0c2.77,0,5.55,0,8.32,0,2.29,0,4.13,1.83,4.14,4.12,0,1.25,0,2.49,0,3.74,0,.14.01.28.02.43.13.01.21.03.29.03,1.81,0,3.63,0,5.44,0,.92,0,1.84-.02,2.76.04,1.08.07,1.87.95,1.89,2.02.01,1.05-.74,1.92-1.79,2.07-.14.02-.29.05-.42.07-.02.1-.04.17-.04.24-.23,2.71-.45,5.42-.67,8.13-.23,2.78-.46,5.55-.69,8.33-.18,2.12-.4,4.23-.51,6.35-.14,2.52-1.73,4.78-4.1,5.62-.49.17-1.01.27-1.51.41ZM30.97,12.51H6.42c0,.2.01.38.03.55.29,3.4.58,6.79.86,10.19.34,4.07.67,8.14,1,12.21.04.49.22.92.55,1.28.5.54,1.13.69,1.84.69,4.44,0,8.88,0,13.31,0,.93,0,1.87,0,2.8,0,1.39-.01,2.21-.83,2.28-2.21.04-.81.12-1.62.19-2.43.26-3.09.52-6.17.78-9.26.24-2.82.47-5.63.7-8.45.07-.85.14-1.69.21-2.56ZM14.56,8.28h8.26v-4.11h-8.26v4.11Z"/>
        <path class="cls-1" d="M20.77,24.97c0-2,0-4.01,0-6.01,0-1.19.55-1.97,1.55-2.25,1.14-.31,2.33.41,2.56,1.57.04.2.06.4.06.6,0,4.03,0,8.07,0,12.1,0,1.28-.79,2.17-1.97,2.25-1.1.08-2.12-.75-2.16-1.85-.06-1.73-.03-3.46-.04-5.2,0-.41,0-.81,0-1.22Z"/>
        <path class="cls-1" d="M12.45,24.91c0-2.02,0-4.03,0-6.05,0-1.37,1-2.32,2.29-2.21.95.08,1.75.86,1.84,1.81.02.19.04.38.04.57,0,3.94,0,7.88,0,11.82,0,.86-.22,1.61-.99,2.09-.67.41-1.39.44-2.08.06-.76-.42-1.09-1.1-1.09-1.95,0-2.04,0-4.09,0-6.13Z"/>
      </g>
    </g>
  </g>
</svg>